<svg class="main-svg" xmlns="http://www.w3.org/2000/svg" xmlns:xlink="http://www.w3.org/1999/xlink" width="700" height="500" style="" viewBox="0 0 700 500"><rect x="0" y="0" width="700" height="500" style="fill: rgb(255, 255, 255); fill-opacity: 1;"/><defs id="defs-5d992d"><g class="clips"><clipPath id="clip5d992dxyplot" class="plotclip"><rect width="653" height="463"/></clipPath><clipPath class="axesclip" id="clip5d992dx"><rect x="37" y="0" width="653" height="500"/></clipPath><clipPath class="axesclip" id="clip5d992dy"><rect x="0" y="10" width="700" height="463"/></clipPath><clipPath class="axesclip" id="clip5d992dxy"><rect x="37" y="10" width="653" height="463"/></clipPath></g><g class="gradients"/></defs><g class="bglayer"><rect class="bg" x="37" y="10" width="653" height="463" style="fill: rgb(229, 236, 246); fill-opacity: 1; stroke-width: 0;"/></g><g class="layer-below"><g class="imagelayer"/><g class="shapelayer"/></g><g class="cartesianlayer"><g class="subplot xy"><g class="layer-subplot"><g class="shapelayer"/><g class="imagelayer"/></g><g class="gridlayer"><g class="x"><path class="xgrid crisp" transform="translate(173.04,0)" d="M0,10v463" style="stroke: rgb(255, 255, 255); stroke-opacity: 1; stroke-width: 1px;"/><path class="xgrid crisp" transform="translate(309.08,0)" d="M0,10v463" style="stroke: rgb(255, 255, 255); stroke-opacity: 1; stroke-width: 1px;"/><path class="xgrid crisp" transform="translate(445.13,0)" d="M0,10v463" style="stroke: rgb(255, 255, 255); stroke-opacity: 1; stroke-width: 1px;"/><path class="xgrid crisp" transform="translate(581.17,0)" d="M0,10v463" style="stroke: rgb(255, 255, 255); stroke-opacity: 1; stroke-width: 1px;"/></g><g class="y"><path class="ygrid crisp" transform="translate(0,430.01)" d="M37,0h653" style="stroke: rgb(255, 255, 255); stroke-opacity: 1; stroke-width: 1px;"/><path class="ygrid crisp" transform="translate(0,331.78)" d="M37,0h653" style="stroke: rgb(255, 255, 255); stroke-opacity: 1; stroke-width: 1px;"/><path class="ygrid crisp" transform="translate(0,135.32)" d="M37,0h653" style="stroke: rgb(255, 255, 255); stroke-opacity: 1; stroke-width: 1px;"/><path class="ygrid crisp" transform="translate(0,37.1)" d="M37,0h653" style="stroke: rgb(255, 255, 255); stroke-opacity: 1; stroke-width: 1px;"/></g></g><g class="zerolinelayer"><path class="xzl zl crisp" transform="translate(37,0)" d="M0,10v463" style="stroke: rgb(255, 255, 255); stroke-opacity: 1; stroke-width: 2px;"/><path class="yzl zl crisp" transform="translate(0,233.55)" d="M37,0h653" style="stroke: rgb(255, 255, 255); stroke-opacity: 1; stroke-width: 2px;"/></g><path class="xlines-below"/><path class="ylines-below"/><g class="overlines-below"/><g class="xaxislayer-below"/><g class="yaxislayer-below"/><g class="overaxes-below"/><g class="plot" transform="translate(37,10)" clip-path="url('#clip5d992dxyplot')"><g class="scatterlayer mlayer"><g class="trace scatter trace0cb856" style="stroke-miterlimit: 2; opacity: 1;"><g class="fills"/><g class="errorbars"/><g class="lines"><path class="js-line" d="M0,358.91L10.88,372.86L13.6,376L21.77,384.25L24.49,386.61L32.65,392.7L35.37,394.27L46.25,398.99L48.97,399.58L54.42,400.36L57.14,400.56L65.3,399.58L68.02,398.99L78.9,394.27L81.63,392.7L89.79,386.81L92.51,384.45L103.39,373.25L106.11,370.11L117,355.77L119.72,351.84L133.32,330.03L136.04,325.32L152.37,294.67L155.09,289.17L174.13,249.29L176.85,243.39L228.55,132.79L231.27,127.49L244.88,102.14L247.6,97.43L263.92,71.69L266.64,67.76L280.25,51.06L282.97,48.31L291.13,40.65L293.85,38.49L302.01,33.19L304.73,31.61L312.9,28.47L315.62,27.88L321.06,27.1L323.78,26.9L331.94,27.88L334.66,28.47L345.55,33.19L348.27,34.76L359.15,43.21L361.87,45.76L372.75,57.74L375.48,61.28L386.36,76.41L389.08,80.73L399.96,99L402.68,103.91L413.57,124.54L416.29,130.04L432.61,164.62L435.33,170.71L462.54,233.38L465.26,239.66L487.03,289.95L489.75,296.04L506.08,331.21L508.8,336.71L522.4,362.84L525.12,367.75L536,386.02L538.73,390.34L552.33,409.01L555.05,412.15L563.21,420.99L565.93,423.54L574.1,430.03L576.82,431.99L584.98,436.31L587.7,437.3L595.86,439.46L598.58,439.65L604.03,439.65L606.75,439.46L614.91,437.3L617.63,436.31L625.79,431.99L628.51,430.22L636.67,423.74L639.4,421.19L650.28,409.4L653,406.06" style="vector-effect: non-scaling-stroke; fill: none; stroke: rgb(99, 110, 250); stroke-opacity: 1; stroke-width: 2px; opacity: 1;"/></g><g class="points"/><g class="text"/></g><g class="trace scatter tracee0155f" style="stroke-miterlimit: 2; opacity: 1;"><g class="fills"/><g class="errorbars"/><g class="lines"/><g class="points"><path class="point" transform="translate(323.78,26.9)" d="M3,0A3,3 0 1,1 0,-3A3,3 0 0,1 3,0Z" style="opacity: 1; stroke-width: 0px; fill: rgb(239, 85, 59); fill-opacity: 1;"/></g><g class="text"/></g></g></g><g class="overplot"/><path class="xlines-above crisp" d="M0,0" style="fill: none;"/><path class="ylines-above crisp" d="M0,0" style="fill: none;"/><g class="overlines-above"/><g class="xaxislayer-above"><g class="xtick"><text text-anchor="middle" x="0" y="487" transform="translate(37,0)" style="font-family: 'Open Sans', verdana, arial, sans-serif; font-size: 13px; fill: rgb(42, 63, 95); fill-opacity: 1; white-space: pre;">0</text></g><g class="xtick"><text text-anchor="middle" x="0" y="487" transform="translate(173.04,0)" style="font-family: 'Open Sans', verdana, arial, sans-serif; font-size: 13px; fill: rgb(42, 63, 95); fill-opacity: 1; white-space: pre;">50</text></g><g class="xtick"><text text-anchor="middle" x="0" y="487" transform="translate(309.08,0)" style="font-family: 'Open Sans', verdana, arial, sans-serif; font-size: 13px; fill: rgb(42, 63, 95); fill-opacity: 1; white-space: pre;">100</text></g><g class="xtick"><text text-anchor="middle" x="0" y="487" transform="translate(445.13,0)" style="font-family: 'Open Sans', verdana, arial, sans-serif; font-size: 13px; fill: rgb(42, 63, 95); fill-opacity: 1; white-space: pre;">150</text></g><g class="xtick"><text text-anchor="middle" x="0" y="487" transform="translate(581.17,0)" style="font-family: 'Open Sans', verdana, arial, sans-serif; font-size: 13px; fill: rgb(42, 63, 95); fill-opacity: 1; white-space: pre;">200</text></g></g><g class="yaxislayer-above"><g class="ytick"><text text-anchor="end" x="36" y="4.55" transform="translate(0,430.01)" style="font-family: 'Open Sans', verdana, arial, sans-serif; font-size: 13px; fill: rgb(42, 63, 95); fill-opacity: 1; white-space: pre;">−1</text></g><g class="ytick"><text text-anchor="end" x="36" y="4.55" transform="translate(0,331.78)" style="font-family: 'Open Sans', verdana, arial, sans-serif; font-size: 13px; fill: rgb(42, 63, 95); fill-opacity: 1; white-space: pre;">−0.5</text></g><g class="ytick"><text text-anchor="end" x="36" y="4.55" transform="translate(0,233.55)" style="font-family: 'Open Sans', verdana, arial, sans-serif; font-size: 13px; fill: rgb(42, 63, 95); fill-opacity: 1; white-space: pre;">0</text></g><g class="ytick"><text text-anchor="end" x="36" y="4.55" transform="translate(0,135.32)" style="font-family: 'Open Sans', verdana, arial, sans-serif; font-size: 13px; fill: rgb(42, 63, 95); fill-opacity: 1; white-space: pre;">0.5</text></g><g class="ytick"><text text-anchor="end" x="36" y="4.55" transform="translate(0,37.1)" style="font-family: 'Open Sans', verdana, arial, sans-serif; font-size: 13px; fill: rgb(42, 63, 95); fill-opacity: 1; white-space: pre;">1</text></g></g><g class="overaxes-above"/></g></g><g class="polarlayer"/><g class="ternarylayer"/><g class="geolayer"/><g class="funnelarealayer"/><g class="pielayer"/><g class="treemaplayer"/><g class="sunburstlayer"/><g class="glimages"/><defs id="topdefs-5d992d"><g class="clips"/></defs><g class="layer-above"><g class="imagelayer"/><g class="shapelayer"><path data-index="0" fill-rule="evenodd" d="M37,410.56L690,410.56" clip-path="url('#clip5d992dy')" style="opacity: 1; stroke: rgb(89, 105, 112); stroke-opacity: 0.4; fill: rgb(0, 0, 0); fill-opacity: 0; stroke-dasharray: 9px, 9px; stroke-width: 2px;"/><path data-index="1" fill-rule="evenodd" d="M37,36.9L690,36.9" clip-path="url('#clip5d992dy')" style="opacity: 1; stroke: rgb(89, 105, 112); stroke-opacity: 0.4; fill: rgb(0, 0, 0); fill-opacity: 0; stroke-dasharray: 9px, 9px; stroke-width: 2px;"/></g></g><g class="infolayer"><g class="g-gtitle"/><g class="g-xtitle"/><g class="g-ytitle"/><g class="annotation" data-index="0" style="opacity: 1;"><g class="annotation-text-g" transform="rotate(0,527.36,298.46)"><g class="cursor-pointer" transform="translate(523,289)"><rect class="bg" x="0.5" y="0.5" width="7" height="18" style="stroke-width: 1px; stroke: rgb(0, 0, 0); stroke-opacity: 0; fill: rgb(0, 0, 0); fill-opacity: 0;"/><text class="annotation-text" text-anchor="middle" x="3.8125" y="14" style="font-family: 'Open Sans', verdana, arial, sans-serif; font-size: 13px; fill: rgb(42, 63, 95); fill-opacity: 1; white-space: pre;"> </text></g></g><g class="annotation-arrow-g" style="opacity: 1;"><path d="M523.36,298.46L192.44,298.46" style="stroke-width: 2px; stroke: rgb(42, 63, 95); stroke-opacity: 1; stroke-dasharray: 0px, 2.6px, 325.72px, 330.92px;"/><path d="M-3.7,-2.5V2.5L1.3,0Z" transform="translate(520.760009765625,298.46002197265625)rotate(-0.017489553642710168)scale(2)" style="fill: rgb(42, 63, 95); stroke-width: 0;"/><path d="M-3.7,-2.5V2.5L1.3,0Z" transform="translate(195.04000854492188,298.4599914550781)rotate(180)scale(2)" style="fill: rgb(42, 63, 95); stroke-width: 0;"/></g></g><g class="annotation" data-index="1" style="opacity: 1;"><g class="annotation-text-g" transform="rotate(0,94.14,27.4)"><g class="cursor-pointer" transform="translate(90,18)"><rect class="bg" x="0.5" y="0.5" width="7" height="18" style="stroke-width: 1px; stroke: rgb(0, 0, 0); stroke-opacity: 0; fill: rgb(0, 0, 0); fill-opacity: 0;"/><text class="annotation-text" text-anchor="middle" x="3.8125" y="14" style="font-family: 'Open Sans', verdana, arial, sans-serif; font-size: 13px; fill: rgb(42, 63, 95); fill-opacity: 1; white-space: pre;"> </text></g></g><g class="annotation-arrow-g" style="opacity: 1;"><path d="M94.14,36.9L94.14,410.56" style="stroke-width: 2px; stroke: rgb(42, 63, 95); stroke-opacity: 1; stroke-dasharray: 0px, 2.6px, 368.46px, 373.66px;"/><path d="M-3.7,-2.5V2.5L1.3,0Z" transform="translate(94.1400146484375,39.5)rotate(-90.00874277547395)scale(2)" style="fill: rgb(42, 63, 95); stroke-width: 0;"/><path d="M-3.7,-2.5V2.5L1.3,0Z" transform="translate(94.13999938964844,407.9599914550781)rotate(90)scale(2)" style="fill: rgb(42, 63, 95); stroke-width: 0;"/></g></g><g class="annotation" data-index="2" style="opacity: 1;"><g class="annotation-text-g" transform="rotate(0,138.64,52.6)"><g class="cursor-pointer" transform="translate(102,43)"><rect class="bg" x="0.5" y="0.5" width="72" height="18" style="stroke-width: 1px; stroke: rgb(0, 0, 0); stroke-opacity: 0; fill: rgb(0, 0, 0); fill-opacity: 0;"/><text class="annotation-text" text-anchor="middle" x="36.6875" y="14" style="font-family: 'Open Sans', verdana, arial, sans-serif; font-size: 13px; fill: rgb(42, 63, 95); fill-opacity: 1; white-space: pre;">Prominence</text></g></g></g><g class="annotation" data-index="3" style="opacity: 1;"><g class="annotation-text-g" transform="rotate(0,571.37,54.400000000000006)"><g class="cursor-pointer" transform="translate(516,42)"><rect class="bg" x="0.5" y="0.5" width="110" height="24" style="stroke-width: 1px; stroke: rgb(0, 0, 0); stroke-opacity: 0; fill: rgb(242, 242, 242); fill-opacity: 1;"/><text class="annotation-text" text-anchor="middle" x="55.71875" y="16" style="font-family: JuliaMono, SFMono-Regular, Menlo, Consolas, 'Liberation Mono', 'DejaVu Sans Mono', monospace; font-size: 13px; fill: rgb(42, 63, 95); fill-opacity: 1; white-space: pre;">relheight = 0</text></g></g></g><g class="annotation" data-index="4" style="opacity: 1;"><g class="annotation-text-g" transform="rotate(0,439.86,283.96)"><g class="cursor-pointer" transform="translate(376,271)"><rect class="bg" x="0.5" y="0.5" width="126" height="24" style="stroke-width: 1px; stroke: rgb(0, 0, 0); stroke-opacity: 0; fill: rgb(242, 242, 242); fill-opacity: 1;"/><text class="annotation-text" text-anchor="middle" x="63.515625" y="16" style="font-family: JuliaMono, SFMono-Regular, Menlo, Consolas, 'Liberation Mono', 'DejaVu Sans Mono', monospace; font-size: 13px; fill: rgb(42, 63, 95); fill-opacity: 1; white-space: pre;">relheight = 0.7</text></g></g></g><g class="annotation" data-index="5" style="opacity: 1;"><g class="annotation-text-g" transform="rotate(0,494.28,393.06)"><g class="cursor-pointer" transform="translate(438,381)"><rect class="bg" x="0.5" y="0.5" width="111" height="24" style="stroke-width: 1px; stroke: rgb(0, 0, 0); stroke-opacity: 0; fill: rgb(242, 242, 242); fill-opacity: 1;"/><text class="annotation-text" text-anchor="middle" x="55.71875" y="16" style="font-family: JuliaMono, SFMono-Regular, Menlo, Consolas, 'Liberation Mono', 'DejaVu Sans Mono', monospace; font-size: 13px; fill: rgb(42, 63, 95); fill-opacity: 1; white-space: pre;">relheight = 1</text></g></g></g><g class="annotation" data-index="6" style="opacity: 1;"><g class="annotation-text-g" transform="rotate(0,276.08000000000004,316.96)"><g class="cursor-pointer" transform="translate(217,304)"><rect class="bg" x="0.5" y="0.5" width="118" height="24" style="stroke-width: 1px; stroke: rgb(0, 0, 0); stroke-opacity: 0; fill: rgb(242, 242, 242); fill-opacity: 1;"/><text class="annotation-text" text-anchor="middle" x="59.609375" y="16" style="font-family: JuliaMono, SFMono-Regular, Menlo, Consolas, 'Liberation Mono', 'DejaVu Sans Mono', monospace; font-size: 13px; fill: rgb(42, 63, 95); fill-opacity: 1; white-space: pre;">width = 121.63</text></g></g></g></g></svg>