<?xml version="1.0" encoding="utf-8"?>
<svg xmlns="http://www.w3.org/2000/svg" xmlns:xlink="http://www.w3.org/1999/xlink" width="600" height="400" viewBox="0 0 2400 1600">
<defs>
  <clipPath id="clip520">
    <rect x="0" y="0" width="2400" height="1600"/>
  </clipPath>
</defs>
<path clip-path="url(#clip520)" d="M0 1600 L2400 1600 L2400 0 L0 0  Z" fill="#ffffff" fill-rule="evenodd" fill-opacity="1"/>
<defs>
  <clipPath id="clip521">
    <rect x="480" y="0" width="1681" height="1600"/>
  </clipPath>
</defs>
<path clip-path="url(#clip520)" d="M149.191 1486.45 L2352.76 1486.45 L2352.76 47.2441 L149.191 47.2441  Z" fill="#ffffff" fill-rule="evenodd" fill-opacity="1"/>
<defs>
  <clipPath id="clip522">
    <rect x="149" y="47" width="2205" height="1440"/>
  </clipPath>
</defs>
<polyline clip-path="url(#clip522)" style="stroke:#000000; stroke-linecap:round; stroke-linejoin:round; stroke-width:2; stroke-opacity:0.1; fill:none" points="211.556,1486.45 211.556,47.2441 "/>
<polyline clip-path="url(#clip522)" style="stroke:#000000; stroke-linecap:round; stroke-linejoin:round; stroke-width:2; stroke-opacity:0.1; fill:none" points="663.477,1486.45 663.477,47.2441 "/>
<polyline clip-path="url(#clip522)" style="stroke:#000000; stroke-linecap:round; stroke-linejoin:round; stroke-width:2; stroke-opacity:0.1; fill:none" points="1115.4,1486.45 1115.4,47.2441 "/>
<polyline clip-path="url(#clip522)" style="stroke:#000000; stroke-linecap:round; stroke-linejoin:round; stroke-width:2; stroke-opacity:0.1; fill:none" points="1567.32,1486.45 1567.32,47.2441 "/>
<polyline clip-path="url(#clip522)" style="stroke:#000000; stroke-linecap:round; stroke-linejoin:round; stroke-width:2; stroke-opacity:0.1; fill:none" points="2019.24,1486.45 2019.24,47.2441 "/>
<polyline clip-path="url(#clip520)" style="stroke:#000000; stroke-linecap:round; stroke-linejoin:round; stroke-width:4; stroke-opacity:1; fill:none" points="149.191,1486.45 2352.76,1486.45 "/>
<polyline clip-path="url(#clip520)" style="stroke:#000000; stroke-linecap:round; stroke-linejoin:round; stroke-width:4; stroke-opacity:1; fill:none" points="211.556,1486.45 211.556,1467.55 "/>
<polyline clip-path="url(#clip520)" style="stroke:#000000; stroke-linecap:round; stroke-linejoin:round; stroke-width:4; stroke-opacity:1; fill:none" points="663.477,1486.45 663.477,1467.55 "/>
<polyline clip-path="url(#clip520)" style="stroke:#000000; stroke-linecap:round; stroke-linejoin:round; stroke-width:4; stroke-opacity:1; fill:none" points="1115.4,1486.45 1115.4,1467.55 "/>
<polyline clip-path="url(#clip520)" style="stroke:#000000; stroke-linecap:round; stroke-linejoin:round; stroke-width:4; stroke-opacity:1; fill:none" points="1567.32,1486.45 1567.32,1467.55 "/>
<polyline clip-path="url(#clip520)" style="stroke:#000000; stroke-linecap:round; stroke-linejoin:round; stroke-width:4; stroke-opacity:1; fill:none" points="2019.24,1486.45 2019.24,1467.55 "/>
<path clip-path="url(#clip520)" d="M211.556 1517.37 Q207.945 1517.37 206.116 1520.93 Q204.311 1524.47 204.311 1531.6 Q204.311 1538.71 206.116 1542.27 Q207.945 1545.82 211.556 1545.82 Q215.19 1545.82 216.996 1542.27 Q218.824 1538.71 218.824 1531.6 Q218.824 1524.47 216.996 1520.93 Q215.19 1517.37 211.556 1517.37 M211.556 1513.66 Q217.366 1513.66 220.422 1518.27 Q223.5 1522.85 223.5 1531.6 Q223.5 1540.33 220.422 1544.94 Q217.366 1549.52 211.556 1549.52 Q205.746 1549.52 202.667 1544.94 Q199.612 1540.33 199.612 1531.6 Q199.612 1522.85 202.667 1518.27 Q205.746 1513.66 211.556 1513.66 Z" fill="#000000" fill-rule="nonzero" fill-opacity="1" /><path clip-path="url(#clip520)" d="M653.754 1514.29 L672.111 1514.29 L672.111 1518.22 L658.037 1518.22 L658.037 1526.7 Q659.055 1526.35 660.074 1526.19 Q661.092 1526 662.111 1526 Q667.898 1526 671.277 1529.17 Q674.657 1532.34 674.657 1537.76 Q674.657 1543.34 671.185 1546.44 Q667.713 1549.52 661.393 1549.52 Q659.217 1549.52 656.949 1549.15 Q654.703 1548.78 652.296 1548.04 L652.296 1543.34 Q654.379 1544.47 656.602 1545.03 Q658.824 1545.58 661.301 1545.58 Q665.305 1545.58 667.643 1543.48 Q669.981 1541.37 669.981 1537.76 Q669.981 1534.15 667.643 1532.04 Q665.305 1529.94 661.301 1529.94 Q659.426 1529.94 657.551 1530.35 Q655.699 1530.77 653.754 1531.65 L653.754 1514.29 Z" fill="#000000" fill-rule="nonzero" fill-opacity="1" /><path clip-path="url(#clip520)" d="M1090.08 1544.91 L1097.72 1544.91 L1097.72 1518.55 L1089.41 1520.21 L1089.41 1515.95 L1097.68 1514.29 L1102.35 1514.29 L1102.35 1544.91 L1109.99 1544.91 L1109.99 1548.85 L1090.08 1548.85 L1090.08 1544.91 Z" fill="#000000" fill-rule="nonzero" fill-opacity="1" /><path clip-path="url(#clip520)" d="M1129.44 1517.37 Q1125.83 1517.37 1124 1520.93 Q1122.19 1524.47 1122.19 1531.6 Q1122.19 1538.71 1124 1542.27 Q1125.83 1545.82 1129.44 1545.82 Q1133.07 1545.82 1134.88 1542.27 Q1136.7 1538.71 1136.7 1531.6 Q1136.7 1524.47 1134.88 1520.93 Q1133.07 1517.37 1129.44 1517.37 M1129.44 1513.66 Q1135.25 1513.66 1138.3 1518.27 Q1141.38 1522.85 1141.38 1531.6 Q1141.38 1540.33 1138.3 1544.94 Q1135.25 1549.52 1129.44 1549.52 Q1123.63 1549.52 1120.55 1544.94 Q1117.49 1540.33 1117.49 1531.6 Q1117.49 1522.85 1120.55 1518.27 Q1123.63 1513.66 1129.44 1513.66 Z" fill="#000000" fill-rule="nonzero" fill-opacity="1" /><path clip-path="url(#clip520)" d="M1542.5 1544.91 L1550.14 1544.91 L1550.14 1518.55 L1541.83 1520.21 L1541.83 1515.95 L1550.1 1514.29 L1554.77 1514.29 L1554.77 1544.91 L1562.41 1544.91 L1562.41 1548.85 L1542.5 1548.85 L1542.5 1544.91 Z" fill="#000000" fill-rule="nonzero" fill-opacity="1" /><path clip-path="url(#clip520)" d="M1571.9 1514.29 L1590.26 1514.29 L1590.26 1518.22 L1576.18 1518.22 L1576.18 1526.7 Q1577.2 1526.35 1578.22 1526.19 Q1579.24 1526 1580.26 1526 Q1586.04 1526 1589.42 1529.17 Q1592.8 1532.34 1592.8 1537.76 Q1592.8 1543.34 1589.33 1546.44 Q1585.86 1549.52 1579.54 1549.52 Q1577.36 1549.52 1575.1 1549.15 Q1572.85 1548.78 1570.44 1548.04 L1570.44 1543.34 Q1572.53 1544.47 1574.75 1545.03 Q1576.97 1545.58 1579.45 1545.58 Q1583.45 1545.58 1585.79 1543.48 Q1588.13 1541.37 1588.13 1537.76 Q1588.13 1534.15 1585.79 1532.04 Q1583.45 1529.94 1579.45 1529.94 Q1577.57 1529.94 1575.7 1530.35 Q1573.85 1530.77 1571.9 1531.65 L1571.9 1514.29 Z" fill="#000000" fill-rule="nonzero" fill-opacity="1" /><path clip-path="url(#clip520)" d="M1998.01 1544.91 L2014.33 1544.91 L2014.33 1548.85 L1992.39 1548.85 L1992.39 1544.91 Q1995.05 1542.16 1999.63 1537.53 Q2004.24 1532.88 2005.42 1531.53 Q2007.66 1529.01 2008.54 1527.27 Q2009.45 1525.51 2009.45 1523.82 Q2009.45 1521.07 2007.5 1519.33 Q2005.58 1517.6 2002.48 1517.6 Q2000.28 1517.6 1997.83 1518.36 Q1995.4 1519.13 1992.62 1520.68 L1992.62 1515.95 Q1995.44 1514.82 1997.9 1514.24 Q2000.35 1513.66 2002.39 1513.66 Q2007.76 1513.66 2010.95 1516.35 Q2014.15 1519.03 2014.15 1523.52 Q2014.15 1525.65 2013.34 1527.57 Q2012.55 1529.47 2010.44 1532.07 Q2009.86 1532.74 2006.76 1535.95 Q2003.66 1539.15 1998.01 1544.91 Z" fill="#000000" fill-rule="nonzero" fill-opacity="1" /><path clip-path="url(#clip520)" d="M2034.15 1517.37 Q2030.53 1517.37 2028.71 1520.93 Q2026.9 1524.47 2026.9 1531.6 Q2026.9 1538.71 2028.71 1542.27 Q2030.53 1545.82 2034.15 1545.82 Q2037.78 1545.82 2039.59 1542.27 Q2041.41 1538.71 2041.41 1531.6 Q2041.41 1524.47 2039.59 1520.93 Q2037.78 1517.37 2034.15 1517.37 M2034.15 1513.66 Q2039.96 1513.66 2043.01 1518.27 Q2046.09 1522.85 2046.09 1531.6 Q2046.09 1540.33 2043.01 1544.94 Q2039.96 1549.52 2034.15 1549.52 Q2028.34 1549.52 2025.26 1544.94 Q2022.2 1540.33 2022.2 1531.6 Q2022.2 1522.85 2025.26 1518.27 Q2028.34 1513.66 2034.15 1513.66 Z" fill="#000000" fill-rule="nonzero" fill-opacity="1" /><polyline clip-path="url(#clip522)" style="stroke:#000000; stroke-linecap:round; stroke-linejoin:round; stroke-width:2; stroke-opacity:0.1; fill:none" points="149.191,1315.47 2352.76,1315.47 "/>
<polyline clip-path="url(#clip522)" style="stroke:#000000; stroke-linecap:round; stroke-linejoin:round; stroke-width:2; stroke-opacity:0.1; fill:none" points="149.191,1044.76 2352.76,1044.76 "/>
<polyline clip-path="url(#clip522)" style="stroke:#000000; stroke-linecap:round; stroke-linejoin:round; stroke-width:2; stroke-opacity:0.1; fill:none" points="149.191,774.056 2352.76,774.056 "/>
<polyline clip-path="url(#clip522)" style="stroke:#000000; stroke-linecap:round; stroke-linejoin:round; stroke-width:2; stroke-opacity:0.1; fill:none" points="149.191,503.351 2352.76,503.351 "/>
<polyline clip-path="url(#clip522)" style="stroke:#000000; stroke-linecap:round; stroke-linejoin:round; stroke-width:2; stroke-opacity:0.1; fill:none" points="149.191,232.646 2352.76,232.646 "/>
<polyline clip-path="url(#clip520)" style="stroke:#000000; stroke-linecap:round; stroke-linejoin:round; stroke-width:4; stroke-opacity:1; fill:none" points="149.191,1486.45 149.191,47.2441 "/>
<polyline clip-path="url(#clip520)" style="stroke:#000000; stroke-linecap:round; stroke-linejoin:round; stroke-width:4; stroke-opacity:1; fill:none" points="149.191,1315.47 168.089,1315.47 "/>
<polyline clip-path="url(#clip520)" style="stroke:#000000; stroke-linecap:round; stroke-linejoin:round; stroke-width:4; stroke-opacity:1; fill:none" points="149.191,1044.76 168.089,1044.76 "/>
<polyline clip-path="url(#clip520)" style="stroke:#000000; stroke-linecap:round; stroke-linejoin:round; stroke-width:4; stroke-opacity:1; fill:none" points="149.191,774.056 168.089,774.056 "/>
<polyline clip-path="url(#clip520)" style="stroke:#000000; stroke-linecap:round; stroke-linejoin:round; stroke-width:4; stroke-opacity:1; fill:none" points="149.191,503.351 168.089,503.351 "/>
<polyline clip-path="url(#clip520)" style="stroke:#000000; stroke-linecap:round; stroke-linejoin:round; stroke-width:4; stroke-opacity:1; fill:none" points="149.191,232.646 168.089,232.646 "/>
<path clip-path="url(#clip520)" d="M50.9921 1315.92 L80.6679 1315.92 L80.6679 1319.85 L50.9921 1319.85 L50.9921 1315.92 Z" fill="#000000" fill-rule="nonzero" fill-opacity="1" /><path clip-path="url(#clip520)" d="M103.608 1302.26 L91.8021 1320.71 L103.608 1320.71 L103.608 1302.26 M102.381 1298.19 L108.26 1298.19 L108.26 1320.71 L113.191 1320.71 L113.191 1324.6 L108.26 1324.6 L108.26 1332.75 L103.608 1332.75 L103.608 1324.6 L88.0058 1324.6 L88.0058 1320.09 L102.381 1298.19 Z" fill="#000000" fill-rule="nonzero" fill-opacity="1" /><path clip-path="url(#clip520)" d="M53.0754 1045.21 L82.7512 1045.21 L82.7512 1049.15 L53.0754 1049.15 L53.0754 1045.21 Z" fill="#000000" fill-rule="nonzero" fill-opacity="1" /><path clip-path="url(#clip520)" d="M96.8715 1058.11 L113.191 1058.11 L113.191 1062.04 L91.2465 1062.04 L91.2465 1058.11 Q93.9086 1055.35 98.4919 1050.72 Q103.098 1046.07 104.279 1044.73 Q106.524 1042.2 107.404 1040.47 Q108.307 1038.71 108.307 1037.02 Q108.307 1034.26 106.362 1032.53 Q104.441 1030.79 101.339 1030.79 Q99.14 1030.79 96.6863 1031.56 Q94.2558 1032.32 91.478 1033.87 L91.478 1029.15 Q94.3021 1028.01 96.7558 1027.44 Q99.2095 1026.86 101.246 1026.86 Q106.617 1026.86 109.811 1029.54 Q113.006 1032.23 113.006 1036.72 Q113.006 1038.85 112.196 1040.77 Q111.408 1042.67 109.302 1045.26 Q108.723 1045.93 105.621 1049.15 Q102.52 1052.34 96.8715 1058.11 Z" fill="#000000" fill-rule="nonzero" fill-opacity="1" /><path clip-path="url(#clip520)" d="M101.246 759.855 Q97.6354 759.855 95.8067 763.42 Q94.0012 766.962 94.0012 774.091 Q94.0012 781.198 95.8067 784.762 Q97.6354 788.304 101.246 788.304 Q104.881 788.304 106.686 784.762 Q108.515 781.198 108.515 774.091 Q108.515 766.962 106.686 763.42 Q104.881 759.855 101.246 759.855 M101.246 756.151 Q107.057 756.151 110.112 760.758 Q113.191 765.341 113.191 774.091 Q113.191 782.818 110.112 787.424 Q107.057 792.008 101.246 792.008 Q95.4363 792.008 92.3576 787.424 Q89.3021 782.818 89.3021 774.091 Q89.3021 765.341 92.3576 760.758 Q95.4363 756.151 101.246 756.151 Z" fill="#000000" fill-rule="nonzero" fill-opacity="1" /><path clip-path="url(#clip520)" d="M96.8715 516.696 L113.191 516.696 L113.191 520.631 L91.2465 520.631 L91.2465 516.696 Q93.9086 513.941 98.4919 509.312 Q103.098 504.659 104.279 503.316 Q106.524 500.793 107.404 499.057 Q108.307 497.298 108.307 495.608 Q108.307 492.853 106.362 491.117 Q104.441 489.381 101.339 489.381 Q99.14 489.381 96.6863 490.145 Q94.2558 490.909 91.478 492.46 L91.478 487.738 Q94.3021 486.603 96.7558 486.025 Q99.2095 485.446 101.246 485.446 Q106.617 485.446 109.811 488.131 Q113.006 490.816 113.006 495.307 Q113.006 497.437 112.196 499.358 Q111.408 501.256 109.302 503.849 Q108.723 504.52 105.621 507.738 Q102.52 510.932 96.8715 516.696 Z" fill="#000000" fill-rule="nonzero" fill-opacity="1" /><path clip-path="url(#clip520)" d="M103.608 219.44 L91.8021 237.889 L103.608 237.889 L103.608 219.44 M102.381 215.366 L108.26 215.366 L108.26 237.889 L113.191 237.889 L113.191 241.778 L108.26 241.778 L108.26 249.926 L103.608 249.926 L103.608 241.778 L88.0058 241.778 L88.0058 237.264 L102.381 215.366 Z" fill="#000000" fill-rule="nonzero" fill-opacity="1" /><polyline clip-path="url(#clip522)" style="stroke:#000000; stroke-linecap:round; stroke-linejoin:round; stroke-width:8; stroke-opacity:1; fill:none" points="211.556,771.94 215.171,751.602 218.787,727.706 222.402,699.036 226.017,673.151 229.633,653.513 233.248,636.823 236.863,615.754 240.479,600.833 244.094,569.826 247.71,555.312 251.325,543.975 254.94,512.926 258.556,502.925 262.171,482.253 265.786,467.937 269.402,450.283 273.017,435.112 276.632,420.44 280.248,416.719 283.863,402.041 287.479,388.649 291.094,375.4 294.709,373.8 298.325,365.306 301.94,352.233 305.555,353.652 309.171,343.135 312.786,334.491 316.402,330.304 320.017,330.122 323.632,327.829 327.248,323.426 330.863,320.183 334.478,318.5 338.094,323.183 341.709,314.088 345.324,324.859 348.94,320.534 352.555,319.216 356.171,325.429 359.786,330.259 363.401,333.286 367.017,334.422 370.632,334.808 374.247,336.975 377.863,336.942 381.478,338.117 385.093,350.731 388.709,345.379 392.324,347.977 395.94,356.038 399.555,348.597 403.17,357.755 406.786,356.823 410.401,359.711 414.016,361.43 417.632,353.099 421.247,360.388 424.862,355.736 428.478,346.96 432.093,348.262 435.709,344.939 439.324,349.248 442.939,332.895 446.555,330.499 450.17,325.198 453.785,319.828 457.401,314.528 461.016,304.009 464.631,308.759 468.247,301.202 471.862,291.975 475.478,280.703 479.093,264.502 482.708,266.399 486.324,247.817 489.939,248.644 493.554,225.829 497.17,228.53 500.785,214.059 504.4,202.379 508.016,190.514 511.631,185.338 515.247,178.248 518.862,170.713 522.477,153.766 526.093,148.296 529.708,140.139 533.323,132.942 536.939,124.797 540.554,121.782 544.17,118.097 547.785,108.555 551.4,100.234 555.016,94.4625 558.631,97.6685 562.246,90.9684 565.862,97.2597 569.477,91.7387 573.092,96.0934 576.708,87.9763 580.323,100.848 583.939,97.6367 587.554,103.903 591.169,113.058 594.785,112.086 598.4,122.502 602.015,132.89 605.631,131.46 609.246,147.179 612.861,154.258 616.477,171.098 620.092,178.854 623.708,192.359 627.323,202.78 630.938,215.718 634.554,238.816 638.169,243.777 641.784,256.697 645.4,275.402 649.015,289.663 652.63,312.793 656.246,328.127 659.861,348.252 663.477,363.574 667.092,380.349 670.707,398.403 674.323,411.936 677.938,433.518 681.553,441.861 685.169,457.876 688.784,476.119 692.399,489.977 696.015,503.701 699.63,524.554 703.246,538.559 706.861,548.934 710.476,566.008 714.092,577.435 717.707,587.413 721.322,596.89 724.938,609.235 728.553,627.619 732.168,627.3 735.784,636.417 739.399,651.505 743.015,659.919 746.63,662.808 750.245,670.295 753.861,672.535 757.476,673.872 761.091,676.229 764.707,683.348 768.322,679.997 771.938,674.494 775.553,672.776 779.168,685.451 782.784,678.098 786.399,676.04 790.014,669.306 793.63,666.114 797.245,663.823 800.86,671.168 804.476,663.721 808.091,651.686 811.707,653.842 815.322,653.433 818.937,645.083 822.553,638.144 826.168,634.507 829.783,634.101 833.399,634.13 837.014,625.307 840.629,621.119 844.245,619.43 847.86,619.85 851.476,610.886 855.091,614.894 858.706,602.897 862.322,610.509 865.937,605.726 869.552,603.386 873.168,605.982 876.783,607.597 880.398,612.225 884.014,610.713 887.629,618.511 891.245,611.34 894.86,624.171 898.475,621.819 902.091,627.314 905.706,631.688 909.321,649.216 912.937,646.774 916.552,664.254 920.167,665.345 923.783,679.283 927.398,688.091 931.014,695.161 934.629,707.65 938.244,712.211 941.86,725.211 945.475,732.183 949.09,748.413 952.706,757.936 956.321,773.01 959.936,790.066 963.552,790.378 967.167,802.198 970.783,823.207 974.398,831.236 978.013,838.834 981.629,851.729 985.244,853.433 988.859,864.169 992.475,882.963 996.09,891.648 999.706,899.778 1003.32,902.984 1006.94,908.347 1010.55,906.654 1014.17,919.462 1017.78,916.642 1021.4,924.338 1025.01,931.324 1028.63,935.835 1032.24,927.52 1035.86,933.036 1039.47,938.578 1043.09,937.505 1046.71,930.902 1050.32,926.398 1053.94,926.153 1057.55,921.111 1061.17,910.889 1064.78,901.293 1068.4,905.049 1072.01,894.674 1075.63,880.085 1079.24,879.616 1082.86,870.026 1086.47,858.655 1090.09,846.463 1093.71,839.771 1097.32,824.621 1100.94,814.459 1104.55,800.669 1108.17,787.103 1111.78,782.574 1115.4,772.71 1119.01,752.46 1122.63,741.288 1126.24,732.571 1129.86,718.002 1133.47,713.49 1137.09,697.684 1140.7,682.869 1144.32,679.629 1147.94,666.299 1151.55,661.811 1155.17,654.439 1158.78,640.021 1162.4,634.757 1166.01,623.886 1169.63,623.541 1173.24,614.109 1176.86,607.747 1180.47,612.847 1184.09,607.233 1187.7,596.737 1191.32,601.064 1194.94,594.471 1198.55,598.906 1202.17,604.664 1205.78,608.306 1209.4,602.154 1213.01,613.427 1216.63,609.563 1220.24,621.97 1223.86,622.046 1227.47,628.697 1231.09,641.257 1234.7,645.421 1238.32,655.017 1241.93,670.359 1245.55,676.162 1249.17,682.519 1252.78,690.667 1256.4,713.261 1260.01,721.66 1263.63,732.048 1267.24,740.671 1270.86,748.192 1274.47,763.674 1278.09,769.656 1281.7,780.623 1285.32,795.032 1288.93,807.119 1292.55,812.562 1296.17,826.166 1299.78,835.198 1303.4,844.248 1307.01,855.313 1310.63,865.637 1314.24,875.453 1317.86,888.784 1321.47,887.406 1325.09,891.744 1328.7,901.801 1332.32,904.572 1335.93,915.993 1339.55,916.609 1343.17,922.175 1346.78,928.727 1350.4,929.236 1354.01,921.837 1357.63,934.651 1361.24,930.023 1364.86,933.331 1368.47,929.427 1372.09,923.332 1375.7,928.75 1379.32,927.048 1382.93,926.422 1386.55,920.008 1390.16,917.238 1393.78,916.714 1397.4,903.712 1401.01,901.138 1404.63,893.146 1408.24,893.581 1411.86,885.214 1415.47,890.93 1419.09,885.495 1422.7,878.217 1426.32,867.199 1429.93,871.975 1433.55,863.726 1437.16,861.212 1440.78,866.898 1444.4,857.081 1448.01,859.182 1451.63,860.176 1455.24,860.122 1458.86,854.752 1462.47,849.725 1466.09,851.833 1469.7,860.924 1473.32,865.947 1476.93,860.826 1480.55,871.734 1484.16,870.497 1487.78,875.516 1491.4,888.888 1495.01,899.019 1498.63,900.679 1502.24,910.501 1505.86,928.891 1509.47,937.112 1513.09,941.284 1516.7,958.345 1520.32,966.451 1523.93,985.266 1527.55,994.92 1531.16,1005.62 1534.78,1020.3 1538.39,1035.6 1542.01,1052.18 1545.63,1078.11 1549.24,1094.03 1552.86,1111.89 1556.47,1123.64 1560.09,1144.18 1563.7,1160.95 1567.32,1178.3 1570.93,1191.58 1574.55,1211.56 1578.16,1226.84 1581.78,1237.98 1585.39,1253.2 1589.01,1266.05 1592.63,1288.03 1596.24,1306.12 1599.86,1323.03 1603.47,1324.71 1607.09,1341.83 1610.7,1349.46 1614.32,1367.1 1617.93,1376.98 1621.55,1387.32 1625.16,1397.93 1628.78,1401.97 1632.39,1416.62 1636.01,1425.26 1639.63,1422.48 1643.24,1433.83 1646.86,1440.89 1650.47,1439.4 1654.09,1440.13 1657.7,1442.1 1661.32,1443.24 1664.93,1441.03 1668.55,1445.72 1672.16,1438.26 1675.78,1431.4 1679.39,1433.16 1683.01,1432.21 1686.62,1419.79 1690.24,1412.55 1693.86,1413.33 1697.47,1400.15 1701.09,1399.99 1704.7,1391.46 1708.32,1375.35 1711.93,1366.42 1715.55,1360.05 1719.16,1350.47 1722.78,1339.21 1726.39,1330.87 1730.01,1315.88 1733.62,1317 1737.24,1296.56 1740.86,1296.5 1744.47,1277.06 1748.09,1274.3 1751.7,1268.53 1755.32,1255.04 1758.93,1253.74 1762.55,1245.82 1766.16,1236.07 1769.78,1231.29 1773.39,1211.6 1777.01,1213.61 1780.62,1208.14 1784.24,1195.63 1787.86,1189.65 1791.47,1193.47 1795.09,1191.15 1798.7,1187.77 1802.32,1184.88 1805.93,1178.77 1809.55,1183.13 1813.16,1184.44 1816.78,1172.76 1820.39,1172.16 1824.01,1180.72 1827.62,1175 1831.24,1185.7 1834.85,1176.54 1838.47,1181.08 1842.09,1190.95 1845.7,1194.42 1849.32,1194.14 1852.93,1190.51 1856.55,1194.76 1860.16,1199 1863.78,1200.8 1867.39,1198.26 1871.01,1204.52 1874.62,1205.85 1878.24,1203.93 1881.85,1212.82 1885.47,1209.38 1889.09,1207.04 1892.7,1212.26 1896.32,1207.87 1899.93,1218.28 1903.55,1211.39 1907.16,1202.8 1910.78,1203.13 1914.39,1197.86 1918.01,1201.59 1921.62,1188.43 1925.24,1186.67 1928.85,1183.91 1932.47,1170.73 1936.09,1158.18 1939.7,1161.7 1943.32,1139.8 1946.93,1131.57 1950.55,1120 1954.16,1106.47 1957.78,1097.03 1961.39,1085.59 1965.01,1067.16 1968.62,1051.05 1972.24,1029.01 1975.85,1012.45 1979.47,1000.29 1983.08,983.207 1986.7,961.841 1990.32,942.118 1993.93,919.228 1997.55,899.342 2001.16,873.816 2004.78,851.092 2008.39,831.41 2012.01,808.796 2015.62,792.887 2019.24,763.407 2022.85,742.277 2026.47,728.463 2030.08,699.244 2033.7,684.561 2037.32,654.631 2040.93,637.669 2044.55,622.077 2048.16,598.996 2051.78,582.319 2055.39,561.052 2059.01,543.251 2062.62,513.843 2066.24,501.616 2069.85,489.589 2073.47,464.54 2077.08,458.538 2080.7,440.623 2084.32,419.186 2087.93,410.167 2091.55,395.003 2095.16,390.895 2098.78,375.539 2102.39,376.027 2106.01,360.263 2109.62,360.361 2113.24,352.113 2116.85,340.315 2120.47,329.517 2124.08,335.912 2127.7,326.757 2131.31,327.084 2134.93,319.347 2138.55,316.509 2142.16,327.101 2145.78,319.944 2149.39,320.242 2153.01,328.128 2156.62,327.107 2160.24,330.129 2163.85,331.927 2167.47,332.117 2171.08,331.997 2174.7,328.287 2178.31,341.493 2181.93,333.974 2185.55,337.311 2189.16,349.275 2192.78,351.026 2196.39,349.039 2200.01,348.395 2203.62,352.2 2207.24,355.746 2210.85,361.434 2214.47,351.623 2218.08,352.233 2221.7,352.162 2225.31,352.384 2228.93,359.504 2232.55,354.973 2236.16,346.32 2239.78,343.694 2243.39,345.822 2247.01,347.527 2250.62,344.493 2254.24,337.529 2257.85,325.358 2261.47,318.183 2265.08,310.471 2268.7,313.327 2272.31,298.106 2275.93,299.603 2279.54,287.921 2283.16,281.597 2286.78,270.06 2290.39,255.523 "/>
<circle clip-path="url(#clip522)" cx="341.709" cy="314.088" r="14.4" fill="#ff0000" fill-rule="evenodd" fill-opacity="1" stroke="#000000" stroke-opacity="1" stroke-width="3.2"/>
<circle clip-path="url(#clip522)" cx="576.708" cy="87.9763" r="14.4" fill="#ff0000" fill-rule="evenodd" fill-opacity="1" stroke="#000000" stroke-opacity="1" stroke-width="3.2"/>
<circle clip-path="url(#clip522)" cx="858.706" cy="602.897" r="14.4" fill="#ff0000" fill-rule="evenodd" fill-opacity="1" stroke="#000000" stroke-opacity="1" stroke-width="3.2"/>
<circle clip-path="url(#clip522)" cx="1194.94" cy="594.471" r="14.4" fill="#ff0000" fill-rule="evenodd" fill-opacity="1" stroke="#000000" stroke-opacity="1" stroke-width="3.2"/>
<circle clip-path="url(#clip522)" cx="1462.47" cy="849.725" r="14.4" fill="#ff0000" fill-rule="evenodd" fill-opacity="1" stroke="#000000" stroke-opacity="1" stroke-width="3.2"/>
<circle clip-path="url(#clip522)" cx="1820.39" cy="1172.16" r="14.4" fill="#ff0000" fill-rule="evenodd" fill-opacity="1" stroke="#000000" stroke-opacity="1" stroke-width="3.2"/>
<circle clip-path="url(#clip522)" cx="2138.55" cy="316.509" r="14.4" fill="#ff0000" fill-rule="evenodd" fill-opacity="1" stroke="#000000" stroke-opacity="1" stroke-width="3.2"/>
<path clip-path="url(#clip520)" d="M222.643 1438.47 L626.077 1438.47 L626.077 1282.95 L222.643 1282.95  Z" fill="#ffffff" fill-rule="evenodd" fill-opacity="1"/>
<polyline clip-path="url(#clip520)" style="stroke:#000000; stroke-linecap:round; stroke-linejoin:round; stroke-width:4; stroke-opacity:1; fill:none" points="222.643,1438.47 626.077,1438.47 626.077,1282.95 222.643,1282.95 222.643,1438.47 "/>
<polyline clip-path="url(#clip520)" style="stroke:#000000; stroke-linecap:round; stroke-linejoin:round; stroke-width:8; stroke-opacity:1; fill:none" points="247.127,1334.79 394.031,1334.79 "/>
<path clip-path="url(#clip520)" d="M436.941 1326.91 L436.941 1330.94 Q435.136 1330.01 433.191 1329.55 Q431.247 1329.09 429.164 1329.09 Q425.992 1329.09 424.395 1330.06 Q422.821 1331.03 422.821 1332.98 Q422.821 1334.46 423.955 1335.32 Q425.09 1336.15 428.515 1336.91 L429.974 1337.24 Q434.511 1338.21 436.409 1339.99 Q438.33 1341.75 438.33 1344.92 Q438.33 1348.53 435.46 1350.64 Q432.613 1352.75 427.613 1352.75 Q425.529 1352.75 423.261 1352.33 Q421.015 1351.94 418.515 1351.13 L418.515 1346.73 Q420.877 1347.95 423.168 1348.58 Q425.46 1349.18 427.705 1349.18 Q430.714 1349.18 432.335 1348.16 Q433.955 1347.12 433.955 1345.25 Q433.955 1343.51 432.775 1342.58 Q431.617 1341.66 427.659 1340.8 L426.177 1340.45 Q422.219 1339.62 420.46 1337.91 Q418.701 1336.17 418.701 1333.16 Q418.701 1329.51 421.293 1327.51 Q423.886 1325.52 428.654 1325.52 Q431.015 1325.52 433.099 1325.87 Q435.182 1326.22 436.941 1326.91 Z" fill="#000000" fill-rule="nonzero" fill-opacity="1" /><path clip-path="url(#clip520)" d="M445.113 1326.15 L449.372 1326.15 L449.372 1352.07 L445.113 1352.07 L445.113 1326.15 M445.113 1316.06 L449.372 1316.06 L449.372 1321.45 L445.113 1321.45 L445.113 1316.06 Z" fill="#000000" fill-rule="nonzero" fill-opacity="1" /><path clip-path="url(#clip520)" d="M475.344 1338.81 Q475.344 1334.18 473.423 1331.63 Q471.524 1329.09 468.075 1329.09 Q464.649 1329.09 462.728 1331.63 Q460.83 1334.18 460.83 1338.81 Q460.83 1343.42 462.728 1345.96 Q464.649 1348.51 468.075 1348.51 Q471.524 1348.51 473.423 1345.96 Q475.344 1343.42 475.344 1338.81 M479.603 1348.86 Q479.603 1355.48 476.663 1358.69 Q473.724 1361.94 467.659 1361.94 Q465.413 1361.94 463.423 1361.59 Q461.432 1361.26 459.557 1360.57 L459.557 1356.43 Q461.432 1357.44 463.261 1357.93 Q465.089 1358.42 466.987 1358.42 Q471.177 1358.42 473.261 1356.22 Q475.344 1354.04 475.344 1349.62 L475.344 1347.51 Q474.024 1349.81 471.964 1350.94 Q469.904 1352.07 467.034 1352.07 Q462.265 1352.07 459.349 1348.44 Q456.432 1344.81 456.432 1338.81 Q456.432 1332.79 459.349 1329.16 Q462.265 1325.52 467.034 1325.52 Q469.904 1325.52 471.964 1326.66 Q474.024 1327.79 475.344 1330.08 L475.344 1326.15 L479.603 1326.15 L479.603 1348.86 Z" fill="#000000" fill-rule="nonzero" fill-opacity="1" /><path clip-path="url(#clip520)" d="M509.927 1336.43 L509.927 1352.07 L505.668 1352.07 L505.668 1336.57 Q505.668 1332.88 504.233 1331.06 Q502.797 1329.23 499.927 1329.23 Q496.478 1329.23 494.487 1331.43 Q492.497 1333.63 492.497 1337.42 L492.497 1352.07 L488.214 1352.07 L488.214 1326.15 L492.497 1326.15 L492.497 1330.18 Q494.024 1327.84 496.085 1326.68 Q498.168 1325.52 500.876 1325.52 Q505.344 1325.52 507.635 1328.3 Q509.927 1331.06 509.927 1336.43 Z" fill="#000000" fill-rule="nonzero" fill-opacity="1" /><path clip-path="url(#clip520)" d="M530.205 1339.04 Q525.043 1339.04 523.052 1340.22 Q521.061 1341.4 521.061 1344.25 Q521.061 1346.52 522.543 1347.86 Q524.047 1349.18 526.617 1349.18 Q530.158 1349.18 532.288 1346.68 Q534.441 1344.16 534.441 1339.99 L534.441 1339.04 L530.205 1339.04 M538.7 1337.28 L538.7 1352.07 L534.441 1352.07 L534.441 1348.14 Q532.982 1350.5 530.807 1351.63 Q528.631 1352.75 525.483 1352.75 Q521.501 1352.75 519.14 1350.52 Q516.802 1348.28 516.802 1344.53 Q516.802 1340.15 519.719 1337.93 Q522.658 1335.71 528.469 1335.71 L534.441 1335.71 L534.441 1335.29 Q534.441 1332.35 532.496 1330.76 Q530.575 1329.13 527.08 1329.13 Q524.858 1329.13 522.751 1329.67 Q520.645 1330.2 518.7 1331.26 L518.7 1327.33 Q521.038 1326.43 523.237 1325.99 Q525.436 1325.52 527.52 1325.52 Q533.144 1325.52 535.922 1328.44 Q538.7 1331.36 538.7 1337.28 Z" fill="#000000" fill-rule="nonzero" fill-opacity="1" /><path clip-path="url(#clip520)" d="M547.473 1316.06 L551.732 1316.06 L551.732 1352.07 L547.473 1352.07 L547.473 1316.06 Z" fill="#000000" fill-rule="nonzero" fill-opacity="1" /><circle clip-path="url(#clip520)" cx="320.579" cy="1386.63" r="20.48" fill="#ff0000" fill-rule="evenodd" fill-opacity="1" stroke="#000000" stroke-opacity="1" stroke-width="4.55111"/>
<path clip-path="url(#clip520)" d="M438.863 1382.97 Q440.46 1380.1 442.682 1378.73 Q444.904 1377.36 447.913 1377.36 Q451.964 1377.36 454.163 1380.21 Q456.363 1383.03 456.363 1388.27 L456.363 1403.91 L452.08 1403.91 L452.08 1388.41 Q452.08 1384.68 450.761 1382.87 Q449.441 1381.07 446.733 1381.07 Q443.423 1381.07 441.501 1383.27 Q439.58 1385.47 439.58 1389.26 L439.58 1403.91 L435.298 1403.91 L435.298 1388.41 Q435.298 1384.66 433.978 1382.87 Q432.659 1381.07 429.904 1381.07 Q426.64 1381.07 424.719 1383.29 Q422.798 1385.49 422.798 1389.26 L422.798 1403.91 L418.515 1403.91 L418.515 1377.99 L422.798 1377.99 L422.798 1382.02 Q424.256 1379.63 426.293 1378.5 Q428.33 1377.36 431.131 1377.36 Q433.955 1377.36 435.923 1378.8 Q437.914 1380.23 438.863 1382.97 Z" fill="#000000" fill-rule="nonzero" fill-opacity="1" /><path clip-path="url(#clip520)" d="M476.64 1390.88 Q471.478 1390.88 469.487 1392.06 Q467.497 1393.24 467.497 1396.09 Q467.497 1398.36 468.978 1399.7 Q470.483 1401.02 473.052 1401.02 Q476.594 1401.02 478.723 1398.52 Q480.876 1396 480.876 1391.83 L480.876 1390.88 L476.64 1390.88 M485.135 1389.12 L485.135 1403.91 L480.876 1403.91 L480.876 1399.98 Q479.418 1402.34 477.242 1403.47 Q475.066 1404.59 471.918 1404.59 Q467.937 1404.59 465.575 1402.36 Q463.237 1400.12 463.237 1396.37 Q463.237 1391.99 466.154 1389.77 Q469.094 1387.55 474.904 1387.55 L480.876 1387.55 L480.876 1387.13 Q480.876 1384.19 478.932 1382.6 Q477.011 1380.97 473.515 1380.97 Q471.293 1380.97 469.187 1381.51 Q467.08 1382.04 465.136 1383.1 L465.136 1379.17 Q467.474 1378.27 469.673 1377.83 Q471.872 1377.36 473.955 1377.36 Q479.58 1377.36 482.358 1380.28 Q485.135 1383.2 485.135 1389.12 Z" fill="#000000" fill-rule="nonzero" fill-opacity="1" /><path clip-path="url(#clip520)" d="M515.459 1377.99 L506.084 1390.6 L515.946 1403.91 L510.922 1403.91 L503.376 1393.73 L495.83 1403.91 L490.807 1403.91 L500.876 1390.35 L491.663 1377.99 L496.686 1377.99 L503.561 1387.22 L510.436 1377.99 L515.459 1377.99 Z" fill="#000000" fill-rule="nonzero" fill-opacity="1" /><path clip-path="url(#clip520)" d="M521.964 1377.99 L526.223 1377.99 L526.223 1403.91 L521.964 1403.91 L521.964 1377.99 M521.964 1367.9 L526.223 1367.9 L526.223 1373.29 L521.964 1373.29 L521.964 1367.9 Z" fill="#000000" fill-rule="nonzero" fill-opacity="1" /><path clip-path="url(#clip520)" d="M555.32 1382.97 Q556.918 1380.1 559.14 1378.73 Q561.362 1377.36 564.371 1377.36 Q568.422 1377.36 570.621 1380.21 Q572.82 1383.03 572.82 1388.27 L572.82 1403.91 L568.538 1403.91 L568.538 1388.41 Q568.538 1384.68 567.218 1382.87 Q565.899 1381.07 563.191 1381.07 Q559.88 1381.07 557.959 1383.27 Q556.038 1385.47 556.038 1389.26 L556.038 1403.91 L551.756 1403.91 L551.756 1388.41 Q551.756 1384.66 550.436 1382.87 Q549.117 1381.07 546.362 1381.07 Q543.098 1381.07 541.177 1383.29 Q539.256 1385.49 539.256 1389.26 L539.256 1403.91 L534.973 1403.91 L534.973 1377.99 L539.256 1377.99 L539.256 1382.02 Q540.714 1379.63 542.751 1378.5 Q544.788 1377.36 547.589 1377.36 Q550.413 1377.36 552.381 1378.8 Q554.371 1380.23 555.32 1382.97 Z" fill="#000000" fill-rule="nonzero" fill-opacity="1" /><path clip-path="url(#clip520)" d="M593.098 1390.88 Q587.936 1390.88 585.945 1392.06 Q583.954 1393.24 583.954 1396.09 Q583.954 1398.36 585.436 1399.7 Q586.941 1401.02 589.51 1401.02 Q593.052 1401.02 595.181 1398.52 Q597.334 1396 597.334 1391.83 L597.334 1390.88 L593.098 1390.88 M601.593 1389.12 L601.593 1403.91 L597.334 1403.91 L597.334 1399.98 Q595.876 1402.34 593.7 1403.47 Q591.524 1404.59 588.376 1404.59 Q584.394 1404.59 582.033 1402.36 Q579.695 1400.12 579.695 1396.37 Q579.695 1391.99 582.612 1389.77 Q585.552 1387.55 591.362 1387.55 L597.334 1387.55 L597.334 1387.13 Q597.334 1384.19 595.39 1382.6 Q593.468 1380.97 589.973 1380.97 Q587.751 1380.97 585.644 1381.51 Q583.538 1382.04 581.593 1383.1 L581.593 1379.17 Q583.931 1378.27 586.13 1377.83 Q588.329 1377.36 590.413 1377.36 Q596.038 1377.36 598.815 1380.28 Q601.593 1383.2 601.593 1389.12 Z" fill="#000000" fill-rule="nonzero" fill-opacity="1" /></svg>
