<?xml version="1.0" encoding="utf-8"?>
<svg xmlns="http://www.w3.org/2000/svg" xmlns:xlink="http://www.w3.org/1999/xlink" width="600" height="400" viewBox="0 0 2400 1600">
<defs>
  <clipPath id="clip140">
    <rect x="0" y="0" width="2400" height="1600"/>
  </clipPath>
</defs>
<path clip-path="url(#clip140)" d="M0 1600 L2400 1600 L2400 0 L0 0  Z" fill="#ffffff" fill-rule="evenodd" fill-opacity="1"/>
<defs>
  <clipPath id="clip141">
    <rect x="480" y="0" width="1681" height="1600"/>
  </clipPath>
</defs>
<path clip-path="url(#clip140)" d="M149.191 1486.45 L2352.76 1486.45 L2352.76 47.2441 L149.191 47.2441  Z" fill="#ffffff" fill-rule="evenodd" fill-opacity="1"/>
<defs>
  <clipPath id="clip142">
    <rect x="149" y="47" width="2205" height="1440"/>
  </clipPath>
</defs>
<polyline clip-path="url(#clip142)" style="stroke:#000000; stroke-linecap:round; stroke-linejoin:round; stroke-width:2; stroke-opacity:0.1; fill:none" points="207.934,1486.45 207.934,47.2441 "/>
<polyline clip-path="url(#clip142)" style="stroke:#000000; stroke-linecap:round; stroke-linejoin:round; stroke-width:2; stroke-opacity:0.1; fill:none" points="660.642,1486.45 660.642,47.2441 "/>
<polyline clip-path="url(#clip142)" style="stroke:#000000; stroke-linecap:round; stroke-linejoin:round; stroke-width:2; stroke-opacity:0.1; fill:none" points="1113.35,1486.45 1113.35,47.2441 "/>
<polyline clip-path="url(#clip142)" style="stroke:#000000; stroke-linecap:round; stroke-linejoin:round; stroke-width:2; stroke-opacity:0.1; fill:none" points="1566.06,1486.45 1566.06,47.2441 "/>
<polyline clip-path="url(#clip142)" style="stroke:#000000; stroke-linecap:round; stroke-linejoin:round; stroke-width:2; stroke-opacity:0.1; fill:none" points="2018.77,1486.45 2018.77,47.2441 "/>
<polyline clip-path="url(#clip140)" style="stroke:#000000; stroke-linecap:round; stroke-linejoin:round; stroke-width:4; stroke-opacity:1; fill:none" points="149.191,1486.45 2352.76,1486.45 "/>
<polyline clip-path="url(#clip140)" style="stroke:#000000; stroke-linecap:round; stroke-linejoin:round; stroke-width:4; stroke-opacity:1; fill:none" points="207.934,1486.45 207.934,1467.55 "/>
<polyline clip-path="url(#clip140)" style="stroke:#000000; stroke-linecap:round; stroke-linejoin:round; stroke-width:4; stroke-opacity:1; fill:none" points="660.642,1486.45 660.642,1467.55 "/>
<polyline clip-path="url(#clip140)" style="stroke:#000000; stroke-linecap:round; stroke-linejoin:round; stroke-width:4; stroke-opacity:1; fill:none" points="1113.35,1486.45 1113.35,1467.55 "/>
<polyline clip-path="url(#clip140)" style="stroke:#000000; stroke-linecap:round; stroke-linejoin:round; stroke-width:4; stroke-opacity:1; fill:none" points="1566.06,1486.45 1566.06,1467.55 "/>
<polyline clip-path="url(#clip140)" style="stroke:#000000; stroke-linecap:round; stroke-linejoin:round; stroke-width:4; stroke-opacity:1; fill:none" points="2018.77,1486.45 2018.77,1467.55 "/>
<path clip-path="url(#clip140)" d="M207.934 1517.37 Q204.323 1517.37 202.494 1520.93 Q200.689 1524.47 200.689 1531.6 Q200.689 1538.71 202.494 1542.27 Q204.323 1545.82 207.934 1545.82 Q211.568 1545.82 213.374 1542.27 Q215.203 1538.71 215.203 1531.6 Q215.203 1524.47 213.374 1520.93 Q211.568 1517.37 207.934 1517.37 M207.934 1513.66 Q213.744 1513.66 216.8 1518.27 Q219.879 1522.85 219.879 1531.6 Q219.879 1540.33 216.8 1544.94 Q213.744 1549.52 207.934 1549.52 Q202.124 1549.52 199.045 1544.94 Q195.99 1540.33 195.99 1531.6 Q195.99 1522.85 199.045 1518.27 Q202.124 1513.66 207.934 1513.66 Z" fill="#000000" fill-rule="nonzero" fill-opacity="1" /><path clip-path="url(#clip140)" d="M650.92 1514.29 L669.276 1514.29 L669.276 1518.22 L655.202 1518.22 L655.202 1526.7 Q656.221 1526.35 657.239 1526.19 Q658.258 1526 659.276 1526 Q665.063 1526 668.443 1529.17 Q671.823 1532.34 671.823 1537.76 Q671.823 1543.34 668.351 1546.44 Q664.878 1549.52 658.559 1549.52 Q656.383 1549.52 654.114 1549.15 Q651.869 1548.78 649.462 1548.04 L649.462 1543.34 Q651.545 1544.47 653.767 1545.03 Q655.989 1545.58 658.466 1545.58 Q662.471 1545.58 664.809 1543.48 Q667.147 1541.37 667.147 1537.76 Q667.147 1534.15 664.809 1532.04 Q662.471 1529.94 658.466 1529.94 Q656.591 1529.94 654.716 1530.35 Q652.864 1530.77 650.92 1531.65 L650.92 1514.29 Z" fill="#000000" fill-rule="nonzero" fill-opacity="1" /><path clip-path="url(#clip140)" d="M1088.04 1544.91 L1095.68 1544.91 L1095.68 1518.55 L1087.37 1520.21 L1087.37 1515.95 L1095.63 1514.29 L1100.31 1514.29 L1100.31 1544.91 L1107.95 1544.91 L1107.95 1548.85 L1088.04 1548.85 L1088.04 1544.91 Z" fill="#000000" fill-rule="nonzero" fill-opacity="1" /><path clip-path="url(#clip140)" d="M1127.39 1517.37 Q1123.78 1517.37 1121.95 1520.93 Q1120.14 1524.47 1120.14 1531.6 Q1120.14 1538.71 1121.95 1542.27 Q1123.78 1545.82 1127.39 1545.82 Q1131.02 1545.82 1132.83 1542.27 Q1134.66 1538.71 1134.66 1531.6 Q1134.66 1524.47 1132.83 1520.93 Q1131.02 1517.37 1127.39 1517.37 M1127.39 1513.66 Q1133.2 1513.66 1136.26 1518.27 Q1139.33 1522.85 1139.33 1531.6 Q1139.33 1540.33 1136.26 1544.94 Q1133.2 1549.52 1127.39 1549.52 Q1121.58 1549.52 1118.5 1544.94 Q1115.45 1540.33 1115.45 1531.6 Q1115.45 1522.85 1118.5 1518.27 Q1121.58 1513.66 1127.39 1513.66 Z" fill="#000000" fill-rule="nonzero" fill-opacity="1" /><path clip-path="url(#clip140)" d="M1541.24 1544.91 L1548.88 1544.91 L1548.88 1518.55 L1540.57 1520.21 L1540.57 1515.95 L1548.84 1514.29 L1553.51 1514.29 L1553.51 1544.91 L1561.15 1544.91 L1561.15 1548.85 L1541.24 1548.85 L1541.24 1544.91 Z" fill="#000000" fill-rule="nonzero" fill-opacity="1" /><path clip-path="url(#clip140)" d="M1570.64 1514.29 L1589 1514.29 L1589 1518.22 L1574.92 1518.22 L1574.92 1526.7 Q1575.94 1526.35 1576.96 1526.19 Q1577.98 1526 1579 1526 Q1584.78 1526 1588.16 1529.17 Q1591.54 1532.34 1591.54 1537.76 Q1591.54 1543.34 1588.07 1546.44 Q1584.6 1549.52 1578.28 1549.52 Q1576.1 1549.52 1573.84 1549.15 Q1571.59 1548.78 1569.18 1548.04 L1569.18 1543.34 Q1571.27 1544.47 1573.49 1545.03 Q1575.71 1545.58 1578.19 1545.58 Q1582.19 1545.58 1584.53 1543.48 Q1586.87 1541.37 1586.87 1537.76 Q1586.87 1534.15 1584.53 1532.04 Q1582.19 1529.94 1578.19 1529.94 Q1576.31 1529.94 1574.44 1530.35 Q1572.59 1530.77 1570.64 1531.65 L1570.64 1514.29 Z" fill="#000000" fill-rule="nonzero" fill-opacity="1" /><path clip-path="url(#clip140)" d="M1997.54 1544.91 L2013.86 1544.91 L2013.86 1548.85 L1991.91 1548.85 L1991.91 1544.91 Q1994.58 1542.16 1999.16 1537.53 Q2003.77 1532.88 2004.95 1531.53 Q2007.19 1529.01 2008.07 1527.27 Q2008.97 1525.51 2008.97 1523.82 Q2008.97 1521.07 2007.03 1519.33 Q2005.11 1517.6 2002.01 1517.6 Q1999.81 1517.6 1997.35 1518.36 Q1994.92 1519.13 1992.15 1520.68 L1992.15 1515.95 Q1994.97 1514.82 1997.42 1514.24 Q1999.88 1513.66 2001.91 1513.66 Q2007.28 1513.66 2010.48 1516.35 Q2013.67 1519.03 2013.67 1523.52 Q2013.67 1525.65 2012.86 1527.57 Q2012.08 1529.47 2009.97 1532.07 Q2009.39 1532.74 2006.29 1535.95 Q2003.19 1539.15 1997.54 1544.91 Z" fill="#000000" fill-rule="nonzero" fill-opacity="1" /><path clip-path="url(#clip140)" d="M2033.67 1517.37 Q2030.06 1517.37 2028.23 1520.93 Q2026.43 1524.47 2026.43 1531.6 Q2026.43 1538.71 2028.23 1542.27 Q2030.06 1545.82 2033.67 1545.82 Q2037.31 1545.82 2039.11 1542.27 Q2040.94 1538.71 2040.94 1531.6 Q2040.94 1524.47 2039.11 1520.93 Q2037.31 1517.37 2033.67 1517.37 M2033.67 1513.66 Q2039.48 1513.66 2042.54 1518.27 Q2045.62 1522.85 2045.62 1531.6 Q2045.62 1540.33 2042.54 1544.94 Q2039.48 1549.52 2033.67 1549.52 Q2027.86 1549.52 2024.78 1544.94 Q2021.73 1540.33 2021.73 1531.6 Q2021.73 1522.85 2024.78 1518.27 Q2027.86 1513.66 2033.67 1513.66 Z" fill="#000000" fill-rule="nonzero" fill-opacity="1" /><polyline clip-path="url(#clip142)" style="stroke:#000000; stroke-linecap:round; stroke-linejoin:round; stroke-width:2; stroke-opacity:0.1; fill:none" points="149.191,1311.88 2352.76,1311.88 "/>
<polyline clip-path="url(#clip142)" style="stroke:#000000; stroke-linecap:round; stroke-linejoin:round; stroke-width:2; stroke-opacity:0.1; fill:none" points="149.191,1039.36 2352.76,1039.36 "/>
<polyline clip-path="url(#clip142)" style="stroke:#000000; stroke-linecap:round; stroke-linejoin:round; stroke-width:2; stroke-opacity:0.1; fill:none" points="149.191,766.846 2352.76,766.846 "/>
<polyline clip-path="url(#clip142)" style="stroke:#000000; stroke-linecap:round; stroke-linejoin:round; stroke-width:2; stroke-opacity:0.1; fill:none" points="149.191,494.33 2352.76,494.33 "/>
<polyline clip-path="url(#clip142)" style="stroke:#000000; stroke-linecap:round; stroke-linejoin:round; stroke-width:2; stroke-opacity:0.1; fill:none" points="149.191,221.813 2352.76,221.813 "/>
<polyline clip-path="url(#clip140)" style="stroke:#000000; stroke-linecap:round; stroke-linejoin:round; stroke-width:4; stroke-opacity:1; fill:none" points="149.191,1486.45 149.191,47.2441 "/>
<polyline clip-path="url(#clip140)" style="stroke:#000000; stroke-linecap:round; stroke-linejoin:round; stroke-width:4; stroke-opacity:1; fill:none" points="149.191,1311.88 168.089,1311.88 "/>
<polyline clip-path="url(#clip140)" style="stroke:#000000; stroke-linecap:round; stroke-linejoin:round; stroke-width:4; stroke-opacity:1; fill:none" points="149.191,1039.36 168.089,1039.36 "/>
<polyline clip-path="url(#clip140)" style="stroke:#000000; stroke-linecap:round; stroke-linejoin:round; stroke-width:4; stroke-opacity:1; fill:none" points="149.191,766.846 168.089,766.846 "/>
<polyline clip-path="url(#clip140)" style="stroke:#000000; stroke-linecap:round; stroke-linejoin:round; stroke-width:4; stroke-opacity:1; fill:none" points="149.191,494.33 168.089,494.33 "/>
<polyline clip-path="url(#clip140)" style="stroke:#000000; stroke-linecap:round; stroke-linejoin:round; stroke-width:4; stroke-opacity:1; fill:none" points="149.191,221.813 168.089,221.813 "/>
<path clip-path="url(#clip140)" d="M50.9921 1312.33 L80.6679 1312.33 L80.6679 1316.27 L50.9921 1316.27 L50.9921 1312.33 Z" fill="#000000" fill-rule="nonzero" fill-opacity="1" /><path clip-path="url(#clip140)" d="M103.608 1298.67 L91.8021 1317.12 L103.608 1317.12 L103.608 1298.67 M102.381 1294.6 L108.26 1294.6 L108.26 1317.12 L113.191 1317.12 L113.191 1321.01 L108.26 1321.01 L108.26 1329.16 L103.608 1329.16 L103.608 1321.01 L88.0058 1321.01 L88.0058 1316.5 L102.381 1294.6 Z" fill="#000000" fill-rule="nonzero" fill-opacity="1" /><path clip-path="url(#clip140)" d="M53.0754 1039.81 L82.7512 1039.81 L82.7512 1043.75 L53.0754 1043.75 L53.0754 1039.81 Z" fill="#000000" fill-rule="nonzero" fill-opacity="1" /><path clip-path="url(#clip140)" d="M96.8715 1052.71 L113.191 1052.71 L113.191 1056.64 L91.2465 1056.64 L91.2465 1052.71 Q93.9086 1049.95 98.4919 1045.32 Q103.098 1040.67 104.279 1039.33 Q106.524 1036.8 107.404 1035.07 Q108.307 1033.31 108.307 1031.62 Q108.307 1028.86 106.362 1027.13 Q104.441 1025.39 101.339 1025.39 Q99.14 1025.39 96.6863 1026.16 Q94.2558 1026.92 91.478 1028.47 L91.478 1023.75 Q94.3021 1022.61 96.7558 1022.04 Q99.2095 1021.46 101.246 1021.46 Q106.617 1021.46 109.811 1024.14 Q113.006 1026.83 113.006 1031.32 Q113.006 1033.45 112.196 1035.37 Q111.408 1037.27 109.302 1039.86 Q108.723 1040.53 105.621 1043.75 Q102.52 1046.94 96.8715 1052.71 Z" fill="#000000" fill-rule="nonzero" fill-opacity="1" /><path clip-path="url(#clip140)" d="M101.246 752.645 Q97.6354 752.645 95.8067 756.209 Q94.0012 759.751 94.0012 766.881 Q94.0012 773.987 95.8067 777.552 Q97.6354 781.094 101.246 781.094 Q104.881 781.094 106.686 777.552 Q108.515 773.987 108.515 766.881 Q108.515 759.751 106.686 756.209 Q104.881 752.645 101.246 752.645 M101.246 748.941 Q107.057 748.941 110.112 753.547 Q113.191 758.131 113.191 766.881 Q113.191 775.608 110.112 780.214 Q107.057 784.797 101.246 784.797 Q95.4363 784.797 92.3576 780.214 Q89.3021 775.608 89.3021 766.881 Q89.3021 758.131 92.3576 753.547 Q95.4363 748.941 101.246 748.941 Z" fill="#000000" fill-rule="nonzero" fill-opacity="1" /><path clip-path="url(#clip140)" d="M96.8715 507.675 L113.191 507.675 L113.191 511.61 L91.2465 511.61 L91.2465 507.675 Q93.9086 504.92 98.4919 500.29 Q103.098 495.638 104.279 494.295 Q106.524 491.772 107.404 490.036 Q108.307 488.277 108.307 486.587 Q108.307 483.832 106.362 482.096 Q104.441 480.36 101.339 480.36 Q99.14 480.36 96.6863 481.124 Q94.2558 481.888 91.478 483.439 L91.478 478.716 Q94.3021 477.582 96.7558 477.003 Q99.2095 476.425 101.246 476.425 Q106.617 476.425 109.811 479.11 Q113.006 481.795 113.006 486.286 Q113.006 488.415 112.196 490.337 Q111.408 492.235 109.302 494.827 Q108.723 495.499 105.621 498.716 Q102.52 501.911 96.8715 507.675 Z" fill="#000000" fill-rule="nonzero" fill-opacity="1" /><path clip-path="url(#clip140)" d="M103.608 208.608 L91.8021 227.056 L103.608 227.056 L103.608 208.608 M102.381 204.533 L108.26 204.533 L108.26 227.056 L113.191 227.056 L113.191 230.945 L108.26 230.945 L108.26 239.093 L103.608 239.093 L103.608 230.945 L88.0058 230.945 L88.0058 226.431 L102.381 204.533 Z" fill="#000000" fill-rule="nonzero" fill-opacity="1" /><polyline clip-path="url(#clip142)" style="stroke:#000000; stroke-linecap:round; stroke-linejoin:round; stroke-width:8; stroke-opacity:1; fill:none" points="211.556,744.597 215.178,722.412 218.799,700.353 222.421,678.483 226.043,656.864 229.664,635.555 233.286,614.615 236.908,594.101 240.529,574.068 244.151,554.566 247.773,535.645 251.394,517.351 255.016,499.726 258.638,482.811 262.259,466.639 265.881,451.244 269.503,436.652 273.124,422.888 276.746,409.97 280.368,397.913 283.989,386.728 287.611,376.42 291.233,366.992 294.854,358.44 298.476,350.758 302.098,343.932 305.719,337.949 309.341,332.787 312.962,328.422 316.584,324.827 320.206,321.971 323.827,319.817 327.449,318.328 331.071,317.463 334.692,317.178 338.314,317.426 341.936,318.158 345.557,319.324 349.179,320.871 352.801,322.747 356.422,324.896 360.044,327.263 363.666,329.793 367.287,332.43 370.909,335.12 374.531,337.807 378.152,340.439 381.774,342.963 385.396,345.328 389.017,347.487 392.639,349.392 396.261,350.999 399.882,352.268 403.504,353.16 407.126,353.641 410.747,353.677 414.369,353.243 417.991,352.312 421.612,350.866 425.234,348.887 428.856,346.363 432.477,343.287 436.099,339.655 439.721,335.467 443.342,330.728 446.964,325.448 450.586,319.639 454.207,313.32 457.829,306.51 461.451,299.237 465.072,291.529 468.694,283.419 472.316,274.943 475.937,266.14 479.559,257.053 483.181,247.726 486.802,238.209 490.424,228.549 494.046,218.799 497.667,209.012 501.289,199.243 504.911,189.547 508.532,179.981 512.154,170.601 515.776,161.464 519.397,152.625 523.019,144.141 526.641,136.066 530.262,128.454 533.884,121.356 537.506,114.822 541.127,108.899 544.749,103.633 548.371,99.0666 551.992,95.2383 555.614,92.1843 559.236,89.9374 562.857,88.5263 566.479,87.9763 570.101,88.3082 573.722,89.5391 577.344,91.6815 580.966,94.7438 584.587,98.7298 588.209,103.639 591.831,109.466 595.452,116.202 599.074,123.833 602.696,132.341 606.317,141.702 609.939,151.891 613.561,162.876 617.182,174.624 620.804,187.095 624.426,200.248 628.047,214.038 631.669,228.416 635.291,243.333 638.912,258.733 642.534,274.563 646.156,290.763 649.777,307.276 653.399,324.039 657.021,340.992 660.642,358.072 664.264,375.216 667.886,392.363 671.507,409.449 675.129,426.412 678.751,443.194 682.372,459.732 685.994,475.971 689.616,491.855 693.237,507.329 696.859,522.342 700.481,536.847 704.102,550.797 707.724,564.152 711.346,576.872 714.967,588.922 718.589,600.272 722.21,610.894 725.832,620.766 729.454,629.869 733.075,638.189 736.697,645.716 740.319,652.444 743.94,658.372 747.562,663.505 751.184,667.849 754.805,671.417 758.427,674.225 762.049,676.294 765.67,677.648 769.292,678.316 772.914,678.33 776.535,677.724 780.157,676.539 783.779,674.814 787.4,672.596 791.022,669.931 794.644,666.867 798.265,663.456 801.887,659.751 805.509,655.805 809.13,651.673 812.752,647.411 816.374,643.075 819.995,638.719 823.617,634.4 827.239,630.173 830.86,626.09 834.482,622.205 838.104,618.568 841.725,615.228 845.347,612.232 848.969,609.623 852.59,607.444 856.212,605.732 859.834,604.523 863.455,603.848 867.077,603.735 870.699,604.209 874.32,605.291 877.942,606.996 881.564,609.337 885.185,612.322 888.807,615.954 892.429,620.233 896.05,625.155 899.672,630.709 903.294,636.883 906.915,643.658 910.537,651.015 914.159,658.926 917.78,667.363 921.402,676.293 925.024,685.68 928.645,695.484 932.267,705.662 935.889,716.17 939.51,726.959 943.132,737.98 946.754,749.181 950.375,760.508 953.997,771.906 957.619,783.32 961.24,794.693 964.862,805.968 968.484,817.088 972.105,827.997 975.727,838.639 979.349,848.959 982.97,858.903 986.592,868.419 990.214,877.456 993.835,885.968 997.457,893.908 1001.08,901.234 1004.7,907.905 1008.32,913.886 1011.94,919.143 1015.57,923.647 1019.19,927.373 1022.81,930.298 1026.43,932.406 1030.05,933.683 1033.67,934.12 1037.3,933.714 1040.92,932.463 1044.54,930.373 1048.16,927.452 1051.78,923.713 1055.4,919.175 1059.03,913.859 1062.65,907.791 1066.27,901.002 1069.89,893.524 1073.51,885.397 1077.13,876.66 1080.76,867.359 1084.38,857.54 1088,847.254 1091.62,836.554 1095.24,825.494 1098.86,814.132 1102.49,802.526 1106.11,790.735 1109.73,778.822 1113.35,766.846 1116.97,754.87 1120.59,742.957 1124.22,731.166 1127.84,719.56 1131.46,708.198 1135.08,697.138 1138.7,686.438 1142.32,676.152 1145.95,666.333 1149.57,657.032 1153.19,648.295 1156.81,640.168 1160.43,632.69 1164.05,625.901 1167.68,619.833 1171.3,614.517 1174.92,609.979 1178.54,606.24 1182.16,603.319 1185.78,601.229 1189.41,599.978 1193.03,599.572 1196.65,600.009 1200.27,601.286 1203.89,603.394 1207.51,606.319 1211.14,610.045 1214.76,614.549 1218.38,619.806 1222,625.787 1225.62,632.458 1229.24,639.784 1232.87,647.724 1236.49,656.236 1240.11,665.273 1243.73,674.789 1247.35,684.733 1250.97,695.053 1254.6,705.695 1258.22,716.604 1261.84,727.724 1265.46,738.999 1269.08,750.372 1272.7,761.786 1276.33,773.184 1279.95,784.511 1283.57,795.712 1287.19,806.733 1290.81,817.522 1294.43,828.03 1298.06,838.208 1301.68,848.012 1305.3,857.399 1308.92,866.329 1312.54,874.766 1316.16,882.677 1319.78,890.034 1323.41,896.809 1327.03,902.983 1330.65,908.537 1334.27,913.459 1337.89,917.738 1341.51,921.37 1345.14,924.355 1348.76,926.696 1352.38,928.401 1356,929.483 1359.62,929.957 1363.24,929.844 1366.87,929.169 1370.49,927.96 1374.11,926.248 1377.73,924.069 1381.35,921.46 1384.97,918.464 1388.6,915.124 1392.22,911.487 1395.84,907.602 1399.46,903.519 1403.08,899.292 1406.7,894.973 1410.33,890.617 1413.95,886.281 1417.57,882.019 1421.19,877.887 1424.81,873.941 1428.43,870.236 1432.06,866.825 1435.68,863.761 1439.3,861.096 1442.92,858.878 1446.54,857.153 1450.16,855.968 1453.79,855.362 1457.41,855.376 1461.03,856.044 1464.65,857.398 1468.27,859.467 1471.89,862.275 1475.52,865.843 1479.14,870.187 1482.76,875.32 1486.38,881.248 1490,887.976 1493.62,895.503 1497.25,903.823 1500.87,912.926 1504.49,922.798 1508.11,933.42 1511.73,944.77 1515.35,956.82 1518.98,969.54 1522.6,982.895 1526.22,996.845 1529.84,1011.35 1533.46,1026.36 1537.08,1041.84 1540.71,1057.72 1544.33,1073.96 1547.95,1090.5 1551.57,1107.28 1555.19,1124.24 1558.81,1141.33 1562.44,1158.48 1566.06,1175.62 1569.68,1192.7 1573.3,1209.65 1576.92,1226.42 1580.54,1242.93 1584.17,1259.13 1587.79,1274.96 1591.41,1290.36 1595.03,1305.28 1598.65,1319.65 1602.27,1333.44 1605.9,1346.6 1609.52,1359.07 1613.14,1370.82 1616.76,1381.8 1620.38,1391.99 1624,1401.35 1627.63,1409.86 1631.25,1417.49 1634.87,1424.23 1638.49,1430.05 1642.11,1434.96 1645.73,1438.95 1649.36,1442.01 1652.98,1444.15 1656.6,1445.38 1660.22,1445.72 1663.84,1445.17 1667.46,1443.75 1671.09,1441.51 1674.71,1438.45 1678.33,1434.63 1681.95,1430.06 1685.57,1424.79 1689.19,1418.87 1692.82,1412.34 1696.44,1405.24 1700.06,1397.63 1703.68,1389.55 1707.3,1381.07 1710.92,1372.23 1714.55,1363.09 1718.17,1353.71 1721.79,1344.14 1725.41,1334.45 1729.03,1324.68 1732.65,1314.89 1736.28,1305.14 1739.9,1295.48 1743.52,1285.97 1747.14,1276.64 1750.76,1267.55 1754.38,1258.75 1758.01,1250.27 1761.63,1242.16 1765.25,1234.45 1768.87,1227.18 1772.49,1220.37 1776.11,1214.05 1779.74,1208.24 1783.36,1202.96 1786.98,1198.22 1790.6,1194.04 1794.22,1190.4 1797.84,1187.33 1801.47,1184.81 1805.09,1182.83 1808.71,1181.38 1812.33,1180.45 1815.95,1180.01 1819.57,1180.05 1823.2,1180.53 1826.82,1181.42 1830.44,1182.69 1834.06,1184.3 1837.68,1186.21 1841.3,1188.36 1844.93,1190.73 1848.55,1193.25 1852.17,1195.88 1855.79,1198.57 1859.41,1201.26 1863.03,1203.9 1866.66,1206.43 1870.28,1208.8 1873.9,1210.95 1877.52,1212.82 1881.14,1214.37 1884.76,1215.53 1888.39,1216.27 1892.01,1216.51 1895.63,1216.23 1899.25,1215.36 1902.87,1213.87 1906.49,1211.72 1910.12,1208.86 1913.74,1205.27 1917.36,1200.91 1920.98,1195.74 1924.6,1189.76 1928.22,1182.93 1931.85,1175.25 1935.47,1166.7 1939.09,1157.27 1942.71,1146.96 1946.33,1135.78 1949.95,1123.72 1953.58,1110.8 1957.2,1097.04 1960.82,1082.45 1964.44,1067.05 1968.06,1050.88 1971.68,1033.97 1975.31,1016.34 1978.93,998.047 1982.55,979.126 1986.17,959.624 1989.79,939.591 1993.41,919.077 1997.04,898.137 2000.66,876.828 2004.28,855.209 2007.9,833.339 2011.52,811.28 2015.14,789.095 2018.77,766.846 2022.39,744.597 2026.01,722.412 2029.63,700.353 2033.25,678.483 2036.87,656.864 2040.5,635.555 2044.12,614.615 2047.74,594.101 2051.36,574.068 2054.98,554.566 2058.6,535.645 2062.23,517.351 2065.85,499.726 2069.47,482.811 2073.09,466.639 2076.71,451.244 2080.33,436.652 2083.96,422.888 2087.58,409.97 2091.2,397.913 2094.82,386.728 2098.44,376.42 2102.06,366.992 2105.69,358.44 2109.31,350.758 2112.93,343.932 2116.55,337.949 2120.17,332.787 2123.79,328.422 2127.42,324.827 2131.04,321.971 2134.66,319.817 2138.28,318.328 2141.9,317.463 2145.52,317.178 2149.15,317.426 2152.77,318.158 2156.39,319.324 2160.01,320.871 2163.63,322.747 2167.25,324.896 2170.88,327.263 2174.5,329.793 2178.12,332.43 2181.74,335.12 2185.36,337.807 2188.98,340.439 2192.61,342.963 2196.23,345.328 2199.85,347.487 2203.47,349.392 2207.09,350.999 2210.71,352.268 2214.34,353.16 2217.96,353.641 2221.58,353.677 2225.2,353.243 2228.82,352.312 2232.44,350.866 2236.07,348.887 2239.69,346.363 2243.31,343.287 2246.93,339.655 2250.55,335.467 2254.17,330.728 2257.8,325.448 2261.42,319.639 2265.04,313.32 2268.66,306.51 2272.28,299.237 2275.9,291.529 2279.53,283.419 2283.15,274.943 2286.77,266.14 2290.39,257.053 "/>
<polyline clip-path="url(#clip142)" style="stroke:#0000ff; stroke-linecap:round; stroke-linejoin:round; stroke-width:4; stroke-opacity:1; fill:none" points="334.692,353.677 334.692,317.178 "/>
<polyline clip-path="url(#clip142)" style="stroke:#0000ff; stroke-linecap:round; stroke-linejoin:round; stroke-width:4; stroke-opacity:1; fill:none" points="566.479,744.597 566.479,87.9763 "/>
<polyline clip-path="url(#clip142)" style="stroke:#0000ff; stroke-linecap:round; stroke-linejoin:round; stroke-width:4; stroke-opacity:1; fill:none" points="867.077,678.33 867.077,603.735 "/>
<polyline clip-path="url(#clip142)" style="stroke:#0000ff; stroke-linecap:round; stroke-linejoin:round; stroke-width:4; stroke-opacity:1; fill:none" points="1193.03,934.12 1193.03,599.572 "/>
<polyline clip-path="url(#clip142)" style="stroke:#0000ff; stroke-linecap:round; stroke-linejoin:round; stroke-width:4; stroke-opacity:1; fill:none" points="1453.79,929.957 1453.79,855.362 "/>
<polyline clip-path="url(#clip142)" style="stroke:#0000ff; stroke-linecap:round; stroke-linejoin:round; stroke-width:4; stroke-opacity:1; fill:none" points="1815.95,1216.51 1815.95,1180.01 "/>
<polyline clip-path="url(#clip142)" style="stroke:#0000ff; stroke-linecap:round; stroke-linejoin:round; stroke-width:4; stroke-opacity:1; fill:none" points="2145.52,353.677 2145.52,317.178 "/>
<polyline clip-path="url(#clip142)" style="stroke:#0000ff; stroke-linecap:round; stroke-linejoin:round; stroke-width:4; stroke-opacity:0.5; fill:none" stroke-dasharray="16, 10" points="334.692,353.677 410.747,353.677 "/>
<polyline clip-path="url(#clip142)" style="stroke:#0000ff; stroke-linecap:round; stroke-linejoin:round; stroke-width:4; stroke-opacity:0.5; fill:none" stroke-dasharray="16, 10" points="211.556,744.597 566.479,744.597 "/>
<polyline clip-path="url(#clip142)" style="stroke:#0000ff; stroke-linecap:round; stroke-linejoin:round; stroke-width:4; stroke-opacity:0.5; fill:none" stroke-dasharray="16, 10" points="772.914,678.33 867.077,678.33 "/>
<polyline clip-path="url(#clip142)" style="stroke:#0000ff; stroke-linecap:round; stroke-linejoin:round; stroke-width:4; stroke-opacity:0.5; fill:none" stroke-dasharray="16, 10" points="1033.67,934.12 1193.03,934.12 "/>
<polyline clip-path="url(#clip142)" style="stroke:#0000ff; stroke-linecap:round; stroke-linejoin:round; stroke-width:4; stroke-opacity:0.5; fill:none" stroke-dasharray="16, 10" points="1359.62,929.957 1453.79,929.957 "/>
<polyline clip-path="url(#clip142)" style="stroke:#0000ff; stroke-linecap:round; stroke-linejoin:round; stroke-width:4; stroke-opacity:0.5; fill:none" stroke-dasharray="16, 10" points="1815.95,1216.51 1892.01,1216.51 "/>
<polyline clip-path="url(#clip142)" style="stroke:#0000ff; stroke-linecap:round; stroke-linejoin:round; stroke-width:4; stroke-opacity:0.5; fill:none" stroke-dasharray="16, 10" points="2145.52,353.677 2221.58,353.677 "/>
<polyline clip-path="url(#clip142)" style="stroke:#808080; stroke-linecap:round; stroke-linejoin:round; stroke-width:4; stroke-opacity:1; fill:none" stroke-dasharray="16, 10" points="307.488,335.428 371.324,335.428 "/>
<polyline clip-path="url(#clip142)" style="stroke:#808080; stroke-linecap:round; stroke-linejoin:round; stroke-width:4; stroke-opacity:1; fill:none" stroke-dasharray="16, 10" points="274.975,416.287 672.967,416.287 "/>
<polyline clip-path="url(#clip142)" style="stroke:#808080; stroke-linecap:round; stroke-linejoin:round; stroke-width:4; stroke-opacity:1; fill:none" stroke-dasharray="16, 10" points="818.072,641.032 905.512,641.032 "/>
<polyline clip-path="url(#clip142)" style="stroke:#808080; stroke-linecap:round; stroke-linejoin:round; stroke-width:4; stroke-opacity:1; fill:none" stroke-dasharray="16, 10" points="1113.35,766.846 1274.31,766.846 "/>
<polyline clip-path="url(#clip142)" style="stroke:#808080; stroke-linecap:round; stroke-linejoin:round; stroke-width:4; stroke-opacity:1; fill:none" stroke-dasharray="16, 10" points="1408.63,892.66 1492.26,892.66 "/>
<polyline clip-path="url(#clip142)" style="stroke:#808080; stroke-linecap:round; stroke-linejoin:round; stroke-width:4; stroke-opacity:1; fill:none" stroke-dasharray="16, 10" points="1786.95,1198.26 1855.38,1198.26 "/>
<polyline clip-path="url(#clip142)" style="stroke:#808080; stroke-linecap:round; stroke-linejoin:round; stroke-width:4; stroke-opacity:1; fill:none" stroke-dasharray="16, 10" points="2118.32,335.428 2182.16,335.428 "/>
<circle clip-path="url(#clip142)" cx="307.488" cy="335.428" r="14.4" fill="#808080" fill-rule="evenodd" fill-opacity="1" stroke="#000000" stroke-opacity="1" stroke-width="3.2"/>
<circle clip-path="url(#clip142)" cx="371.324" cy="335.428" r="14.4" fill="#808080" fill-rule="evenodd" fill-opacity="1" stroke="#000000" stroke-opacity="1" stroke-width="3.2"/>
<circle clip-path="url(#clip142)" cx="274.975" cy="416.287" r="14.4" fill="#808080" fill-rule="evenodd" fill-opacity="1" stroke="#000000" stroke-opacity="1" stroke-width="3.2"/>
<circle clip-path="url(#clip142)" cx="672.967" cy="416.287" r="14.4" fill="#808080" fill-rule="evenodd" fill-opacity="1" stroke="#000000" stroke-opacity="1" stroke-width="3.2"/>
<circle clip-path="url(#clip142)" cx="818.072" cy="641.032" r="14.4" fill="#808080" fill-rule="evenodd" fill-opacity="1" stroke="#000000" stroke-opacity="1" stroke-width="3.2"/>
<circle clip-path="url(#clip142)" cx="905.512" cy="641.032" r="14.4" fill="#808080" fill-rule="evenodd" fill-opacity="1" stroke="#000000" stroke-opacity="1" stroke-width="3.2"/>
<circle clip-path="url(#clip142)" cx="1113.35" cy="766.846" r="14.4" fill="#808080" fill-rule="evenodd" fill-opacity="1" stroke="#000000" stroke-opacity="1" stroke-width="3.2"/>
<circle clip-path="url(#clip142)" cx="1274.31" cy="766.846" r="14.4" fill="#808080" fill-rule="evenodd" fill-opacity="1" stroke="#000000" stroke-opacity="1" stroke-width="3.2"/>
<circle clip-path="url(#clip142)" cx="1408.63" cy="892.66" r="14.4" fill="#808080" fill-rule="evenodd" fill-opacity="1" stroke="#000000" stroke-opacity="1" stroke-width="3.2"/>
<circle clip-path="url(#clip142)" cx="1492.26" cy="892.66" r="14.4" fill="#808080" fill-rule="evenodd" fill-opacity="1" stroke="#000000" stroke-opacity="1" stroke-width="3.2"/>
<circle clip-path="url(#clip142)" cx="1786.95" cy="1198.26" r="14.4" fill="#808080" fill-rule="evenodd" fill-opacity="1" stroke="#000000" stroke-opacity="1" stroke-width="3.2"/>
<circle clip-path="url(#clip142)" cx="1855.38" cy="1198.26" r="14.4" fill="#808080" fill-rule="evenodd" fill-opacity="1" stroke="#000000" stroke-opacity="1" stroke-width="3.2"/>
<circle clip-path="url(#clip142)" cx="2118.32" cy="335.428" r="14.4" fill="#808080" fill-rule="evenodd" fill-opacity="1" stroke="#000000" stroke-opacity="1" stroke-width="3.2"/>
<circle clip-path="url(#clip142)" cx="2182.16" cy="335.428" r="14.4" fill="#808080" fill-rule="evenodd" fill-opacity="1" stroke="#000000" stroke-opacity="1" stroke-width="3.2"/>
<circle clip-path="url(#clip142)" cx="334.692" cy="317.178" r="14.4" fill="#ff0000" fill-rule="evenodd" fill-opacity="1" stroke="#000000" stroke-opacity="1" stroke-width="3.2"/>
<circle clip-path="url(#clip142)" cx="566.479" cy="87.9763" r="14.4" fill="#ff0000" fill-rule="evenodd" fill-opacity="1" stroke="#000000" stroke-opacity="1" stroke-width="3.2"/>
<circle clip-path="url(#clip142)" cx="867.077" cy="603.735" r="14.4" fill="#ff0000" fill-rule="evenodd" fill-opacity="1" stroke="#000000" stroke-opacity="1" stroke-width="3.2"/>
<circle clip-path="url(#clip142)" cx="1193.03" cy="599.572" r="14.4" fill="#ff0000" fill-rule="evenodd" fill-opacity="1" stroke="#000000" stroke-opacity="1" stroke-width="3.2"/>
<circle clip-path="url(#clip142)" cx="1453.79" cy="855.362" r="14.4" fill="#ff0000" fill-rule="evenodd" fill-opacity="1" stroke="#000000" stroke-opacity="1" stroke-width="3.2"/>
<circle clip-path="url(#clip142)" cx="1815.95" cy="1180.01" r="14.4" fill="#ff0000" fill-rule="evenodd" fill-opacity="1" stroke="#000000" stroke-opacity="1" stroke-width="3.2"/>
<circle clip-path="url(#clip142)" cx="2145.52" cy="317.178" r="14.4" fill="#ff0000" fill-rule="evenodd" fill-opacity="1" stroke="#000000" stroke-opacity="1" stroke-width="3.2"/>
<path clip-path="url(#clip140)" d="M222.643 1438.47 L717.558 1438.47 L717.558 1179.27 L222.643 1179.27  Z" fill="#ffffff" fill-rule="evenodd" fill-opacity="1"/>
<polyline clip-path="url(#clip140)" style="stroke:#000000; stroke-linecap:round; stroke-linejoin:round; stroke-width:4; stroke-opacity:1; fill:none" points="222.643,1438.47 717.558,1438.47 717.558,1179.27 222.643,1179.27 222.643,1438.47 "/>
<polyline clip-path="url(#clip140)" style="stroke:#000000; stroke-linecap:round; stroke-linejoin:round; stroke-width:8; stroke-opacity:1; fill:none" points="247.127,1231.11 394.031,1231.11 "/>
<path clip-path="url(#clip140)" d="M436.941 1223.23 L436.941 1227.26 Q435.136 1226.33 433.191 1225.87 Q431.247 1225.41 429.164 1225.41 Q425.992 1225.41 424.395 1226.38 Q422.821 1227.35 422.821 1229.3 Q422.821 1230.78 423.955 1231.64 Q425.09 1232.47 428.515 1233.23 L429.974 1233.56 Q434.511 1234.53 436.409 1236.31 Q438.33 1238.07 438.33 1241.24 Q438.33 1244.85 435.46 1246.96 Q432.613 1249.07 427.613 1249.07 Q425.529 1249.07 423.261 1248.65 Q421.015 1248.26 418.515 1247.45 L418.515 1243.05 Q420.877 1244.27 423.168 1244.9 Q425.46 1245.5 427.705 1245.5 Q430.714 1245.5 432.335 1244.48 Q433.955 1243.44 433.955 1241.57 Q433.955 1239.83 432.775 1238.9 Q431.617 1237.98 427.659 1237.12 L426.177 1236.77 Q422.219 1235.94 420.46 1234.23 Q418.701 1232.49 418.701 1229.48 Q418.701 1225.83 421.293 1223.83 Q423.886 1221.84 428.654 1221.84 Q431.015 1221.84 433.099 1222.19 Q435.182 1222.54 436.941 1223.23 Z" fill="#000000" fill-rule="nonzero" fill-opacity="1" /><path clip-path="url(#clip140)" d="M445.113 1222.47 L449.372 1222.47 L449.372 1248.39 L445.113 1248.39 L445.113 1222.47 M445.113 1212.38 L449.372 1212.38 L449.372 1217.77 L445.113 1217.77 L445.113 1212.38 Z" fill="#000000" fill-rule="nonzero" fill-opacity="1" /><path clip-path="url(#clip140)" d="M475.344 1235.13 Q475.344 1230.5 473.423 1227.95 Q471.524 1225.41 468.075 1225.41 Q464.649 1225.41 462.728 1227.95 Q460.83 1230.5 460.83 1235.13 Q460.83 1239.74 462.728 1242.28 Q464.649 1244.83 468.075 1244.83 Q471.524 1244.83 473.423 1242.28 Q475.344 1239.74 475.344 1235.13 M479.603 1245.18 Q479.603 1251.8 476.663 1255.01 Q473.724 1258.26 467.659 1258.26 Q465.413 1258.26 463.423 1257.91 Q461.432 1257.58 459.557 1256.89 L459.557 1252.75 Q461.432 1253.76 463.261 1254.25 Q465.089 1254.74 466.987 1254.74 Q471.177 1254.74 473.261 1252.54 Q475.344 1250.36 475.344 1245.94 L475.344 1243.83 Q474.024 1246.13 471.964 1247.26 Q469.904 1248.39 467.034 1248.39 Q462.265 1248.39 459.349 1244.76 Q456.432 1241.13 456.432 1235.13 Q456.432 1229.11 459.349 1225.48 Q462.265 1221.84 467.034 1221.84 Q469.904 1221.84 471.964 1222.98 Q474.024 1224.11 475.344 1226.4 L475.344 1222.47 L479.603 1222.47 L479.603 1245.18 Z" fill="#000000" fill-rule="nonzero" fill-opacity="1" /><path clip-path="url(#clip140)" d="M509.927 1232.75 L509.927 1248.39 L505.668 1248.39 L505.668 1232.89 Q505.668 1229.2 504.233 1227.38 Q502.797 1225.55 499.927 1225.55 Q496.478 1225.55 494.487 1227.75 Q492.497 1229.95 492.497 1233.74 L492.497 1248.39 L488.214 1248.39 L488.214 1222.47 L492.497 1222.47 L492.497 1226.5 Q494.024 1224.16 496.085 1223 Q498.168 1221.84 500.876 1221.84 Q505.344 1221.84 507.635 1224.62 Q509.927 1227.38 509.927 1232.75 Z" fill="#000000" fill-rule="nonzero" fill-opacity="1" /><path clip-path="url(#clip140)" d="M530.205 1235.36 Q525.043 1235.36 523.052 1236.54 Q521.061 1237.72 521.061 1240.57 Q521.061 1242.84 522.543 1244.18 Q524.047 1245.5 526.617 1245.5 Q530.158 1245.5 532.288 1243 Q534.441 1240.48 534.441 1236.31 L534.441 1235.36 L530.205 1235.36 M538.7 1233.6 L538.7 1248.39 L534.441 1248.39 L534.441 1244.46 Q532.982 1246.82 530.807 1247.95 Q528.631 1249.07 525.483 1249.07 Q521.501 1249.07 519.14 1246.84 Q516.802 1244.6 516.802 1240.85 Q516.802 1236.47 519.719 1234.25 Q522.658 1232.03 528.469 1232.03 L534.441 1232.03 L534.441 1231.61 Q534.441 1228.67 532.496 1227.08 Q530.575 1225.45 527.08 1225.45 Q524.858 1225.45 522.751 1225.99 Q520.645 1226.52 518.7 1227.58 L518.7 1223.65 Q521.038 1222.75 523.237 1222.31 Q525.436 1221.84 527.52 1221.84 Q533.144 1221.84 535.922 1224.76 Q538.7 1227.68 538.7 1233.6 Z" fill="#000000" fill-rule="nonzero" fill-opacity="1" /><path clip-path="url(#clip140)" d="M547.473 1212.38 L551.732 1212.38 L551.732 1248.39 L547.473 1248.39 L547.473 1212.38 Z" fill="#000000" fill-rule="nonzero" fill-opacity="1" /><polyline clip-path="url(#clip140)" style="stroke:#0000ff; stroke-linecap:round; stroke-linejoin:round; stroke-width:4; stroke-opacity:1; fill:none" points="247.127,1282.95 394.031,1282.95 "/>
<path clip-path="url(#clip140)" d="M422.798 1296.35 L422.798 1310.1 L418.515 1310.1 L418.515 1274.31 L422.798 1274.31 L422.798 1278.24 Q424.14 1275.93 426.177 1274.82 Q428.238 1273.68 431.085 1273.68 Q435.807 1273.68 438.747 1277.43 Q441.71 1281.18 441.71 1287.29 Q441.71 1293.41 438.747 1297.16 Q435.807 1300.91 431.085 1300.91 Q428.238 1300.91 426.177 1299.79 Q424.14 1298.66 422.798 1296.35 M437.289 1287.29 Q437.289 1282.6 435.344 1279.93 Q433.423 1277.25 430.043 1277.25 Q426.664 1277.25 424.719 1279.93 Q422.798 1282.6 422.798 1287.29 Q422.798 1291.99 424.719 1294.68 Q426.664 1297.34 430.043 1297.34 Q433.423 1297.34 435.344 1294.68 Q437.289 1291.99 437.289 1287.29 Z" fill="#000000" fill-rule="nonzero" fill-opacity="1" /><path clip-path="url(#clip140)" d="M463.793 1278.29 Q463.075 1277.87 462.219 1277.69 Q461.386 1277.48 460.367 1277.48 Q456.756 1277.48 454.812 1279.84 Q452.89 1282.18 452.89 1286.58 L452.89 1300.23 L448.608 1300.23 L448.608 1274.31 L452.89 1274.31 L452.89 1278.34 Q454.233 1275.98 456.386 1274.84 Q458.538 1273.68 461.617 1273.68 Q462.057 1273.68 462.589 1273.75 Q463.122 1273.8 463.77 1273.92 L463.793 1278.29 Z" fill="#000000" fill-rule="nonzero" fill-opacity="1" /><path clip-path="url(#clip140)" d="M477.265 1277.29 Q473.839 1277.29 471.849 1279.98 Q469.858 1282.64 469.858 1287.29 Q469.858 1291.95 471.825 1294.63 Q473.816 1297.29 477.265 1297.29 Q480.668 1297.29 482.659 1294.61 Q484.649 1291.92 484.649 1287.29 Q484.649 1282.69 482.659 1280 Q480.668 1277.29 477.265 1277.29 M477.265 1273.68 Q482.821 1273.68 485.992 1277.29 Q489.163 1280.91 489.163 1287.29 Q489.163 1293.66 485.992 1297.29 Q482.821 1300.91 477.265 1300.91 Q471.686 1300.91 468.515 1297.29 Q465.367 1293.66 465.367 1287.29 Q465.367 1280.91 468.515 1277.29 Q471.686 1273.68 477.265 1273.68 Z" fill="#000000" fill-rule="nonzero" fill-opacity="1" /><path clip-path="url(#clip140)" d="M516.408 1279.29 Q518.006 1276.42 520.228 1275.05 Q522.45 1273.68 525.459 1273.68 Q529.51 1273.68 531.709 1276.53 Q533.908 1279.35 533.908 1284.59 L533.908 1300.23 L529.626 1300.23 L529.626 1284.73 Q529.626 1281 528.307 1279.19 Q526.987 1277.39 524.279 1277.39 Q520.969 1277.39 519.047 1279.59 Q517.126 1281.79 517.126 1285.58 L517.126 1300.23 L512.844 1300.23 L512.844 1284.73 Q512.844 1280.98 511.524 1279.19 Q510.205 1277.39 507.45 1277.39 Q504.186 1277.39 502.265 1279.61 Q500.344 1281.81 500.344 1285.58 L500.344 1300.23 L496.061 1300.23 L496.061 1274.31 L500.344 1274.31 L500.344 1278.34 Q501.802 1275.95 503.839 1274.82 Q505.876 1273.68 508.677 1273.68 Q511.501 1273.68 513.469 1275.12 Q515.459 1276.55 516.408 1279.29 Z" fill="#000000" fill-rule="nonzero" fill-opacity="1" /><path clip-path="url(#clip140)" d="M542.404 1274.31 L546.663 1274.31 L546.663 1300.23 L542.404 1300.23 L542.404 1274.31 M542.404 1264.22 L546.663 1264.22 L546.663 1269.61 L542.404 1269.61 L542.404 1264.22 Z" fill="#000000" fill-rule="nonzero" fill-opacity="1" /><path clip-path="url(#clip140)" d="M577.126 1284.59 L577.126 1300.23 L572.867 1300.23 L572.867 1284.73 Q572.867 1281.04 571.431 1279.22 Q569.996 1277.39 567.126 1277.39 Q563.677 1277.39 561.686 1279.59 Q559.695 1281.79 559.695 1285.58 L559.695 1300.23 L555.413 1300.23 L555.413 1274.31 L559.695 1274.31 L559.695 1278.34 Q561.223 1276 563.283 1274.84 Q565.367 1273.68 568.075 1273.68 Q572.542 1273.68 574.834 1276.46 Q577.126 1279.22 577.126 1284.59 Z" fill="#000000" fill-rule="nonzero" fill-opacity="1" /><path clip-path="url(#clip140)" d="M607.797 1286.21 L607.797 1288.29 L588.214 1288.29 Q588.491 1292.69 590.853 1295 Q593.237 1297.29 597.473 1297.29 Q599.927 1297.29 602.218 1296.69 Q604.533 1296.09 606.802 1294.89 L606.802 1298.91 Q604.51 1299.89 602.102 1300.4 Q599.695 1300.91 597.218 1300.91 Q591.015 1300.91 587.38 1297.29 Q583.769 1293.68 583.769 1287.53 Q583.769 1281.16 587.195 1277.43 Q590.644 1273.68 596.477 1273.68 Q601.709 1273.68 604.741 1277.06 Q607.797 1280.42 607.797 1286.21 M603.538 1284.96 Q603.491 1281.46 601.57 1279.38 Q599.672 1277.29 596.524 1277.29 Q592.959 1277.29 590.806 1279.31 Q588.677 1281.32 588.353 1284.98 L603.538 1284.96 Z" fill="#000000" fill-rule="nonzero" fill-opacity="1" /><path clip-path="url(#clip140)" d="M636.338 1284.59 L636.338 1300.23 L632.079 1300.23 L632.079 1284.73 Q632.079 1281.04 630.644 1279.22 Q629.209 1277.39 626.338 1277.39 Q622.889 1277.39 620.899 1279.59 Q618.908 1281.79 618.908 1285.58 L618.908 1300.23 L614.626 1300.23 L614.626 1274.31 L618.908 1274.31 L618.908 1278.34 Q620.436 1276 622.496 1274.84 Q624.579 1273.68 627.288 1273.68 Q631.755 1273.68 634.047 1276.46 Q636.338 1279.22 636.338 1284.59 Z" fill="#000000" fill-rule="nonzero" fill-opacity="1" /><path clip-path="url(#clip140)" d="M663.491 1275.3 L663.491 1279.29 Q661.685 1278.29 659.857 1277.8 Q658.051 1277.29 656.199 1277.29 Q652.056 1277.29 649.764 1279.93 Q647.473 1282.55 647.473 1287.29 Q647.473 1292.04 649.764 1294.68 Q652.056 1297.29 656.199 1297.29 Q658.051 1297.29 659.857 1296.81 Q661.685 1296.3 663.491 1295.3 L663.491 1299.24 Q661.709 1300.07 659.787 1300.49 Q657.889 1300.91 655.736 1300.91 Q649.88 1300.91 646.431 1297.23 Q642.982 1293.54 642.982 1287.29 Q642.982 1280.95 646.454 1277.32 Q649.949 1273.68 656.014 1273.68 Q657.982 1273.68 659.857 1274.1 Q661.732 1274.49 663.491 1275.3 Z" fill="#000000" fill-rule="nonzero" fill-opacity="1" /><path clip-path="url(#clip140)" d="M693.074 1286.21 L693.074 1288.29 L673.491 1288.29 Q673.769 1292.69 676.13 1295 Q678.514 1297.29 682.75 1297.29 Q685.204 1297.29 687.496 1296.69 Q689.81 1296.09 692.079 1294.89 L692.079 1298.91 Q689.787 1299.89 687.38 1300.4 Q684.972 1300.91 682.496 1300.91 Q676.292 1300.91 672.658 1297.29 Q669.047 1293.68 669.047 1287.53 Q669.047 1281.16 672.472 1277.43 Q675.922 1273.68 681.755 1273.68 Q686.986 1273.68 690.019 1277.06 Q693.074 1280.42 693.074 1286.21 M688.815 1284.96 Q688.769 1281.46 686.847 1279.38 Q684.949 1277.29 681.801 1277.29 Q678.236 1277.29 676.084 1279.31 Q673.954 1281.32 673.63 1284.98 L688.815 1284.96 Z" fill="#000000" fill-rule="nonzero" fill-opacity="1" /><polyline clip-path="url(#clip140)" style="stroke:#808080; stroke-linecap:round; stroke-linejoin:round; stroke-width:4; stroke-opacity:1; fill:none" stroke-dasharray="16, 10" points="247.127,1334.79 394.031,1334.79 "/>
<path clip-path="url(#clip140)" d="M418.515 1326.15 L422.775 1326.15 L428.099 1346.38 L433.4 1326.15 L438.423 1326.15 L443.747 1346.38 L449.048 1326.15 L453.307 1326.15 L446.525 1352.07 L441.501 1352.07 L435.923 1330.82 L430.321 1352.07 L425.298 1352.07 L418.515 1326.15 Z" fill="#000000" fill-rule="nonzero" fill-opacity="1" /><path clip-path="url(#clip140)" d="M459.765 1326.15 L464.024 1326.15 L464.024 1352.07 L459.765 1352.07 L459.765 1326.15 M459.765 1316.06 L464.024 1316.06 L464.024 1321.45 L459.765 1321.45 L459.765 1316.06 Z" fill="#000000" fill-rule="nonzero" fill-opacity="1" /><path clip-path="url(#clip140)" d="M489.997 1330.08 L489.997 1316.06 L494.256 1316.06 L494.256 1352.07 L489.997 1352.07 L489.997 1348.19 Q488.654 1350.5 486.594 1351.63 Q484.557 1352.75 481.686 1352.75 Q476.987 1352.75 474.024 1349 Q471.085 1345.25 471.085 1339.13 Q471.085 1333.02 474.024 1329.27 Q476.987 1325.52 481.686 1325.52 Q484.557 1325.52 486.594 1326.66 Q488.654 1327.77 489.997 1330.08 M475.483 1339.13 Q475.483 1343.83 477.404 1346.52 Q479.348 1349.18 482.728 1349.18 Q486.108 1349.18 488.052 1346.52 Q489.997 1343.83 489.997 1339.13 Q489.997 1334.44 488.052 1331.77 Q486.108 1329.09 482.728 1329.09 Q479.348 1329.09 477.404 1331.77 Q475.483 1334.44 475.483 1339.13 Z" fill="#000000" fill-rule="nonzero" fill-opacity="1" /><path clip-path="url(#clip140)" d="M507.242 1318.79 L507.242 1326.15 L516.015 1326.15 L516.015 1329.46 L507.242 1329.46 L507.242 1343.53 Q507.242 1346.7 508.098 1347.61 Q508.978 1348.51 511.64 1348.51 L516.015 1348.51 L516.015 1352.07 L511.64 1352.07 Q506.709 1352.07 504.834 1350.25 Q502.959 1348.39 502.959 1343.53 L502.959 1329.46 L499.834 1329.46 L499.834 1326.15 L502.959 1326.15 L502.959 1318.79 L507.242 1318.79 Z" fill="#000000" fill-rule="nonzero" fill-opacity="1" /><path clip-path="url(#clip140)" d="M543.168 1336.43 L543.168 1352.07 L538.908 1352.07 L538.908 1336.57 Q538.908 1332.88 537.473 1331.06 Q536.038 1329.23 533.168 1329.23 Q529.719 1329.23 527.728 1331.43 Q525.737 1333.63 525.737 1337.42 L525.737 1352.07 L521.455 1352.07 L521.455 1316.06 L525.737 1316.06 L525.737 1330.18 Q527.265 1327.84 529.325 1326.68 Q531.408 1325.52 534.117 1325.52 Q538.584 1325.52 540.876 1328.3 Q543.168 1331.06 543.168 1336.43 Z" fill="#000000" fill-rule="nonzero" fill-opacity="1" /><circle clip-path="url(#clip140)" cx="320.579" cy="1386.63" r="20.48" fill="#ff0000" fill-rule="evenodd" fill-opacity="1" stroke="#000000" stroke-opacity="1" stroke-width="4.55111"/>
<path clip-path="url(#clip140)" d="M438.863 1382.97 Q440.46 1380.1 442.682 1378.73 Q444.904 1377.36 447.913 1377.36 Q451.964 1377.36 454.163 1380.21 Q456.363 1383.03 456.363 1388.27 L456.363 1403.91 L452.08 1403.91 L452.08 1388.41 Q452.08 1384.68 450.761 1382.87 Q449.441 1381.07 446.733 1381.07 Q443.423 1381.07 441.501 1383.27 Q439.58 1385.47 439.58 1389.26 L439.58 1403.91 L435.298 1403.91 L435.298 1388.41 Q435.298 1384.66 433.978 1382.87 Q432.659 1381.07 429.904 1381.07 Q426.64 1381.07 424.719 1383.29 Q422.798 1385.49 422.798 1389.26 L422.798 1403.91 L418.515 1403.91 L418.515 1377.99 L422.798 1377.99 L422.798 1382.02 Q424.256 1379.63 426.293 1378.5 Q428.33 1377.36 431.131 1377.36 Q433.955 1377.36 435.923 1378.8 Q437.914 1380.23 438.863 1382.97 Z" fill="#000000" fill-rule="nonzero" fill-opacity="1" /><path clip-path="url(#clip140)" d="M476.64 1390.88 Q471.478 1390.88 469.487 1392.06 Q467.497 1393.24 467.497 1396.09 Q467.497 1398.36 468.978 1399.7 Q470.483 1401.02 473.052 1401.02 Q476.594 1401.02 478.723 1398.52 Q480.876 1396 480.876 1391.83 L480.876 1390.88 L476.64 1390.88 M485.135 1389.12 L485.135 1403.91 L480.876 1403.91 L480.876 1399.98 Q479.418 1402.34 477.242 1403.47 Q475.066 1404.59 471.918 1404.59 Q467.937 1404.59 465.575 1402.36 Q463.237 1400.12 463.237 1396.37 Q463.237 1391.99 466.154 1389.77 Q469.094 1387.55 474.904 1387.55 L480.876 1387.55 L480.876 1387.13 Q480.876 1384.19 478.932 1382.6 Q477.011 1380.97 473.515 1380.97 Q471.293 1380.97 469.187 1381.51 Q467.08 1382.04 465.136 1383.1 L465.136 1379.17 Q467.474 1378.27 469.673 1377.83 Q471.872 1377.36 473.955 1377.36 Q479.58 1377.36 482.358 1380.28 Q485.135 1383.2 485.135 1389.12 Z" fill="#000000" fill-rule="nonzero" fill-opacity="1" /><path clip-path="url(#clip140)" d="M515.459 1377.99 L506.084 1390.6 L515.946 1403.91 L510.922 1403.91 L503.376 1393.73 L495.83 1403.91 L490.807 1403.91 L500.876 1390.35 L491.663 1377.99 L496.686 1377.99 L503.561 1387.22 L510.436 1377.99 L515.459 1377.99 Z" fill="#000000" fill-rule="nonzero" fill-opacity="1" /><path clip-path="url(#clip140)" d="M521.964 1377.99 L526.223 1377.99 L526.223 1403.91 L521.964 1403.91 L521.964 1377.99 M521.964 1367.9 L526.223 1367.9 L526.223 1373.29 L521.964 1373.29 L521.964 1367.9 Z" fill="#000000" fill-rule="nonzero" fill-opacity="1" /><path clip-path="url(#clip140)" d="M555.32 1382.97 Q556.918 1380.1 559.14 1378.73 Q561.362 1377.36 564.371 1377.36 Q568.422 1377.36 570.621 1380.21 Q572.82 1383.03 572.82 1388.27 L572.82 1403.91 L568.538 1403.91 L568.538 1388.41 Q568.538 1384.68 567.218 1382.87 Q565.899 1381.07 563.191 1381.07 Q559.88 1381.07 557.959 1383.27 Q556.038 1385.47 556.038 1389.26 L556.038 1403.91 L551.756 1403.91 L551.756 1388.41 Q551.756 1384.66 550.436 1382.87 Q549.117 1381.07 546.362 1381.07 Q543.098 1381.07 541.177 1383.29 Q539.256 1385.49 539.256 1389.26 L539.256 1403.91 L534.973 1403.91 L534.973 1377.99 L539.256 1377.99 L539.256 1382.02 Q540.714 1379.63 542.751 1378.5 Q544.788 1377.36 547.589 1377.36 Q550.413 1377.36 552.381 1378.8 Q554.371 1380.23 555.32 1382.97 Z" fill="#000000" fill-rule="nonzero" fill-opacity="1" /><path clip-path="url(#clip140)" d="M593.098 1390.88 Q587.936 1390.88 585.945 1392.06 Q583.954 1393.24 583.954 1396.09 Q583.954 1398.36 585.436 1399.7 Q586.941 1401.02 589.51 1401.02 Q593.052 1401.02 595.181 1398.52 Q597.334 1396 597.334 1391.83 L597.334 1390.88 L593.098 1390.88 M601.593 1389.12 L601.593 1403.91 L597.334 1403.91 L597.334 1399.98 Q595.876 1402.34 593.7 1403.47 Q591.524 1404.59 588.376 1404.59 Q584.394 1404.59 582.033 1402.36 Q579.695 1400.12 579.695 1396.37 Q579.695 1391.99 582.612 1389.77 Q585.552 1387.55 591.362 1387.55 L597.334 1387.55 L597.334 1387.13 Q597.334 1384.19 595.39 1382.6 Q593.468 1380.97 589.973 1380.97 Q587.751 1380.97 585.644 1381.51 Q583.538 1382.04 581.593 1383.1 L581.593 1379.17 Q583.931 1378.27 586.13 1377.83 Q588.329 1377.36 590.413 1377.36 Q596.038 1377.36 598.815 1380.28 Q601.593 1383.2 601.593 1389.12 Z" fill="#000000" fill-rule="nonzero" fill-opacity="1" /></svg>
