<?xml version="1.0" encoding="utf-8"?>
<svg xmlns="http://www.w3.org/2000/svg" xmlns:xlink="http://www.w3.org/1999/xlink" width="600" height="400" viewBox="0 0 2400 1600">
<defs>
  <clipPath id="clip070">
    <rect x="0" y="0" width="2400" height="1600"/>
  </clipPath>
</defs>
<path clip-path="url(#clip070)" d="M0 1600 L2400 1600 L2400 0 L0 0  Z" fill="#ffffff" fill-rule="evenodd" fill-opacity="1"/>
<defs>
  <clipPath id="clip071">
    <rect x="480" y="0" width="1681" height="1600"/>
  </clipPath>
</defs>
<path clip-path="url(#clip070)" d="M149.191 1486.45 L2352.76 1486.45 L2352.76 47.2441 L149.191 47.2441  Z" fill="#ffffff" fill-rule="evenodd" fill-opacity="1"/>
<defs>
  <clipPath id="clip072">
    <rect x="149" y="47" width="2205" height="1440"/>
  </clipPath>
</defs>
<polyline clip-path="url(#clip072)" style="stroke:#000000; stroke-linecap:round; stroke-linejoin:round; stroke-width:2; stroke-opacity:0.1; fill:none" points="210.724,1486.45 210.724,47.2441 "/>
<polyline clip-path="url(#clip072)" style="stroke:#000000; stroke-linecap:round; stroke-linejoin:round; stroke-width:2; stroke-opacity:0.1; fill:none" points="626.657,1486.45 626.657,47.2441 "/>
<polyline clip-path="url(#clip072)" style="stroke:#000000; stroke-linecap:round; stroke-linejoin:round; stroke-width:2; stroke-opacity:0.1; fill:none" points="1042.59,1486.45 1042.59,47.2441 "/>
<polyline clip-path="url(#clip072)" style="stroke:#000000; stroke-linecap:round; stroke-linejoin:round; stroke-width:2; stroke-opacity:0.1; fill:none" points="1458.52,1486.45 1458.52,47.2441 "/>
<polyline clip-path="url(#clip072)" style="stroke:#000000; stroke-linecap:round; stroke-linejoin:round; stroke-width:2; stroke-opacity:0.1; fill:none" points="1874.46,1486.45 1874.46,47.2441 "/>
<polyline clip-path="url(#clip072)" style="stroke:#000000; stroke-linecap:round; stroke-linejoin:round; stroke-width:2; stroke-opacity:0.1; fill:none" points="2290.39,1486.45 2290.39,47.2441 "/>
<polyline clip-path="url(#clip070)" style="stroke:#000000; stroke-linecap:round; stroke-linejoin:round; stroke-width:4; stroke-opacity:1; fill:none" points="149.191,1486.45 2352.76,1486.45 "/>
<polyline clip-path="url(#clip070)" style="stroke:#000000; stroke-linecap:round; stroke-linejoin:round; stroke-width:4; stroke-opacity:1; fill:none" points="210.724,1486.45 210.724,1467.55 "/>
<polyline clip-path="url(#clip070)" style="stroke:#000000; stroke-linecap:round; stroke-linejoin:round; stroke-width:4; stroke-opacity:1; fill:none" points="626.657,1486.45 626.657,1467.55 "/>
<polyline clip-path="url(#clip070)" style="stroke:#000000; stroke-linecap:round; stroke-linejoin:round; stroke-width:4; stroke-opacity:1; fill:none" points="1042.59,1486.45 1042.59,1467.55 "/>
<polyline clip-path="url(#clip070)" style="stroke:#000000; stroke-linecap:round; stroke-linejoin:round; stroke-width:4; stroke-opacity:1; fill:none" points="1458.52,1486.45 1458.52,1467.55 "/>
<polyline clip-path="url(#clip070)" style="stroke:#000000; stroke-linecap:round; stroke-linejoin:round; stroke-width:4; stroke-opacity:1; fill:none" points="1874.46,1486.45 1874.46,1467.55 "/>
<polyline clip-path="url(#clip070)" style="stroke:#000000; stroke-linecap:round; stroke-linejoin:round; stroke-width:4; stroke-opacity:1; fill:none" points="2290.39,1486.45 2290.39,1467.55 "/>
<path clip-path="url(#clip070)" d="M210.724 1517.37 Q207.113 1517.37 205.284 1520.93 Q203.479 1524.47 203.479 1531.6 Q203.479 1538.71 205.284 1542.27 Q207.113 1545.82 210.724 1545.82 Q214.358 1545.82 216.164 1542.27 Q217.993 1538.71 217.993 1531.6 Q217.993 1524.47 216.164 1520.93 Q214.358 1517.37 210.724 1517.37 M210.724 1513.66 Q216.534 1513.66 219.59 1518.27 Q222.668 1522.85 222.668 1531.6 Q222.668 1540.33 219.59 1544.94 Q216.534 1549.52 210.724 1549.52 Q204.914 1549.52 201.835 1544.94 Q198.78 1540.33 198.78 1531.6 Q198.78 1522.85 201.835 1518.27 Q204.914 1513.66 210.724 1513.66 Z" fill="#000000" fill-rule="nonzero" fill-opacity="1" /><path clip-path="url(#clip070)" d="M616.935 1514.29 L635.292 1514.29 L635.292 1518.22 L621.218 1518.22 L621.218 1526.7 Q622.236 1526.35 623.255 1526.19 Q624.273 1526 625.292 1526 Q631.079 1526 634.458 1529.17 Q637.838 1532.34 637.838 1537.76 Q637.838 1543.34 634.366 1546.44 Q630.893 1549.52 624.574 1549.52 Q622.398 1549.52 620.13 1549.15 Q617.884 1548.78 615.477 1548.04 L615.477 1543.34 Q617.56 1544.47 619.782 1545.03 Q622.005 1545.58 624.481 1545.58 Q628.486 1545.58 630.824 1543.48 Q633.162 1541.37 633.162 1537.76 Q633.162 1534.15 630.824 1532.04 Q628.486 1529.94 624.481 1529.94 Q622.607 1529.94 620.732 1530.35 Q618.88 1530.77 616.935 1531.65 L616.935 1514.29 Z" fill="#000000" fill-rule="nonzero" fill-opacity="1" /><path clip-path="url(#clip070)" d="M1017.28 1544.91 L1024.92 1544.91 L1024.92 1518.55 L1016.61 1520.21 L1016.61 1515.95 L1024.87 1514.29 L1029.55 1514.29 L1029.55 1544.91 L1037.19 1544.91 L1037.19 1548.85 L1017.28 1548.85 L1017.28 1544.91 Z" fill="#000000" fill-rule="nonzero" fill-opacity="1" /><path clip-path="url(#clip070)" d="M1056.63 1517.37 Q1053.02 1517.37 1051.19 1520.93 Q1049.38 1524.47 1049.38 1531.6 Q1049.38 1538.71 1051.19 1542.27 Q1053.02 1545.82 1056.63 1545.82 Q1060.26 1545.82 1062.07 1542.27 Q1063.9 1538.71 1063.9 1531.6 Q1063.9 1524.47 1062.07 1520.93 Q1060.26 1517.37 1056.63 1517.37 M1056.63 1513.66 Q1062.44 1513.66 1065.5 1518.27 Q1068.57 1522.85 1068.57 1531.6 Q1068.57 1540.33 1065.5 1544.94 Q1062.44 1549.52 1056.63 1549.52 Q1050.82 1549.52 1047.74 1544.94 Q1044.69 1540.33 1044.69 1531.6 Q1044.69 1522.85 1047.74 1518.27 Q1050.82 1513.66 1056.63 1513.66 Z" fill="#000000" fill-rule="nonzero" fill-opacity="1" /><path clip-path="url(#clip070)" d="M1433.71 1544.91 L1441.35 1544.91 L1441.35 1518.55 L1433.04 1520.21 L1433.04 1515.95 L1441.3 1514.29 L1445.98 1514.29 L1445.98 1544.91 L1453.62 1544.91 L1453.62 1548.85 L1433.71 1548.85 L1433.71 1544.91 Z" fill="#000000" fill-rule="nonzero" fill-opacity="1" /><path clip-path="url(#clip070)" d="M1463.11 1514.29 L1481.46 1514.29 L1481.46 1518.22 L1467.39 1518.22 L1467.39 1526.7 Q1468.41 1526.35 1469.43 1526.19 Q1470.45 1526 1471.46 1526 Q1477.25 1526 1480.63 1529.17 Q1484.01 1532.34 1484.01 1537.76 Q1484.01 1543.34 1480.54 1546.44 Q1477.07 1549.52 1470.75 1549.52 Q1468.57 1549.52 1466.3 1549.15 Q1464.06 1548.78 1461.65 1548.04 L1461.65 1543.34 Q1463.73 1544.47 1465.95 1545.03 Q1468.18 1545.58 1470.65 1545.58 Q1474.66 1545.58 1477 1543.48 Q1479.33 1541.37 1479.33 1537.76 Q1479.33 1534.15 1477 1532.04 Q1474.66 1529.94 1470.65 1529.94 Q1468.78 1529.94 1466.9 1530.35 Q1465.05 1530.77 1463.11 1531.65 L1463.11 1514.29 Z" fill="#000000" fill-rule="nonzero" fill-opacity="1" /><path clip-path="url(#clip070)" d="M1853.23 1544.91 L1869.55 1544.91 L1869.55 1548.85 L1847.61 1548.85 L1847.61 1544.91 Q1850.27 1542.16 1854.85 1537.53 Q1859.46 1532.88 1860.64 1531.53 Q1862.88 1529.01 1863.76 1527.27 Q1864.67 1525.51 1864.67 1523.82 Q1864.67 1521.07 1862.72 1519.33 Q1860.8 1517.6 1857.7 1517.6 Q1855.5 1517.6 1853.05 1518.36 Q1850.62 1519.13 1847.84 1520.68 L1847.84 1515.95 Q1850.66 1514.82 1853.12 1514.24 Q1855.57 1513.66 1857.61 1513.66 Q1862.98 1513.66 1866.17 1516.35 Q1869.36 1519.03 1869.36 1523.52 Q1869.36 1525.65 1868.55 1527.57 Q1867.77 1529.47 1865.66 1532.07 Q1865.08 1532.74 1861.98 1535.95 Q1858.88 1539.15 1853.23 1544.91 Z" fill="#000000" fill-rule="nonzero" fill-opacity="1" /><path clip-path="url(#clip070)" d="M1889.36 1517.37 Q1885.75 1517.37 1883.93 1520.93 Q1882.12 1524.47 1882.12 1531.6 Q1882.12 1538.71 1883.93 1542.27 Q1885.75 1545.82 1889.36 1545.82 Q1893 1545.82 1894.8 1542.27 Q1896.63 1538.71 1896.63 1531.6 Q1896.63 1524.47 1894.8 1520.93 Q1893 1517.37 1889.36 1517.37 M1889.36 1513.66 Q1895.17 1513.66 1898.23 1518.27 Q1901.31 1522.85 1901.31 1531.6 Q1901.31 1540.33 1898.23 1544.94 Q1895.17 1549.52 1889.36 1549.52 Q1883.55 1549.52 1880.48 1544.94 Q1877.42 1540.33 1877.42 1531.6 Q1877.42 1522.85 1880.48 1518.27 Q1883.55 1513.66 1889.36 1513.66 Z" fill="#000000" fill-rule="nonzero" fill-opacity="1" /><path clip-path="url(#clip070)" d="M2269.66 1544.91 L2285.98 1544.91 L2285.98 1548.85 L2264.04 1548.85 L2264.04 1544.91 Q2266.7 1542.16 2271.28 1537.53 Q2275.89 1532.88 2277.07 1531.53 Q2279.31 1529.01 2280.19 1527.27 Q2281.1 1525.51 2281.1 1523.82 Q2281.1 1521.07 2279.15 1519.33 Q2277.23 1517.6 2274.13 1517.6 Q2271.93 1517.6 2269.48 1518.36 Q2267.05 1519.13 2264.27 1520.68 L2264.27 1515.95 Q2267.09 1514.82 2269.55 1514.24 Q2272 1513.66 2274.04 1513.66 Q2279.41 1513.66 2282.6 1516.35 Q2285.8 1519.03 2285.8 1523.52 Q2285.8 1525.65 2284.99 1527.57 Q2284.2 1529.47 2282.09 1532.07 Q2281.51 1532.74 2278.41 1535.95 Q2275.31 1539.15 2269.66 1544.91 Z" fill="#000000" fill-rule="nonzero" fill-opacity="1" /><path clip-path="url(#clip070)" d="M2295.84 1514.29 L2314.2 1514.29 L2314.2 1518.22 L2300.12 1518.22 L2300.12 1526.7 Q2301.14 1526.35 2302.16 1526.19 Q2303.18 1526 2304.2 1526 Q2309.99 1526 2313.37 1529.17 Q2316.74 1532.34 2316.74 1537.76 Q2316.74 1543.34 2313.27 1546.44 Q2309.8 1549.52 2303.48 1549.52 Q2301.31 1549.52 2299.04 1549.15 Q2296.79 1548.78 2294.38 1548.04 L2294.38 1543.34 Q2296.47 1544.47 2298.69 1545.03 Q2300.91 1545.58 2303.39 1545.58 Q2307.39 1545.58 2309.73 1543.48 Q2312.07 1541.37 2312.07 1537.76 Q2312.07 1534.15 2309.73 1532.04 Q2307.39 1529.94 2303.39 1529.94 Q2301.51 1529.94 2299.64 1530.35 Q2297.79 1530.77 2295.84 1531.65 L2295.84 1514.29 Z" fill="#000000" fill-rule="nonzero" fill-opacity="1" /><polyline clip-path="url(#clip072)" style="stroke:#000000; stroke-linecap:round; stroke-linejoin:round; stroke-width:2; stroke-opacity:0.1; fill:none" points="149.191,1311.88 2352.76,1311.88 "/>
<polyline clip-path="url(#clip072)" style="stroke:#000000; stroke-linecap:round; stroke-linejoin:round; stroke-width:2; stroke-opacity:0.1; fill:none" points="149.191,1039.36 2352.76,1039.36 "/>
<polyline clip-path="url(#clip072)" style="stroke:#000000; stroke-linecap:round; stroke-linejoin:round; stroke-width:2; stroke-opacity:0.1; fill:none" points="149.191,766.846 2352.76,766.846 "/>
<polyline clip-path="url(#clip072)" style="stroke:#000000; stroke-linecap:round; stroke-linejoin:round; stroke-width:2; stroke-opacity:0.1; fill:none" points="149.191,494.33 2352.76,494.33 "/>
<polyline clip-path="url(#clip072)" style="stroke:#000000; stroke-linecap:round; stroke-linejoin:round; stroke-width:2; stroke-opacity:0.1; fill:none" points="149.191,221.814 2352.76,221.814 "/>
<polyline clip-path="url(#clip070)" style="stroke:#000000; stroke-linecap:round; stroke-linejoin:round; stroke-width:4; stroke-opacity:1; fill:none" points="149.191,1486.45 149.191,47.2441 "/>
<polyline clip-path="url(#clip070)" style="stroke:#000000; stroke-linecap:round; stroke-linejoin:round; stroke-width:4; stroke-opacity:1; fill:none" points="149.191,1311.88 168.089,1311.88 "/>
<polyline clip-path="url(#clip070)" style="stroke:#000000; stroke-linecap:round; stroke-linejoin:round; stroke-width:4; stroke-opacity:1; fill:none" points="149.191,1039.36 168.089,1039.36 "/>
<polyline clip-path="url(#clip070)" style="stroke:#000000; stroke-linecap:round; stroke-linejoin:round; stroke-width:4; stroke-opacity:1; fill:none" points="149.191,766.846 168.089,766.846 "/>
<polyline clip-path="url(#clip070)" style="stroke:#000000; stroke-linecap:round; stroke-linejoin:round; stroke-width:4; stroke-opacity:1; fill:none" points="149.191,494.33 168.089,494.33 "/>
<polyline clip-path="url(#clip070)" style="stroke:#000000; stroke-linecap:round; stroke-linejoin:round; stroke-width:4; stroke-opacity:1; fill:none" points="149.191,221.814 168.089,221.814 "/>
<path clip-path="url(#clip070)" d="M50.9921 1312.33 L80.6679 1312.33 L80.6679 1316.26 L50.9921 1316.26 L50.9921 1312.33 Z" fill="#000000" fill-rule="nonzero" fill-opacity="1" /><path clip-path="url(#clip070)" d="M103.608 1298.67 L91.8021 1317.12 L103.608 1317.12 L103.608 1298.67 M102.381 1294.6 L108.26 1294.6 L108.26 1317.12 L113.191 1317.12 L113.191 1321.01 L108.26 1321.01 L108.26 1329.16 L103.608 1329.16 L103.608 1321.01 L88.0058 1321.01 L88.0058 1316.5 L102.381 1294.6 Z" fill="#000000" fill-rule="nonzero" fill-opacity="1" /><path clip-path="url(#clip070)" d="M53.0754 1039.81 L82.7512 1039.81 L82.7512 1043.75 L53.0754 1043.75 L53.0754 1039.81 Z" fill="#000000" fill-rule="nonzero" fill-opacity="1" /><path clip-path="url(#clip070)" d="M96.8715 1052.71 L113.191 1052.71 L113.191 1056.64 L91.2465 1056.64 L91.2465 1052.71 Q93.9086 1049.95 98.4919 1045.32 Q103.098 1040.67 104.279 1039.33 Q106.524 1036.8 107.404 1035.07 Q108.307 1033.31 108.307 1031.62 Q108.307 1028.86 106.362 1027.13 Q104.441 1025.39 101.339 1025.39 Q99.14 1025.39 96.6863 1026.16 Q94.2558 1026.92 91.478 1028.47 L91.478 1023.75 Q94.3021 1022.61 96.7558 1022.04 Q99.2095 1021.46 101.246 1021.46 Q106.617 1021.46 109.811 1024.14 Q113.006 1026.83 113.006 1031.32 Q113.006 1033.45 112.196 1035.37 Q111.408 1037.27 109.302 1039.86 Q108.723 1040.53 105.621 1043.75 Q102.52 1046.94 96.8715 1052.71 Z" fill="#000000" fill-rule="nonzero" fill-opacity="1" /><path clip-path="url(#clip070)" d="M101.246 752.645 Q97.6354 752.645 95.8067 756.209 Q94.0012 759.751 94.0012 766.881 Q94.0012 773.987 95.8067 777.552 Q97.6354 781.094 101.246 781.094 Q104.881 781.094 106.686 777.552 Q108.515 773.987 108.515 766.881 Q108.515 759.751 106.686 756.209 Q104.881 752.645 101.246 752.645 M101.246 748.941 Q107.057 748.941 110.112 753.547 Q113.191 758.131 113.191 766.881 Q113.191 775.608 110.112 780.214 Q107.057 784.797 101.246 784.797 Q95.4363 784.797 92.3576 780.214 Q89.3021 775.608 89.3021 766.881 Q89.3021 758.131 92.3576 753.547 Q95.4363 748.941 101.246 748.941 Z" fill="#000000" fill-rule="nonzero" fill-opacity="1" /><path clip-path="url(#clip070)" d="M96.8715 507.675 L113.191 507.675 L113.191 511.61 L91.2465 511.61 L91.2465 507.675 Q93.9086 504.92 98.4919 500.291 Q103.098 495.638 104.279 494.295 Q106.524 491.772 107.404 490.036 Q108.307 488.277 108.307 486.587 Q108.307 483.832 106.362 482.096 Q104.441 480.36 101.339 480.36 Q99.14 480.36 96.6863 481.124 Q94.2558 481.888 91.478 483.439 L91.478 478.717 Q94.3021 477.582 96.7558 477.004 Q99.2095 476.425 101.246 476.425 Q106.617 476.425 109.811 479.11 Q113.006 481.795 113.006 486.286 Q113.006 488.416 112.196 490.337 Q111.408 492.235 109.302 494.828 Q108.723 495.499 105.621 498.716 Q102.52 501.911 96.8715 507.675 Z" fill="#000000" fill-rule="nonzero" fill-opacity="1" /><path clip-path="url(#clip070)" d="M103.608 208.608 L91.8021 227.057 L103.608 227.057 L103.608 208.608 M102.381 204.534 L108.26 204.534 L108.26 227.057 L113.191 227.057 L113.191 230.946 L108.26 230.946 L108.26 239.094 L103.608 239.094 L103.608 230.946 L88.0058 230.946 L88.0058 226.432 L102.381 204.534 Z" fill="#000000" fill-rule="nonzero" fill-opacity="1" /><polyline clip-path="url(#clip072)" style="stroke:#000000; stroke-linecap:round; stroke-linejoin:round; stroke-width:8; stroke-opacity:1; fill:none" points="211.556,761.281 212.388,755.718 213.22,750.156 214.052,744.597 214.883,739.042 215.715,733.492 216.547,727.949 217.379,722.412 218.211,716.883 219.043,711.362 219.875,705.852 220.706,700.353 221.538,694.865 222.37,689.39 223.202,683.929 224.034,678.483 224.866,673.052 225.698,667.638 226.53,662.242 227.361,656.864 228.193,651.505 229.025,646.167 229.857,640.85 230.689,635.555 231.521,630.283 232.353,625.035 233.184,619.813 234.016,614.615 234.848,609.445 235.68,604.302 236.512,599.187 237.344,594.102 238.176,589.046 239.008,584.021 239.839,579.028 240.671,574.068 241.503,569.141 242.335,564.247 243.167,559.389 243.999,554.566 244.831,549.779 245.662,545.03 246.494,540.318 247.326,535.645 248.158,531.011 248.99,526.417 249.822,521.863 250.654,517.351 251.486,512.88 252.317,508.452 253.149,504.068 253.981,499.726 254.813,495.43 255.645,491.178 256.477,486.971 257.309,482.811 258.14,478.697 258.972,474.63 259.804,470.611 260.636,466.64 261.468,462.717 262.3,458.843 263.132,455.019 263.964,451.244 264.795,447.52 265.627,443.846 266.459,440.224 267.291,436.653 268.123,433.133 268.955,429.666 269.787,426.251 270.618,422.888 271.45,419.579 272.282,416.322 273.114,413.119 273.946,409.97 274.778,406.875 275.61,403.833 276.442,400.846 277.273,397.913 278.105,395.035 278.937,392.211 279.769,389.442 280.601,386.728 281.433,384.069 282.265,381.464 283.096,378.915 283.928,376.421 284.76,373.981 285.592,371.597 286.424,369.267 287.256,366.992 288.088,364.772 288.92,362.607 289.751,360.497 290.583,358.441 291.415,356.439 292.247,354.491 293.079,352.598 293.911,350.758 294.743,348.972 295.574,347.239 296.406,345.559 297.238,343.933 298.07,342.358 298.902,340.837 299.734,339.367 300.566,337.949 301.398,336.582 302.229,335.267 303.061,334.002 303.893,332.787 304.725,331.622 305.557,330.507 306.389,329.44 307.221,328.422 308.052,327.453 308.884,326.531 309.716,325.656 310.548,324.827 311.38,324.045 312.212,323.309 313.044,322.618 313.876,321.971 314.707,321.368 315.539,320.808 316.371,320.292 317.203,319.817 318.035,319.384 318.867,318.992 319.699,318.641 320.53,318.329 321.362,318.056 322.194,317.821 323.026,317.624 323.858,317.464 324.69,317.34 325.522,317.251 326.354,317.198 327.185,317.178 328.017,317.192 328.849,317.239 329.681,317.317 330.513,317.426 331.345,317.566 332.177,317.735 333.008,317.933 333.84,318.158 334.672,318.411 335.504,318.69 336.336,318.995 337.168,319.324 338,319.677 338.832,320.053 339.663,320.452 340.495,320.872 341.327,321.312 342.159,321.772 342.991,322.25 343.823,322.747 344.655,323.261 345.486,323.791 346.318,324.336 347.15,324.896 347.982,325.469 348.814,326.056 349.646,326.654 350.478,327.263 351.31,327.882 352.141,328.511 352.973,329.148 353.805,329.793 354.637,330.444 355.469,331.102 356.301,331.764 357.133,332.43 357.964,333.1 358.796,333.772 359.628,334.446 360.46,335.12 361.292,335.794 362.124,336.467 362.956,337.139 363.788,337.807 364.619,338.473 365.451,339.133 366.283,339.789 367.115,340.439 367.947,341.082 368.779,341.718 369.611,342.345 370.442,342.963 371.274,343.571 372.106,344.169 372.938,344.755 373.77,345.328 374.602,345.889 375.434,346.436 376.266,346.969 377.097,347.487 377.929,347.989 378.761,348.474 379.593,348.942 380.425,349.392 381.257,349.823 382.089,350.236 382.92,350.628 383.752,350.999 384.584,351.35 385.416,351.679 386.248,351.985 387.08,352.269 387.912,352.528 388.744,352.764 389.575,352.975 390.407,353.161 391.239,353.321 392.071,353.454 392.903,353.561 393.735,353.641 394.567,353.693 395.398,353.717 396.23,353.712 397.062,353.678 397.894,353.614 398.726,353.521 399.558,353.397 400.39,353.243 401.222,353.058 402.053,352.841 402.885,352.593 403.717,352.313 404.549,352 405.381,351.655 406.213,351.277 407.045,350.866 407.876,350.422 408.708,349.944 409.54,349.432 410.372,348.887 411.204,348.308 412.036,347.694 412.868,347.046 413.7,346.364 414.531,345.647 415.363,344.895 416.195,344.109 417.027,343.288 417.859,342.432 418.691,341.541 419.523,340.616 420.354,339.655 421.186,338.66 422.018,337.631 422.85,336.566 423.682,335.467 424.514,334.334 425.346,333.166 426.178,331.965 427.009,330.729 427.841,329.459 428.673,328.155 429.505,326.819 430.337,325.448 431.169,324.045 432.001,322.609 432.832,321.14 433.664,319.64 434.496,318.107 435.328,316.542 436.16,314.947 436.992,313.32 437.824,311.663 438.656,309.975 439.487,308.258 440.319,306.511 441.151,304.735 441.983,302.93 442.815,301.098 443.647,299.238 444.479,297.35 445.31,295.436 446.142,293.495 446.974,291.529 447.806,289.538 448.638,287.522 449.47,285.483 450.302,283.419 451.134,281.333 451.965,279.224 452.797,277.094 453.629,274.943 454.461,272.771 455.293,270.58 456.125,268.369 456.957,266.14 457.788,263.893 458.62,261.629 459.452,259.349 460.284,257.053 461.116,254.742 461.948,252.417 462.78,250.078 463.612,247.727 464.443,245.363 465.275,242.989 466.107,240.604 466.939,238.209 467.771,235.805 468.603,233.394 469.435,230.975 470.266,228.549 471.098,226.118 471.93,223.682 472.762,221.242 473.594,218.799 474.426,216.354 475.258,213.907 476.09,211.46 476.921,209.013 477.753,206.567 478.585,204.122 479.417,201.681 480.249,199.244 481.081,196.811 481.913,194.383 482.744,191.962 483.576,189.548 484.408,187.142 485.24,184.745 486.072,182.358 486.904,179.982 487.736,177.617 488.568,175.265 489.399,172.926 490.231,170.601 491.063,168.292 491.895,165.999 492.727,163.722 493.559,161.464 494.391,159.224 495.222,157.004 496.054,154.804 496.886,152.625 497.718,150.469 498.55,148.336 499.382,146.226 500.214,144.141 501.046,142.082 501.877,140.049 502.709,138.044 503.541,136.066 504.373,134.118 505.205,132.199 506.037,130.311 506.869,128.454 507.7,126.629 508.532,124.838 509.364,123.08 510.196,121.356 511.028,119.668 511.86,118.015 512.692,116.4 513.524,114.822 514.355,113.282 515.187,111.781 516.019,110.32 516.851,108.899 517.683,107.52 518.515,106.182 519.347,104.886 520.178,103.634 521.01,102.425 521.842,101.26 522.674,100.141 523.506,99.067 524.338,98.0393 525.17,97.0582 526.002,96.1245 526.833,95.2387 527.665,94.4013 528.497,93.6128 529.329,92.8738 530.161,92.1848 530.993,91.5462 531.825,90.9585 532.656,90.4222 533.488,89.9378 534.32,89.5056 535.152,89.1262 535.984,88.7997 536.816,88.5268 537.648,88.3077 538.48,88.1427 539.311,88.0323 540.143,87.9767 540.975,87.9763 541.807,88.0313 542.639,88.142 543.471,88.3087 544.303,88.5315 545.134,88.8108 545.966,89.1468 546.798,89.5395 547.63,89.9893 548.462,90.4962 549.294,91.0603 550.126,91.6819 550.958,92.361 551.789,93.0977 552.621,93.8921 553.453,94.7442 554.285,95.6541 555.117,96.6217 555.949,97.6471 556.781,98.7302 557.612,99.8711 558.444,101.07 559.276,102.326 560.108,103.639 560.94,105.011 561.772,106.439 562.604,107.924 563.436,109.467 564.267,111.066 565.099,112.722 565.931,114.434 566.763,116.203 567.595,118.027 568.427,119.908 569.259,121.843 570.09,123.834 570.922,125.879 571.754,127.979 572.586,130.133 573.418,132.341 574.25,134.602 575.082,136.917 575.914,139.284 576.745,141.703 577.577,144.173 578.409,146.695 579.241,149.268 580.073,151.891 580.905,154.564 581.737,157.286 582.568,160.057 583.4,162.877 584.232,165.743 585.064,168.657 585.896,171.618 586.728,174.624 587.56,177.676 588.392,180.772 589.223,183.912 590.055,187.095 590.887,190.321 591.719,193.589 592.551,196.898 593.383,200.248 594.215,203.638 595.046,207.066 595.878,210.533 596.71,214.038 597.542,217.579 598.374,221.157 599.206,224.77 600.038,228.417 600.87,232.097 601.701,235.811 602.533,239.556 603.365,243.333 604.197,247.14 605.029,250.976 605.861,254.841 606.693,258.734 607.524,262.653 608.356,266.598 609.188,270.569 610.02,274.563 610.852,278.581 611.684,282.621 612.516,286.682 613.348,290.764 614.179,294.865 615.011,298.985 615.843,303.122 616.675,307.276 617.507,311.446 618.339,315.63 619.171,319.828 620.002,324.039 620.834,328.262 621.666,332.496 622.498,336.739 623.33,340.992 624.162,345.252 624.994,349.52 625.826,353.793 626.657,358.072 627.489,362.354 628.321,366.64 629.153,370.928 629.985,375.216 630.817,379.505 631.649,383.793 632.48,388.079 633.312,392.363 634.144,396.642 634.976,400.917 635.808,405.186 636.64,409.449 637.472,413.704 638.304,417.95 639.135,422.186 639.967,426.413 640.799,430.627 641.631,434.83 642.463,439.019 643.295,443.194 644.127,447.353 644.958,451.497 645.79,455.624 646.622,459.733 647.454,463.823 648.286,467.893 649.118,471.943 649.95,475.972 650.782,479.978 651.613,483.961 652.445,487.92 653.277,491.855 654.109,495.764 654.941,499.646 655.773,503.502 656.605,507.329 657.436,511.127 658.268,514.896 659.1,518.635 659.932,522.342 660.764,526.018 661.596,529.661 662.428,533.271 663.26,536.847 664.091,540.388 664.923,543.894 665.755,547.364 666.587,550.797 667.419,554.194 668.251,557.552 669.083,560.871 669.914,564.152 670.746,567.393 671.578,570.593 672.41,573.753 673.242,576.872 674.074,579.948 674.906,582.983 675.738,585.974 676.569,588.922 677.401,591.826 678.233,594.686 679.065,597.502 679.897,600.272 680.729,602.997 681.561,605.676 682.392,608.308 683.224,610.894 684.056,613.434 684.888,615.925 685.72,618.37 686.552,620.766 687.384,623.115 688.216,625.415 689.047,627.667 689.879,629.869 690.711,632.023 691.543,634.128 692.375,636.183 693.207,638.189 694.039,640.145 694.87,642.052 695.702,643.909 696.534,645.716 697.366,647.473 698.198,649.18 699.03,650.837 699.862,652.444 700.694,654.001 701.525,655.508 702.357,656.965 703.189,658.372 704.021,659.73 704.853,661.038 705.685,662.296 706.517,663.505 707.348,664.664 708.18,665.775 709.012,666.836 709.844,667.849 710.676,668.813 711.508,669.729 712.34,670.597 713.172,671.417 714.003,672.189 714.835,672.915 715.667,673.593 716.499,674.225 717.331,674.811 718.163,675.35 718.995,675.845 719.826,676.294 720.658,676.698 721.49,677.059 722.322,677.375 723.154,677.648 723.986,677.878 724.818,678.066 725.65,678.212 726.481,678.316 727.313,678.38 728.145,678.403 728.977,678.386 729.809,678.33 730.641,678.235 731.473,678.102 732.304,677.932 733.136,677.724 733.968,677.481 734.8,677.201 735.632,676.887 736.464,676.539 737.296,676.156 738.128,675.741 738.959,675.294 739.791,674.814 740.623,674.304 741.455,673.764 742.287,673.195 743.119,672.596 743.951,671.97 744.782,671.316 745.614,670.636 746.446,669.931 747.278,669.2 748.11,668.445 748.942,667.667 749.774,666.867 750.606,666.045 751.437,665.202 752.269,664.339 753.101,663.456 753.933,662.555 754.765,661.637 755.597,660.702 756.429,659.751 757.26,658.785 758.092,657.805 758.924,656.811 759.756,655.805 760.588,654.787 761.42,653.759 762.252,652.721 763.084,651.673 763.915,650.618 764.747,649.555 765.579,648.486 766.411,647.411 767.243,646.332 768.075,645.249 768.907,644.163 769.738,643.075 770.57,641.985 771.402,640.896 772.234,639.807 773.066,638.719 773.898,637.634 774.73,636.552 775.562,635.474 776.393,634.401 777.225,633.333 778.057,632.272 778.889,631.218 779.721,630.173 780.553,629.137 781.385,628.11 782.216,627.095 783.048,626.09 783.88,625.099 784.712,624.12 785.544,623.155 786.376,622.205 787.208,621.271 788.04,620.353 788.871,619.452 789.703,618.568 790.535,617.704 791.367,616.858 792.199,616.033 793.031,615.228 793.863,614.445 794.694,613.685 795.526,612.947 796.358,612.232 797.19,611.542 798.022,610.877 798.854,610.237 799.686,609.624 800.518,609.037 801.349,608.478 802.181,607.947 803.013,607.444 803.845,606.971 804.677,606.527 805.509,606.114 806.341,605.732 807.172,605.381 808.004,605.062 808.836,604.776 809.668,604.523 810.5,604.303 811.332,604.117 812.164,603.965 812.996,603.848 813.827,603.766 814.659,603.72 815.491,603.709 816.323,603.735 817.155,603.798 817.987,603.898 818.819,604.035 819.65,604.21 820.482,604.422 821.314,604.673 822.146,604.963 822.978,605.291 823.81,605.658 824.642,606.065 825.474,606.511 826.305,606.996 827.137,607.522 827.969,608.087 828.801,608.692 829.633,609.337 830.465,610.023 831.297,610.749 832.128,611.515 832.96,612.322 833.792,613.169 834.624,614.057 835.456,614.985 836.288,615.954 837.12,616.963 837.952,618.013 838.783,619.103 839.615,620.233 840.447,621.404 841.279,622.614 842.111,623.865 842.943,625.155 843.775,626.484 844.606,627.853 845.438,629.262 846.27,630.709 847.102,632.195 847.934,633.719 848.766,635.282 849.598,636.883 850.43,638.521 851.261,640.196 852.093,641.909 852.925,643.658 853.757,645.444 854.589,647.266 855.421,649.123 856.253,651.015 857.084,652.942 857.916,654.903 858.748,656.898 859.58,658.926 860.412,660.987 861.244,663.081 862.076,665.206 862.908,667.363 863.739,669.551 864.571,671.769 865.403,674.017 866.235,676.293 867.067,678.599 867.899,680.932 868.731,683.293 869.562,685.68 870.394,688.094 871.226,690.532 872.058,692.996 872.89,695.484 873.722,697.995 874.554,700.529 875.386,703.085 876.217,705.662 877.049,708.26 877.881,710.878 878.713,713.515 879.545,716.17 880.377,718.843 881.209,721.533 882.04,724.238 882.872,726.959 883.704,729.695 884.536,732.444 885.368,735.206 886.2,737.98 887.032,740.766 887.864,743.561 888.695,746.367 889.527,749.181 890.359,752.003 891.191,754.832 892.023,757.667 892.855,760.508 893.687,763.353 894.518,766.201 895.35,769.053 896.182,771.906 897.014,774.76 897.846,777.615 898.678,780.468 899.51,783.32 900.342,786.169 901.173,789.015 902.005,791.856 902.837,794.693 903.669,797.523 904.501,800.346 905.333,803.161 906.165,805.968 906.996,808.765 907.828,811.551 908.66,814.326 909.492,817.088 910.324,819.837 911.156,822.573 911.988,825.293 912.82,827.997 913.651,830.685 914.483,833.355 915.315,836.007 916.147,838.639 916.979,841.251 917.811,843.843 918.643,846.412 919.474,848.959 920.306,851.482 921.138,853.981 921.97,856.455 922.802,858.903 923.634,861.324 924.466,863.717 925.298,866.082 926.129,868.418 926.961,870.725 927.793,873 928.625,875.244 929.457,877.456 930.289,879.635 931.121,881.781 931.952,883.892 932.784,885.968 933.616,888.008 934.448,890.012 935.28,891.979 936.112,893.908 936.944,895.798 937.776,897.65 938.607,899.462 939.439,901.233 940.271,902.964 941.103,904.653 941.935,906.3 942.767,907.905 943.599,909.466 944.43,910.984 945.262,912.457 946.094,913.886 946.926,915.269 947.758,916.607 948.59,917.898 949.422,919.143 950.254,920.341 951.085,921.491 951.917,922.593 952.749,923.647 953.581,924.652 954.413,925.609 955.245,926.515 956.077,927.373 956.908,928.18 957.74,928.936 958.572,929.643 959.404,930.298 960.236,930.902 961.068,931.455 961.9,931.956 962.732,932.406 963.563,932.803 964.395,933.149 965.227,933.442 966.059,933.683 966.891,933.871 967.723,934.007 968.555,934.09 969.387,934.12 970.218,934.098 971.05,934.022 971.882,933.894 972.714,933.713 973.546,933.48 974.378,933.193 975.21,932.854 976.041,932.463 976.873,932.019 977.705,931.522 978.537,930.973 979.369,930.373 980.201,929.72 981.033,929.015 981.865,928.259 982.696,927.452 983.528,926.593 984.36,925.684 985.192,924.724 986.024,923.713 986.856,922.653 987.688,921.543 988.519,920.384 989.351,919.175 990.183,917.918 991.015,916.613 991.847,915.26 992.679,913.859 993.511,912.412 994.343,910.917 995.174,909.377 996.006,907.791 996.838,906.16 997.67,904.485 998.502,902.765 999.334,901.002 1000.17,899.196 1001,897.347 1001.83,895.456 1002.66,893.524 1003.49,891.552 1004.32,889.539 1005.16,887.487 1005.99,885.397 1006.82,883.268 1007.65,881.102 1008.48,878.899 1009.32,876.66 1010.15,874.386 1010.98,872.077 1011.81,869.734 1012.64,867.359 1013.48,864.95 1014.31,862.511 1015.14,860.04 1015.97,857.54 1016.8,855.01 1017.63,852.452 1018.47,849.866 1019.3,847.254 1020.13,844.616 1020.96,841.952 1021.79,839.265 1022.63,836.554 1023.46,833.82 1024.29,831.065 1025.12,828.29 1025.95,825.494 1026.79,822.68 1027.62,819.847 1028.45,816.998 1029.28,814.132 1030.11,811.251 1030.94,808.356 1031.78,805.447 1032.61,802.526 1033.44,799.593 1034.27,796.65 1035.1,793.697 1035.94,790.735 1036.77,787.766 1037.6,784.79 1038.43,781.808 1039.26,778.822 1040.1,775.831 1040.93,772.838 1041.76,769.842 1042.59,766.846 1043.42,763.85 1044.25,760.854 1045.09,757.861 1045.92,754.87 1046.75,751.884 1047.58,748.902 1048.41,745.926 1049.25,742.957 1050.08,739.995 1050.91,737.042 1051.74,734.099 1052.57,731.166 1053.41,728.245 1054.24,725.336 1055.07,722.441 1055.9,719.56 1056.73,716.694 1057.56,713.845 1058.4,711.012 1059.23,708.198 1060.06,705.402 1060.89,702.627 1061.72,699.872 1062.56,697.138 1063.39,694.427 1064.22,691.74 1065.05,689.076 1065.88,686.438 1066.71,683.826 1067.55,681.24 1068.38,678.682 1069.21,676.152 1070.04,673.652 1070.87,671.181 1071.71,668.741 1072.54,666.333 1073.37,663.958 1074.2,661.615 1075.03,659.306 1075.87,657.032 1076.7,654.793 1077.53,652.59 1078.36,650.424 1079.19,648.295 1080.02,646.205 1080.86,644.153 1081.69,642.14 1082.52,640.168 1083.35,638.236 1084.18,636.345 1085.02,634.496 1085.85,632.69 1086.68,630.927 1087.51,629.207 1088.34,627.532 1089.18,625.901 1090.01,624.315 1090.84,622.775 1091.67,621.28 1092.5,619.833 1093.33,618.432 1094.17,617.079 1095,615.774 1095.83,614.517 1096.66,613.308 1097.49,612.149 1098.33,611.039 1099.16,609.979 1099.99,608.968 1100.82,608.008 1101.65,607.099 1102.49,606.24 1103.32,605.433 1104.15,604.677 1104.98,603.972 1105.81,603.319 1106.64,602.719 1107.48,602.17 1108.31,601.673 1109.14,601.229 1109.97,600.838 1110.8,600.499 1111.64,600.212 1112.47,599.979 1113.3,599.798 1114.13,599.67 1114.96,599.594 1115.8,599.572 1116.63,599.602 1117.46,599.685 1118.29,599.821 1119.12,600.009 1119.95,600.25 1120.79,600.543 1121.62,600.889 1122.45,601.286 1123.28,601.736 1124.11,602.237 1124.95,602.79 1125.78,603.394 1126.61,604.049 1127.44,604.756 1128.27,605.512 1129.1,606.319 1129.94,607.177 1130.77,608.083 1131.6,609.04 1132.43,610.045 1133.26,611.099 1134.1,612.201 1134.93,613.351 1135.76,614.549 1136.59,615.794 1137.42,617.085 1138.26,618.423 1139.09,619.806 1139.92,621.235 1140.75,622.708 1141.58,624.226 1142.41,625.787 1143.25,627.392 1144.08,629.039 1144.91,630.728 1145.74,632.459 1146.57,634.23 1147.41,636.042 1148.24,637.894 1149.07,639.784 1149.9,641.713 1150.73,643.68 1151.57,645.684 1152.4,647.724 1153.23,649.8 1154.06,651.911 1154.89,654.057 1155.72,656.236 1156.56,658.448 1157.39,660.692 1158.22,662.967 1159.05,665.273 1159.88,667.61 1160.72,669.975 1161.55,672.368 1162.38,674.789 1163.21,677.237 1164.04,679.711 1164.88,682.21 1165.71,684.733 1166.54,687.28 1167.37,689.849 1168.2,692.441 1169.03,695.053 1169.87,697.685 1170.7,700.337 1171.53,703.007 1172.36,705.695 1173.19,708.399 1174.03,711.119 1174.86,713.855 1175.69,716.604 1176.52,719.366 1177.35,722.141 1178.19,724.927 1179.02,727.724 1179.85,730.531 1180.68,733.346 1181.51,736.169 1182.34,738.999 1183.18,741.835 1184.01,744.677 1184.84,747.523 1185.67,750.372 1186.5,753.224 1187.34,756.077 1188.17,758.932 1189,761.786 1189.83,764.639 1190.66,767.491 1191.49,770.339 1192.33,773.184 1193.16,776.025 1193.99,778.86 1194.82,781.689 1195.65,784.511 1196.49,787.325 1197.32,790.131 1198.15,792.926 1198.98,795.712 1199.81,798.486 1200.65,801.248 1201.48,803.997 1202.31,806.733 1203.14,809.454 1203.97,812.159 1204.8,814.849 1205.64,817.522 1206.47,820.177 1207.3,822.814 1208.13,825.432 1208.96,828.03 1209.8,830.607 1210.63,833.163 1211.46,835.697 1212.29,838.208 1213.12,840.696 1213.96,843.159 1214.79,845.598 1215.62,848.012 1216.45,850.399 1217.28,852.76 1218.11,855.093 1218.95,857.399 1219.78,859.675 1220.61,861.923 1221.44,864.141 1222.27,866.329 1223.11,868.485 1223.94,870.611 1224.77,872.705 1225.6,874.766 1226.43,876.794 1227.27,878.789 1228.1,880.75 1228.93,882.677 1229.76,884.569 1230.59,886.426 1231.42,888.248 1232.26,890.034 1233.09,891.783 1233.92,893.495 1234.75,895.171 1235.58,896.809 1236.42,898.41 1237.25,899.973 1238.08,901.497 1238.91,902.983 1239.74,904.43 1240.58,905.839 1241.41,907.208 1242.24,908.537 1243.07,909.827 1243.9,911.078 1244.73,912.288 1245.57,913.459 1246.4,914.589 1247.23,915.679 1248.06,916.729 1248.89,917.738 1249.73,918.707 1250.56,919.635 1251.39,920.523 1252.22,921.37 1253.05,922.177 1253.88,922.943 1254.72,923.669 1255.55,924.355 1256.38,925 1257.21,925.605 1258.04,926.17 1258.88,926.696 1259.71,927.181 1260.54,927.627 1261.37,928.034 1262.2,928.401 1263.04,928.729 1263.87,929.019 1264.7,929.27 1265.53,929.482 1266.36,929.657 1267.19,929.794 1268.03,929.894 1268.86,929.957 1269.69,929.983 1270.52,929.972 1271.35,929.926 1272.19,929.844 1273.02,929.727 1273.85,929.575 1274.68,929.389 1275.51,929.169 1276.35,928.916 1277.18,928.629 1278.01,928.311 1278.84,927.96 1279.67,927.578 1280.5,927.165 1281.34,926.721 1282.17,926.248 1283,925.745 1283.83,925.214 1284.66,924.655 1285.5,924.068 1286.33,923.455 1287.16,922.815 1287.99,922.15 1288.82,921.46 1289.66,920.745 1290.49,920.007 1291.32,919.247 1292.15,918.463 1292.98,917.659 1293.81,916.834 1294.65,915.988 1295.48,915.124 1296.31,914.24 1297.14,913.339 1297.97,912.421 1298.81,911.487 1299.64,910.537 1300.47,909.572 1301.3,908.593 1302.13,907.601 1302.97,906.597 1303.8,905.582 1304.63,904.555 1305.46,903.519 1306.29,902.474 1307.12,901.42 1307.96,900.359 1308.79,899.291 1309.62,898.218 1310.45,897.14 1311.28,896.058 1312.12,894.973 1312.95,893.885 1313.78,892.796 1314.61,891.706 1315.44,890.617 1316.27,889.529 1317.11,888.443 1317.94,887.36 1318.77,886.281 1319.6,885.206 1320.43,884.137 1321.27,883.074 1322.1,882.019 1322.93,880.971 1323.76,879.933 1324.59,878.905 1325.43,877.887 1326.26,876.881 1327.09,875.887 1327.92,874.907 1328.75,873.941 1329.58,872.99 1330.42,872.055 1331.25,871.137 1332.08,870.236 1332.91,869.353 1333.74,868.49 1334.58,867.647 1335.41,866.825 1336.24,866.024 1337.07,865.247 1337.9,864.492 1338.74,863.761 1339.57,863.056 1340.4,862.376 1341.23,861.722 1342.06,861.096 1342.89,860.497 1343.73,859.928 1344.56,859.388 1345.39,858.878 1346.22,858.398 1347.05,857.951 1347.89,857.536 1348.72,857.153 1349.55,856.805 1350.38,856.491 1351.21,856.211 1352.05,855.968 1352.88,855.76 1353.71,855.59 1354.54,855.457 1355.37,855.362 1356.2,855.306 1357.04,855.289 1357.87,855.312 1358.7,855.376 1359.53,855.48 1360.36,855.626 1361.2,855.814 1362.03,856.044 1362.86,856.317 1363.69,856.633 1364.52,856.994 1365.36,857.398 1366.19,857.847 1367.02,858.342 1367.85,858.881 1368.68,859.467 1369.51,860.099 1370.35,860.777 1371.18,861.503 1372.01,862.275 1372.84,863.095 1373.67,863.963 1374.51,864.879 1375.34,865.843 1376.17,866.856 1377,867.917 1377.83,869.028 1378.66,870.187 1379.5,871.396 1380.33,872.654 1381.16,873.962 1381.99,875.32 1382.82,876.727 1383.66,878.184 1384.49,879.691 1385.32,881.248 1386.15,882.855 1386.98,884.512 1387.82,886.219 1388.65,887.976 1389.48,889.783 1390.31,891.64 1391.14,893.547 1391.97,895.503 1392.81,897.509 1393.64,899.564 1394.47,901.669 1395.3,903.823 1396.13,906.025 1396.97,908.277 1397.8,910.577 1398.63,912.926 1399.46,915.322 1400.29,917.767 1401.13,920.258 1401.96,922.798 1402.79,925.384 1403.62,928.016 1404.45,930.695 1405.28,933.42 1406.12,936.19 1406.95,939.006 1407.78,941.866 1408.61,944.77 1409.44,947.718 1410.28,950.709 1411.11,953.743 1411.94,956.82 1412.77,959.939 1413.6,963.098 1414.44,966.299 1415.27,969.54 1416.1,972.821 1416.93,976.14 1417.76,979.498 1418.59,982.895 1419.43,986.328 1420.26,989.798 1421.09,993.304 1421.92,996.845 1422.75,1000.42 1423.59,1004.03 1424.42,1007.67 1425.25,1011.35 1426.08,1015.06 1426.91,1018.8 1427.75,1022.56 1428.58,1026.36 1429.41,1030.19 1430.24,1034.05 1431.07,1037.93 1431.9,1041.84 1432.74,1045.77 1433.57,1049.73 1434.4,1053.71 1435.23,1057.72 1436.06,1061.75 1436.9,1065.8 1437.73,1069.87 1438.56,1073.96 1439.39,1078.07 1440.22,1082.19 1441.05,1086.34 1441.89,1090.5 1442.72,1094.67 1443.55,1098.86 1444.38,1103.06 1445.21,1107.28 1446.05,1111.51 1446.88,1115.74 1447.71,1119.99 1448.54,1124.24 1449.37,1128.51 1450.21,1132.77 1451.04,1137.05 1451.87,1141.33 1452.7,1145.61 1453.53,1149.9 1454.36,1154.19 1455.2,1158.48 1456.03,1162.76 1456.86,1167.05 1457.69,1171.34 1458.52,1175.62 1459.36,1179.9 1460.19,1184.17 1461.02,1188.44 1461.85,1192.7 1462.68,1196.95 1463.52,1201.2 1464.35,1205.43 1465.18,1209.65 1466.01,1213.86 1466.84,1218.06 1467.67,1222.25 1468.51,1226.42 1469.34,1230.57 1470.17,1234.71 1471,1238.83 1471.83,1242.93 1472.67,1247.01 1473.5,1251.07 1474.33,1255.11 1475.16,1259.13 1475.99,1263.12 1476.83,1267.09 1477.66,1271.04 1478.49,1274.96 1479.32,1278.85 1480.15,1282.72 1480.98,1286.55 1481.82,1290.36 1482.65,1294.14 1483.48,1297.88 1484.31,1301.59 1485.14,1305.28 1485.98,1308.92 1486.81,1312.54 1487.64,1316.11 1488.47,1319.65 1489.3,1323.16 1490.14,1326.63 1490.97,1330.05 1491.8,1333.44 1492.63,1336.79 1493.46,1340.1 1494.29,1343.37 1495.13,1346.6 1495.96,1349.78 1496.79,1352.92 1497.62,1356.02 1498.45,1359.07 1499.29,1362.07 1500.12,1365.03 1500.95,1367.95 1501.78,1370.82 1502.61,1373.63 1503.44,1376.41 1504.28,1379.13 1505.11,1381.8 1505.94,1384.42 1506.77,1387 1507.6,1389.52 1508.44,1391.99 1509.27,1394.41 1510.1,1396.78 1510.93,1399.09 1511.76,1401.35 1512.6,1403.56 1513.43,1405.71 1514.26,1407.81 1515.09,1409.86 1515.92,1411.85 1516.75,1413.78 1517.59,1415.66 1518.42,1417.49 1519.25,1419.26 1520.08,1420.97 1520.91,1422.63 1521.75,1424.23 1522.58,1425.77 1523.41,1427.25 1524.24,1428.68 1525.07,1430.05 1525.91,1431.37 1526.74,1432.62 1527.57,1433.82 1528.4,1434.96 1529.23,1436.04 1530.06,1437.07 1530.9,1438.04 1531.73,1438.95 1532.56,1439.8 1533.39,1440.59 1534.22,1441.33 1535.06,1442.01 1535.89,1442.63 1536.72,1443.2 1537.55,1443.7 1538.38,1444.15 1539.22,1444.55 1540.05,1444.88 1540.88,1445.16 1541.71,1445.38 1542.54,1445.55 1543.37,1445.66 1544.21,1445.72 1545.04,1445.72 1545.87,1445.66 1546.7,1445.55 1547.53,1445.38 1548.37,1445.17 1549.2,1444.89 1550.03,1444.57 1550.86,1444.19 1551.69,1443.75 1552.53,1443.27 1553.36,1442.73 1554.19,1442.15 1555.02,1441.51 1555.85,1440.82 1556.68,1440.08 1557.52,1439.29 1558.35,1438.45 1559.18,1437.57 1560.01,1436.63 1560.84,1435.65 1561.68,1434.62 1562.51,1433.55 1563.34,1432.43 1564.17,1431.27 1565,1430.06 1565.83,1428.81 1566.67,1427.51 1567.5,1426.17 1568.33,1424.79 1569.16,1423.37 1569.99,1421.91 1570.83,1420.41 1571.66,1418.87 1572.49,1417.29 1573.32,1415.68 1574.15,1414.02 1574.99,1412.34 1575.82,1410.61 1576.65,1408.85 1577.48,1407.06 1578.31,1405.24 1579.14,1403.38 1579.98,1401.49 1580.81,1399.57 1581.64,1397.63 1582.47,1395.65 1583.3,1393.64 1584.14,1391.61 1584.97,1389.55 1585.8,1387.47 1586.63,1385.36 1587.46,1383.22 1588.3,1381.07 1589.13,1378.89 1589.96,1376.69 1590.79,1374.47 1591.62,1372.23 1592.45,1369.97 1593.29,1367.69 1594.12,1365.4 1594.95,1363.09 1595.78,1360.77 1596.61,1358.43 1597.45,1356.08 1598.28,1353.71 1599.11,1351.33 1599.94,1348.95 1600.77,1346.55 1601.61,1344.14 1602.44,1341.73 1603.27,1339.31 1604.1,1336.88 1604.93,1334.45 1605.76,1332.01 1606.6,1329.57 1607.43,1327.13 1608.26,1324.68 1609.09,1322.23 1609.92,1319.78 1610.76,1317.34 1611.59,1314.89 1612.42,1312.45 1613.25,1310.01 1614.08,1307.57 1614.92,1305.14 1615.75,1302.72 1616.58,1300.3 1617.41,1297.89 1618.24,1295.48 1619.07,1293.09 1619.91,1290.7 1620.74,1288.33 1621.57,1285.97 1622.4,1283.61 1623.23,1281.28 1624.07,1278.95 1624.9,1276.64 1625.73,1274.34 1626.56,1272.06 1627.39,1269.8 1628.22,1267.55 1629.06,1265.32 1629.89,1263.11 1630.72,1260.92 1631.55,1258.75 1632.38,1256.6 1633.22,1254.47 1634.05,1252.36 1634.88,1250.27 1635.71,1248.21 1636.54,1246.17 1637.38,1244.15 1638.21,1242.16 1639.04,1240.2 1639.87,1238.26 1640.7,1236.34 1641.53,1234.45 1642.37,1232.59 1643.2,1230.76 1644.03,1228.96 1644.86,1227.18 1645.69,1225.43 1646.53,1223.72 1647.36,1222.03 1648.19,1220.37 1649.02,1218.75 1649.85,1217.15 1650.69,1215.59 1651.52,1214.05 1652.35,1212.55 1653.18,1211.08 1654.01,1209.65 1654.84,1208.24 1655.68,1206.87 1656.51,1205.54 1657.34,1204.23 1658.17,1202.96 1659,1201.73 1659.84,1200.53 1660.67,1199.36 1661.5,1198.22 1662.33,1197.13 1663.16,1196.06 1664,1195.03 1664.83,1194.04 1665.66,1193.08 1666.49,1192.15 1667.32,1191.26 1668.15,1190.4 1668.99,1189.58 1669.82,1188.8 1670.65,1188.05 1671.48,1187.33 1672.31,1186.65 1673.15,1186 1673.98,1185.38 1674.81,1184.8 1675.64,1184.26 1676.47,1183.75 1677.31,1183.27 1678.14,1182.83 1678.97,1182.41 1679.8,1182.04 1680.63,1181.69 1681.46,1181.38 1682.3,1181.1 1683.13,1180.85 1683.96,1180.63 1684.79,1180.45 1685.62,1180.29 1686.46,1180.17 1687.29,1180.08 1688.12,1180.01 1688.95,1179.98 1689.78,1179.98 1690.61,1180 1691.45,1180.05 1692.28,1180.13 1693.11,1180.24 1693.94,1180.37 1694.77,1180.53 1695.61,1180.72 1696.44,1180.93 1697.27,1181.16 1698.1,1181.42 1698.93,1181.71 1699.77,1182.01 1700.6,1182.34 1701.43,1182.69 1702.26,1183.06 1703.09,1183.46 1703.92,1183.87 1704.76,1184.3 1705.59,1184.75 1706.42,1185.22 1707.25,1185.7 1708.08,1186.21 1708.92,1186.72 1709.75,1187.26 1710.58,1187.8 1711.41,1188.36 1712.24,1188.94 1713.08,1189.52 1713.91,1190.12 1714.74,1190.73 1715.57,1191.35 1716.4,1191.97 1717.23,1192.61 1718.07,1193.25 1718.9,1193.9 1719.73,1194.56 1720.56,1195.22 1721.39,1195.88 1722.23,1196.55 1723.06,1197.22 1723.89,1197.9 1724.72,1198.57 1725.55,1199.25 1726.39,1199.92 1727.22,1200.59 1728.05,1201.26 1728.88,1201.93 1729.71,1202.59 1730.54,1203.25 1731.38,1203.9 1732.21,1204.54 1733.04,1205.18 1733.87,1205.81 1734.7,1206.43 1735.54,1207.04 1736.37,1207.64 1737.2,1208.22 1738.03,1208.8 1738.86,1209.36 1739.7,1209.9 1740.53,1210.43 1741.36,1210.95 1742.19,1211.44 1743.02,1211.92 1743.85,1212.38 1744.69,1212.82 1745.52,1213.24 1746.35,1213.64 1747.18,1214.01 1748.01,1214.37 1748.85,1214.7 1749.68,1215 1750.51,1215.28 1751.34,1215.53 1752.17,1215.76 1753,1215.96 1753.84,1216.13 1754.67,1216.27 1755.5,1216.38 1756.33,1216.45 1757.16,1216.5 1758,1216.51 1758.83,1216.49 1759.66,1216.44 1760.49,1216.35 1761.32,1216.23 1762.16,1216.07 1762.99,1215.87 1763.82,1215.64 1764.65,1215.36 1765.48,1215.05 1766.31,1214.7 1767.15,1214.31 1767.98,1213.87 1768.81,1213.4 1769.64,1212.88 1770.47,1212.32 1771.31,1211.72 1772.14,1211.07 1772.97,1210.38 1773.8,1209.65 1774.63,1208.86 1775.47,1208.04 1776.3,1207.16 1777.13,1206.24 1777.96,1205.27 1778.79,1204.25 1779.62,1203.19 1780.46,1202.07 1781.29,1200.91 1782.12,1199.69 1782.95,1198.43 1783.78,1197.11 1784.62,1195.74 1785.45,1194.33 1786.28,1192.86 1787.11,1191.33 1787.94,1189.76 1788.78,1188.13 1789.61,1186.45 1790.44,1184.72 1791.27,1182.93 1792.1,1181.09 1792.93,1179.2 1793.77,1177.25 1794.6,1175.25 1795.43,1173.2 1796.26,1171.08 1797.09,1168.92 1797.93,1166.7 1798.76,1164.42 1799.59,1162.1 1800.42,1159.71 1801.25,1157.27 1802.09,1154.78 1802.92,1152.23 1803.75,1149.62 1804.58,1146.96 1805.41,1144.25 1806.24,1141.48 1807.08,1138.66 1807.91,1135.78 1808.74,1132.85 1809.57,1129.86 1810.4,1126.82 1811.24,1123.72 1812.07,1120.57 1812.9,1117.37 1813.73,1114.11 1814.56,1110.8 1815.39,1107.44 1816.23,1104.03 1817.06,1100.56 1817.89,1097.04 1818.72,1093.47 1819.55,1089.85 1820.39,1086.17 1821.22,1082.45 1822.05,1078.67 1822.88,1074.85 1823.71,1070.98 1824.55,1067.05 1825.38,1063.08 1826.21,1059.06 1827.04,1055 1827.87,1050.88 1828.7,1046.72 1829.54,1042.51 1830.37,1038.26 1831.2,1033.97 1832.03,1029.62 1832.86,1025.24 1833.7,1020.81 1834.53,1016.34 1835.36,1011.83 1836.19,1007.28 1837.02,1002.68 1837.86,998.047 1838.69,993.374 1839.52,988.662 1840.35,983.913 1841.18,979.126 1842.01,974.303 1842.85,969.445 1843.68,964.551 1844.51,959.624 1845.34,954.664 1846.17,949.671 1847.01,944.646 1847.84,939.59 1848.67,934.505 1849.5,929.39 1850.33,924.247 1851.17,919.077 1852,913.879 1852.83,908.657 1853.66,903.409 1854.49,898.137 1855.32,892.842 1856.16,887.525 1856.99,882.187 1857.82,876.828 1858.65,871.45 1859.48,866.054 1860.32,860.64 1861.15,855.209 1861.98,849.763 1862.81,844.302 1863.64,838.827 1864.48,833.339 1865.31,827.84 1866.14,822.33 1866.97,816.809 1867.8,811.28 1868.63,805.743 1869.47,800.2 1870.3,794.65 1871.13,789.095 1871.96,783.536 1872.79,777.974 1873.63,772.411 1874.46,766.846 1875.29,761.281 1876.12,755.718 1876.95,750.156 1877.78,744.597 1878.62,739.042 1879.45,733.492 1880.28,727.949 1881.11,722.412 1881.94,716.883 1882.78,711.362 1883.61,705.852 1884.44,700.353 1885.27,694.865 1886.1,689.39 1886.94,683.929 1887.77,678.483 1888.6,673.052 1889.43,667.638 1890.26,662.242 1891.09,656.864 1891.93,651.505 1892.76,646.167 1893.59,640.85 1894.42,635.555 1895.25,630.283 1896.09,625.035 1896.92,619.813 1897.75,614.615 1898.58,609.445 1899.41,604.302 1900.25,599.187 1901.08,594.102 1901.91,589.046 1902.74,584.021 1903.57,579.028 1904.4,574.068 1905.24,569.141 1906.07,564.247 1906.9,559.389 1907.73,554.566 1908.56,549.779 1909.4,545.03 1910.23,540.318 1911.06,535.645 1911.89,531.011 1912.72,526.417 1913.56,521.863 1914.39,517.351 1915.22,512.88 1916.05,508.452 1916.88,504.068 1917.71,499.726 1918.55,495.43 1919.38,491.178 1920.21,486.971 1921.04,482.811 1921.87,478.697 1922.71,474.63 1923.54,470.611 1924.37,466.64 1925.2,462.717 1926.03,458.843 1926.87,455.019 1927.7,451.244 1928.53,447.52 1929.36,443.846 1930.19,440.224 1931.02,436.653 1931.86,433.133 1932.69,429.666 1933.52,426.251 1934.35,422.888 1935.18,419.579 1936.02,416.322 1936.85,413.119 1937.68,409.97 1938.51,406.875 1939.34,403.833 1940.17,400.846 1941.01,397.913 1941.84,395.035 1942.67,392.211 1943.5,389.442 1944.33,386.728 1945.17,384.069 1946,381.464 1946.83,378.915 1947.66,376.421 1948.49,373.981 1949.33,371.597 1950.16,369.267 1950.99,366.992 1951.82,364.772 1952.65,362.607 1953.48,360.497 1954.32,358.441 1955.15,356.439 1955.98,354.491 1956.81,352.598 1957.64,350.758 1958.48,348.972 1959.31,347.239 1960.14,345.559 1960.97,343.933 1961.8,342.358 1962.64,340.837 1963.47,339.367 1964.3,337.949 1965.13,336.582 1965.96,335.267 1966.79,334.002 1967.63,332.787 1968.46,331.622 1969.29,330.507 1970.12,329.44 1970.95,328.422 1971.79,327.453 1972.62,326.531 1973.45,325.656 1974.28,324.827 1975.11,324.045 1975.95,323.309 1976.78,322.618 1977.61,321.971 1978.44,321.368 1979.27,320.808 1980.1,320.292 1980.94,319.817 1981.77,319.384 1982.6,318.992 1983.43,318.641 1984.26,318.329 1985.1,318.056 1985.93,317.821 1986.76,317.624 1987.59,317.464 1988.42,317.34 1989.26,317.251 1990.09,317.198 1990.92,317.178 1991.75,317.192 1992.58,317.239 1993.41,317.317 1994.25,317.426 1995.08,317.566 1995.91,317.735 1996.74,317.933 1997.57,318.158 1998.41,318.411 1999.24,318.69 2000.07,318.995 2000.9,319.324 2001.73,319.677 2002.56,320.053 2003.4,320.452 2004.23,320.872 2005.06,321.312 2005.89,321.772 2006.72,322.25 2007.56,322.747 2008.39,323.261 2009.22,323.791 2010.05,324.336 2010.88,324.896 2011.72,325.469 2012.55,326.056 2013.38,326.654 2014.21,327.263 2015.04,327.882 2015.87,328.511 2016.71,329.148 2017.54,329.793 2018.37,330.444 2019.2,331.102 2020.03,331.764 2020.87,332.43 2021.7,333.1 2022.53,333.772 2023.36,334.446 2024.19,335.12 2025.03,335.794 2025.86,336.467 2026.69,337.139 2027.52,337.807 2028.35,338.473 2029.18,339.133 2030.02,339.789 2030.85,340.439 2031.68,341.082 2032.51,341.718 2033.34,342.345 2034.18,342.963 2035.01,343.571 2035.84,344.169 2036.67,344.755 2037.5,345.328 2038.34,345.889 2039.17,346.436 2040,346.969 2040.83,347.487 2041.66,347.989 2042.49,348.474 2043.33,348.942 2044.16,349.392 2044.99,349.823 2045.82,350.236 2046.65,350.628 2047.49,350.999 2048.32,351.35 2049.15,351.679 2049.98,351.985 2050.81,352.269 2051.65,352.528 2052.48,352.764 2053.31,352.975 2054.14,353.161 2054.97,353.321 2055.8,353.454 2056.64,353.561 2057.47,353.641 2058.3,353.693 2059.13,353.717 2059.96,353.712 2060.8,353.678 2061.63,353.614 2062.46,353.521 2063.29,353.397 2064.12,353.243 2064.95,353.058 2065.79,352.841 2066.62,352.593 2067.45,352.313 2068.28,352 2069.11,351.655 2069.95,351.277 2070.78,350.866 2071.61,350.422 2072.44,349.944 2073.27,349.432 2074.11,348.887 2074.94,348.308 2075.77,347.694 2076.6,347.046 2077.43,346.364 2078.26,345.647 2079.1,344.895 2079.93,344.109 2080.76,343.288 2081.59,342.432 2082.42,341.541 2083.26,340.616 2084.09,339.655 2084.92,338.66 2085.75,337.631 2086.58,336.566 2087.42,335.467 2088.25,334.334 2089.08,333.166 2089.91,331.965 2090.74,330.729 2091.57,329.459 2092.41,328.155 2093.24,326.819 2094.07,325.448 2094.9,324.045 2095.73,322.609 2096.57,321.14 2097.4,319.64 2098.23,318.107 2099.06,316.542 2099.89,314.947 2100.73,313.32 2101.56,311.663 2102.39,309.975 2103.22,308.258 2104.05,306.511 2104.88,304.735 2105.72,302.93 2106.55,301.098 2107.38,299.238 2108.21,297.35 2109.04,295.436 2109.88,293.495 2110.71,291.529 2111.54,289.538 2112.37,287.522 2113.2,285.483 2114.04,283.419 2114.87,281.333 2115.7,279.224 2116.53,277.094 2117.36,274.943 2118.19,272.771 2119.03,270.58 2119.86,268.369 2120.69,266.14 2121.52,263.893 2122.35,261.629 2123.19,259.349 2124.02,257.053 2124.85,254.742 2125.68,252.417 2126.51,250.078 2127.34,247.727 2128.18,245.363 2129.01,242.989 2129.84,240.604 2130.67,238.209 2131.5,235.805 2132.34,233.394 2133.17,230.975 2134,228.549 2134.83,226.118 2135.66,223.682 2136.5,221.242 2137.33,218.799 2138.16,216.354 2138.99,213.907 2139.82,211.46 2140.65,209.013 2141.49,206.567 2142.32,204.122 2143.15,201.681 2143.98,199.244 2144.81,196.811 2145.65,194.383 2146.48,191.962 2147.31,189.548 2148.14,187.142 2148.97,184.745 2149.81,182.358 2150.64,179.982 2151.47,177.617 2152.3,175.265 2153.13,172.926 2153.96,170.601 2154.8,168.292 2155.63,165.999 2156.46,163.722 2157.29,161.464 2158.12,159.224 2158.96,157.004 2159.79,154.804 2160.62,152.625 2161.45,150.469 2162.28,148.336 2163.12,146.226 2163.95,144.141 2164.78,142.082 2165.61,140.049 2166.44,138.044 2167.27,136.066 2168.11,134.118 2168.94,132.199 2169.77,130.311 2170.6,128.454 2171.43,126.629 2172.27,124.838 2173.1,123.08 2173.93,121.356 2174.76,119.668 2175.59,118.015 2176.43,116.4 2177.26,114.822 2178.09,113.282 2178.92,111.781 2179.75,110.32 2180.58,108.899 2181.42,107.52 2182.25,106.182 2183.08,104.886 2183.91,103.634 2184.74,102.425 2185.58,101.26 2186.41,100.141 2187.24,99.067 2188.07,98.0393 2188.9,97.0582 2189.73,96.1245 2190.57,95.2387 2191.4,94.4013 2192.23,93.6128 2193.06,92.8738 2193.89,92.1848 2194.73,91.5462 2195.56,90.9585 2196.39,90.4222 2197.22,89.9378 2198.05,89.5056 2198.89,89.1262 2199.72,88.7997 2200.55,88.5268 2201.38,88.3077 2202.21,88.1427 2203.04,88.0323 2203.88,87.9767 2204.71,87.9763 2205.54,88.0313 2206.37,88.142 2207.2,88.3087 2208.04,88.5315 2208.87,88.8108 2209.7,89.1468 2210.53,89.5395 2211.36,89.9893 2212.2,90.4962 2213.03,91.0603 2213.86,91.6819 2214.69,92.361 2215.52,93.0977 2216.35,93.8921 2217.19,94.7442 2218.02,95.6541 2218.85,96.6217 2219.68,97.6471 2220.51,98.7302 2221.35,99.8711 2222.18,101.07 2223.01,102.326 2223.84,103.639 2224.67,105.011 2225.51,106.439 2226.34,107.924 2227.17,109.467 2228,111.066 2228.83,112.722 2229.66,114.434 2230.5,116.203 2231.33,118.027 2232.16,119.908 2232.99,121.843 2233.82,123.834 2234.66,125.879 2235.49,127.979 2236.32,130.133 2237.15,132.341 2237.98,134.602 2238.82,136.917 2239.65,139.284 2240.48,141.703 2241.31,144.173 2242.14,146.695 2242.97,149.268 2243.81,151.891 2244.64,154.564 2245.47,157.286 2246.3,160.057 2247.13,162.877 2247.97,165.743 2248.8,168.657 2249.63,171.618 2250.46,174.624 2251.29,177.676 2252.12,180.772 2252.96,183.912 2253.79,187.095 2254.62,190.321 2255.45,193.589 2256.28,196.898 2257.12,200.248 2257.95,203.638 2258.78,207.066 2259.61,210.533 2260.44,214.038 2261.28,217.579 2262.11,221.157 2262.94,224.77 2263.77,228.417 2264.6,232.097 2265.43,235.811 2266.27,239.556 2267.1,243.333 2267.93,247.14 2268.76,250.976 2269.59,254.841 2270.43,258.734 2271.26,262.653 2272.09,266.598 2272.92,270.569 2273.75,274.563 2274.59,278.581 2275.42,282.621 2276.25,286.682 2277.08,290.764 2277.91,294.865 2278.74,298.985 2279.58,303.122 2280.41,307.276 2281.24,311.446 2282.07,315.63 2282.9,319.828 2283.74,324.039 2284.57,328.262 2285.4,332.496 2286.23,336.739 2287.06,340.992 2287.9,345.252 2288.73,349.52 2289.56,353.793 2290.39,358.072 "/>
<polyline clip-path="url(#clip072)" style="stroke:#0000ff; stroke-linecap:round; stroke-linejoin:round; stroke-width:4; stroke-opacity:1; fill:none" points="327.185,353.717 327.185,317.178 "/>
<polyline clip-path="url(#clip072)" style="stroke:#0000ff; stroke-linecap:round; stroke-linejoin:round; stroke-width:4; stroke-opacity:1; fill:none" points="540.975,761.281 540.975,87.9763 "/>
<polyline clip-path="url(#clip072)" style="stroke:#0000ff; stroke-linecap:round; stroke-linejoin:round; stroke-width:4; stroke-opacity:1; fill:none" points="815.491,678.403 815.491,603.709 "/>
<polyline clip-path="url(#clip072)" style="stroke:#0000ff; stroke-linecap:round; stroke-linejoin:round; stroke-width:4; stroke-opacity:1; fill:none" points="1115.8,934.12 1115.8,599.572 "/>
<polyline clip-path="url(#clip072)" style="stroke:#0000ff; stroke-linecap:round; stroke-linejoin:round; stroke-width:4; stroke-opacity:1; fill:none" points="1357.04,929.983 1357.04,855.289 "/>
<polyline clip-path="url(#clip072)" style="stroke:#0000ff; stroke-linecap:round; stroke-linejoin:round; stroke-width:4; stroke-opacity:1; fill:none" points="1689.78,1216.51 1689.78,1179.98 "/>
<polyline clip-path="url(#clip072)" style="stroke:#0000ff; stroke-linecap:round; stroke-linejoin:round; stroke-width:4; stroke-opacity:1; fill:none" points="1990.92,353.717 1990.92,317.178 "/>
<polyline clip-path="url(#clip072)" style="stroke:#0000ff; stroke-linecap:round; stroke-linejoin:round; stroke-width:4; stroke-opacity:1; fill:none" points="2204.71,358.072 2204.71,87.9763 "/>
<polyline clip-path="url(#clip072)" style="stroke:#0000ff; stroke-linecap:round; stroke-linejoin:round; stroke-width:4; stroke-opacity:0.5; fill:none" stroke-dasharray="16, 10" points="327.185,353.717 395.398,353.717 "/>
<polyline clip-path="url(#clip072)" style="stroke:#0000ff; stroke-linecap:round; stroke-linejoin:round; stroke-width:4; stroke-opacity:0.5; fill:none" stroke-dasharray="16, 10" points="211.556,761.281 540.975,761.281 "/>
<polyline clip-path="url(#clip072)" style="stroke:#0000ff; stroke-linecap:round; stroke-linejoin:round; stroke-width:4; stroke-opacity:0.5; fill:none" stroke-dasharray="16, 10" points="728.145,678.403 815.491,678.403 "/>
<polyline clip-path="url(#clip072)" style="stroke:#0000ff; stroke-linecap:round; stroke-linejoin:round; stroke-width:4; stroke-opacity:0.5; fill:none" stroke-dasharray="16, 10" points="969.387,934.12 1115.8,934.12 "/>
<polyline clip-path="url(#clip072)" style="stroke:#0000ff; stroke-linecap:round; stroke-linejoin:round; stroke-width:4; stroke-opacity:0.5; fill:none" stroke-dasharray="16, 10" points="1269.69,929.983 1357.04,929.983 "/>
<polyline clip-path="url(#clip072)" style="stroke:#0000ff; stroke-linecap:round; stroke-linejoin:round; stroke-width:4; stroke-opacity:0.5; fill:none" stroke-dasharray="16, 10" points="1689.78,1216.51 1758,1216.51 "/>
<polyline clip-path="url(#clip072)" style="stroke:#0000ff; stroke-linecap:round; stroke-linejoin:round; stroke-width:4; stroke-opacity:0.5; fill:none" stroke-dasharray="16, 10" points="1990.92,353.717 2059.13,353.717 "/>
<polyline clip-path="url(#clip072)" style="stroke:#0000ff; stroke-linecap:round; stroke-linejoin:round; stroke-width:4; stroke-opacity:0.5; fill:none" stroke-dasharray="16, 10" points="2204.71,358.072 2290.39,358.072 "/>
<polyline clip-path="url(#clip072)" style="stroke:#808080; stroke-linecap:round; stroke-linejoin:round; stroke-width:4; stroke-opacity:1; fill:none" stroke-dasharray="16, 10" points="302.115,335.447 360.864,335.447 "/>
<polyline clip-path="url(#clip072)" style="stroke:#808080; stroke-linecap:round; stroke-linejoin:round; stroke-width:4; stroke-opacity:1; fill:none" stroke-dasharray="16, 10" points="270.188,424.629 639.616,424.629 "/>
<polyline clip-path="url(#clip072)" style="stroke:#808080; stroke-linecap:round; stroke-linejoin:round; stroke-width:4; stroke-opacity:1; fill:none" stroke-dasharray="16, 10" points="771.28,641.056 851.679,641.056 "/>
<polyline clip-path="url(#clip072)" style="stroke:#808080; stroke-linecap:round; stroke-linejoin:round; stroke-width:4; stroke-opacity:1; fill:none" stroke-dasharray="16, 10" points="1042.59,766.846 1190.48,766.846 "/>
<polyline clip-path="url(#clip072)" style="stroke:#808080; stroke-linecap:round; stroke-linejoin:round; stroke-width:4; stroke-opacity:1; fill:none" stroke-dasharray="16, 10" points="1313.9,892.636 1390.75,892.636 "/>
<polyline clip-path="url(#clip072)" style="stroke:#808080; stroke-linecap:round; stroke-linejoin:round; stroke-width:4; stroke-opacity:1; fill:none" stroke-dasharray="16, 10" points="1661.49,1198.24 1724.32,1198.24 "/>
<polyline clip-path="url(#clip072)" style="stroke:#808080; stroke-linecap:round; stroke-linejoin:round; stroke-width:4; stroke-opacity:1; fill:none" stroke-dasharray="16, 10" points="1965.85,335.447 2024.6,335.447 "/>
<polyline clip-path="url(#clip072)" style="stroke:#808080; stroke-linecap:round; stroke-linejoin:round; stroke-width:4; stroke-opacity:1; fill:none" stroke-dasharray="16, 10" points="2135.89,223.024 2262.54,223.024 "/>
<circle clip-path="url(#clip072)" cx="302.115" cy="335.447" r="14.4" fill="#808080" fill-rule="evenodd" fill-opacity="1" stroke="#000000" stroke-opacity="1" stroke-width="3.2"/>
<circle clip-path="url(#clip072)" cx="360.864" cy="335.447" r="14.4" fill="#808080" fill-rule="evenodd" fill-opacity="1" stroke="#000000" stroke-opacity="1" stroke-width="3.2"/>
<circle clip-path="url(#clip072)" cx="270.188" cy="424.629" r="14.4" fill="#808080" fill-rule="evenodd" fill-opacity="1" stroke="#000000" stroke-opacity="1" stroke-width="3.2"/>
<circle clip-path="url(#clip072)" cx="639.616" cy="424.629" r="14.4" fill="#808080" fill-rule="evenodd" fill-opacity="1" stroke="#000000" stroke-opacity="1" stroke-width="3.2"/>
<circle clip-path="url(#clip072)" cx="771.28" cy="641.056" r="14.4" fill="#808080" fill-rule="evenodd" fill-opacity="1" stroke="#000000" stroke-opacity="1" stroke-width="3.2"/>
<circle clip-path="url(#clip072)" cx="851.679" cy="641.056" r="14.4" fill="#808080" fill-rule="evenodd" fill-opacity="1" stroke="#000000" stroke-opacity="1" stroke-width="3.2"/>
<circle clip-path="url(#clip072)" cx="1042.59" cy="766.846" r="14.4" fill="#808080" fill-rule="evenodd" fill-opacity="1" stroke="#000000" stroke-opacity="1" stroke-width="3.2"/>
<circle clip-path="url(#clip072)" cx="1190.48" cy="766.846" r="14.4" fill="#808080" fill-rule="evenodd" fill-opacity="1" stroke="#000000" stroke-opacity="1" stroke-width="3.2"/>
<circle clip-path="url(#clip072)" cx="1313.9" cy="892.636" r="14.4" fill="#808080" fill-rule="evenodd" fill-opacity="1" stroke="#000000" stroke-opacity="1" stroke-width="3.2"/>
<circle clip-path="url(#clip072)" cx="1390.75" cy="892.636" r="14.4" fill="#808080" fill-rule="evenodd" fill-opacity="1" stroke="#000000" stroke-opacity="1" stroke-width="3.2"/>
<circle clip-path="url(#clip072)" cx="1661.49" cy="1198.24" r="14.4" fill="#808080" fill-rule="evenodd" fill-opacity="1" stroke="#000000" stroke-opacity="1" stroke-width="3.2"/>
<circle clip-path="url(#clip072)" cx="1724.32" cy="1198.24" r="14.4" fill="#808080" fill-rule="evenodd" fill-opacity="1" stroke="#000000" stroke-opacity="1" stroke-width="3.2"/>
<circle clip-path="url(#clip072)" cx="1965.85" cy="335.447" r="14.4" fill="#808080" fill-rule="evenodd" fill-opacity="1" stroke="#000000" stroke-opacity="1" stroke-width="3.2"/>
<circle clip-path="url(#clip072)" cx="2024.6" cy="335.447" r="14.4" fill="#808080" fill-rule="evenodd" fill-opacity="1" stroke="#000000" stroke-opacity="1" stroke-width="3.2"/>
<circle clip-path="url(#clip072)" cx="2135.89" cy="223.024" r="14.4" fill="#808080" fill-rule="evenodd" fill-opacity="1" stroke="#000000" stroke-opacity="1" stroke-width="3.2"/>
<circle clip-path="url(#clip072)" cx="2262.54" cy="223.024" r="14.4" fill="#808080" fill-rule="evenodd" fill-opacity="1" stroke="#000000" stroke-opacity="1" stroke-width="3.2"/>
<circle clip-path="url(#clip072)" cx="327.185" cy="317.178" r="14.4" fill="#ff0000" fill-rule="evenodd" fill-opacity="1" stroke="#000000" stroke-opacity="1" stroke-width="3.2"/>
<circle clip-path="url(#clip072)" cx="540.975" cy="87.9763" r="14.4" fill="#ff0000" fill-rule="evenodd" fill-opacity="1" stroke="#000000" stroke-opacity="1" stroke-width="3.2"/>
<circle clip-path="url(#clip072)" cx="815.491" cy="603.709" r="14.4" fill="#ff0000" fill-rule="evenodd" fill-opacity="1" stroke="#000000" stroke-opacity="1" stroke-width="3.2"/>
<circle clip-path="url(#clip072)" cx="1115.8" cy="599.572" r="14.4" fill="#ff0000" fill-rule="evenodd" fill-opacity="1" stroke="#000000" stroke-opacity="1" stroke-width="3.2"/>
<circle clip-path="url(#clip072)" cx="1357.04" cy="855.289" r="14.4" fill="#ff0000" fill-rule="evenodd" fill-opacity="1" stroke="#000000" stroke-opacity="1" stroke-width="3.2"/>
<circle clip-path="url(#clip072)" cx="1689.78" cy="1179.98" r="14.4" fill="#ff0000" fill-rule="evenodd" fill-opacity="1" stroke="#000000" stroke-opacity="1" stroke-width="3.2"/>
<circle clip-path="url(#clip072)" cx="1990.92" cy="317.178" r="14.4" fill="#ff0000" fill-rule="evenodd" fill-opacity="1" stroke="#000000" stroke-opacity="1" stroke-width="3.2"/>
<circle clip-path="url(#clip072)" cx="2204.71" cy="87.9763" r="14.4" fill="#ff0000" fill-rule="evenodd" fill-opacity="1" stroke="#000000" stroke-opacity="1" stroke-width="3.2"/>
<path clip-path="url(#clip070)" d="M222.643 1438.47 L717.558 1438.47 L717.558 1179.27 L222.643 1179.27  Z" fill="#ffffff" fill-rule="evenodd" fill-opacity="1"/>
<polyline clip-path="url(#clip070)" style="stroke:#000000; stroke-linecap:round; stroke-linejoin:round; stroke-width:4; stroke-opacity:1; fill:none" points="222.643,1438.47 717.558,1438.47 717.558,1179.27 222.643,1179.27 222.643,1438.47 "/>
<polyline clip-path="url(#clip070)" style="stroke:#000000; stroke-linecap:round; stroke-linejoin:round; stroke-width:8; stroke-opacity:1; fill:none" points="247.127,1231.11 394.031,1231.11 "/>
<path clip-path="url(#clip070)" d="M436.941 1223.23 L436.941 1227.26 Q435.136 1226.33 433.191 1225.87 Q431.247 1225.41 429.164 1225.41 Q425.992 1225.41 424.395 1226.38 Q422.821 1227.35 422.821 1229.3 Q422.821 1230.78 423.955 1231.64 Q425.09 1232.47 428.515 1233.23 L429.974 1233.56 Q434.511 1234.53 436.409 1236.31 Q438.33 1238.07 438.33 1241.24 Q438.33 1244.85 435.46 1246.96 Q432.613 1249.07 427.613 1249.07 Q425.529 1249.07 423.261 1248.65 Q421.015 1248.26 418.515 1247.45 L418.515 1243.05 Q420.877 1244.27 423.168 1244.9 Q425.46 1245.5 427.705 1245.5 Q430.714 1245.5 432.335 1244.48 Q433.955 1243.44 433.955 1241.57 Q433.955 1239.83 432.775 1238.9 Q431.617 1237.98 427.659 1237.12 L426.177 1236.77 Q422.219 1235.94 420.46 1234.23 Q418.701 1232.49 418.701 1229.48 Q418.701 1225.83 421.293 1223.83 Q423.886 1221.84 428.654 1221.84 Q431.015 1221.84 433.099 1222.19 Q435.182 1222.54 436.941 1223.23 Z" fill="#000000" fill-rule="nonzero" fill-opacity="1" /><path clip-path="url(#clip070)" d="M445.113 1222.47 L449.372 1222.47 L449.372 1248.39 L445.113 1248.39 L445.113 1222.47 M445.113 1212.38 L449.372 1212.38 L449.372 1217.77 L445.113 1217.77 L445.113 1212.38 Z" fill="#000000" fill-rule="nonzero" fill-opacity="1" /><path clip-path="url(#clip070)" d="M475.344 1235.13 Q475.344 1230.5 473.423 1227.95 Q471.524 1225.41 468.075 1225.41 Q464.649 1225.41 462.728 1227.95 Q460.83 1230.5 460.83 1235.13 Q460.83 1239.74 462.728 1242.28 Q464.649 1244.83 468.075 1244.83 Q471.524 1244.83 473.423 1242.28 Q475.344 1239.74 475.344 1235.13 M479.603 1245.18 Q479.603 1251.8 476.663 1255.01 Q473.724 1258.26 467.659 1258.26 Q465.413 1258.26 463.423 1257.91 Q461.432 1257.58 459.557 1256.89 L459.557 1252.75 Q461.432 1253.76 463.261 1254.25 Q465.089 1254.74 466.987 1254.74 Q471.177 1254.74 473.261 1252.54 Q475.344 1250.36 475.344 1245.94 L475.344 1243.83 Q474.024 1246.13 471.964 1247.26 Q469.904 1248.39 467.034 1248.39 Q462.265 1248.39 459.349 1244.76 Q456.432 1241.13 456.432 1235.13 Q456.432 1229.11 459.349 1225.48 Q462.265 1221.84 467.034 1221.84 Q469.904 1221.84 471.964 1222.98 Q474.024 1224.11 475.344 1226.4 L475.344 1222.47 L479.603 1222.47 L479.603 1245.18 Z" fill="#000000" fill-rule="nonzero" fill-opacity="1" /><path clip-path="url(#clip070)" d="M509.927 1232.75 L509.927 1248.39 L505.668 1248.39 L505.668 1232.89 Q505.668 1229.2 504.233 1227.38 Q502.797 1225.55 499.927 1225.55 Q496.478 1225.55 494.487 1227.75 Q492.497 1229.95 492.497 1233.74 L492.497 1248.39 L488.214 1248.39 L488.214 1222.47 L492.497 1222.47 L492.497 1226.5 Q494.024 1224.16 496.085 1223 Q498.168 1221.84 500.876 1221.84 Q505.344 1221.84 507.635 1224.62 Q509.927 1227.38 509.927 1232.75 Z" fill="#000000" fill-rule="nonzero" fill-opacity="1" /><path clip-path="url(#clip070)" d="M530.205 1235.36 Q525.043 1235.36 523.052 1236.54 Q521.061 1237.72 521.061 1240.57 Q521.061 1242.84 522.543 1244.18 Q524.047 1245.5 526.617 1245.5 Q530.158 1245.5 532.288 1243 Q534.441 1240.48 534.441 1236.31 L534.441 1235.36 L530.205 1235.36 M538.7 1233.6 L538.7 1248.39 L534.441 1248.39 L534.441 1244.46 Q532.982 1246.82 530.807 1247.95 Q528.631 1249.07 525.483 1249.07 Q521.501 1249.07 519.14 1246.84 Q516.802 1244.6 516.802 1240.85 Q516.802 1236.47 519.719 1234.25 Q522.658 1232.03 528.469 1232.03 L534.441 1232.03 L534.441 1231.61 Q534.441 1228.67 532.496 1227.08 Q530.575 1225.45 527.08 1225.45 Q524.858 1225.45 522.751 1225.99 Q520.645 1226.52 518.7 1227.58 L518.7 1223.65 Q521.038 1222.75 523.237 1222.31 Q525.436 1221.84 527.52 1221.84 Q533.144 1221.84 535.922 1224.76 Q538.7 1227.68 538.7 1233.6 Z" fill="#000000" fill-rule="nonzero" fill-opacity="1" /><path clip-path="url(#clip070)" d="M547.473 1212.38 L551.732 1212.38 L551.732 1248.39 L547.473 1248.39 L547.473 1212.38 Z" fill="#000000" fill-rule="nonzero" fill-opacity="1" /><polyline clip-path="url(#clip070)" style="stroke:#0000ff; stroke-linecap:round; stroke-linejoin:round; stroke-width:4; stroke-opacity:1; fill:none" points="247.127,1282.95 394.031,1282.95 "/>
<path clip-path="url(#clip070)" d="M422.798 1296.35 L422.798 1310.1 L418.515 1310.1 L418.515 1274.31 L422.798 1274.31 L422.798 1278.24 Q424.14 1275.93 426.177 1274.82 Q428.238 1273.68 431.085 1273.68 Q435.807 1273.68 438.747 1277.43 Q441.71 1281.18 441.71 1287.29 Q441.71 1293.41 438.747 1297.16 Q435.807 1300.91 431.085 1300.91 Q428.238 1300.91 426.177 1299.79 Q424.14 1298.66 422.798 1296.35 M437.289 1287.29 Q437.289 1282.6 435.344 1279.93 Q433.423 1277.25 430.043 1277.25 Q426.664 1277.25 424.719 1279.93 Q422.798 1282.6 422.798 1287.29 Q422.798 1291.99 424.719 1294.68 Q426.664 1297.34 430.043 1297.34 Q433.423 1297.34 435.344 1294.68 Q437.289 1291.99 437.289 1287.29 Z" fill="#000000" fill-rule="nonzero" fill-opacity="1" /><path clip-path="url(#clip070)" d="M463.793 1278.29 Q463.075 1277.87 462.219 1277.69 Q461.386 1277.48 460.367 1277.48 Q456.756 1277.48 454.812 1279.84 Q452.89 1282.18 452.89 1286.58 L452.89 1300.23 L448.608 1300.23 L448.608 1274.31 L452.89 1274.31 L452.89 1278.34 Q454.233 1275.98 456.386 1274.84 Q458.538 1273.68 461.617 1273.68 Q462.057 1273.68 462.589 1273.75 Q463.122 1273.8 463.77 1273.92 L463.793 1278.29 Z" fill="#000000" fill-rule="nonzero" fill-opacity="1" /><path clip-path="url(#clip070)" d="M477.265 1277.29 Q473.839 1277.29 471.849 1279.98 Q469.858 1282.64 469.858 1287.29 Q469.858 1291.95 471.825 1294.63 Q473.816 1297.29 477.265 1297.29 Q480.668 1297.29 482.659 1294.61 Q484.649 1291.92 484.649 1287.29 Q484.649 1282.69 482.659 1280 Q480.668 1277.29 477.265 1277.29 M477.265 1273.68 Q482.821 1273.68 485.992 1277.29 Q489.163 1280.91 489.163 1287.29 Q489.163 1293.66 485.992 1297.29 Q482.821 1300.91 477.265 1300.91 Q471.686 1300.91 468.515 1297.29 Q465.367 1293.66 465.367 1287.29 Q465.367 1280.91 468.515 1277.29 Q471.686 1273.68 477.265 1273.68 Z" fill="#000000" fill-rule="nonzero" fill-opacity="1" /><path clip-path="url(#clip070)" d="M516.408 1279.29 Q518.006 1276.42 520.228 1275.05 Q522.45 1273.68 525.459 1273.68 Q529.51 1273.68 531.709 1276.53 Q533.908 1279.35 533.908 1284.59 L533.908 1300.23 L529.626 1300.23 L529.626 1284.73 Q529.626 1281 528.307 1279.19 Q526.987 1277.39 524.279 1277.39 Q520.969 1277.39 519.047 1279.59 Q517.126 1281.79 517.126 1285.58 L517.126 1300.23 L512.844 1300.23 L512.844 1284.73 Q512.844 1280.98 511.524 1279.19 Q510.205 1277.39 507.45 1277.39 Q504.186 1277.39 502.265 1279.61 Q500.344 1281.81 500.344 1285.58 L500.344 1300.23 L496.061 1300.23 L496.061 1274.31 L500.344 1274.31 L500.344 1278.34 Q501.802 1275.95 503.839 1274.82 Q505.876 1273.68 508.677 1273.68 Q511.501 1273.68 513.469 1275.12 Q515.459 1276.55 516.408 1279.29 Z" fill="#000000" fill-rule="nonzero" fill-opacity="1" /><path clip-path="url(#clip070)" d="M542.404 1274.31 L546.663 1274.31 L546.663 1300.23 L542.404 1300.23 L542.404 1274.31 M542.404 1264.22 L546.663 1264.22 L546.663 1269.61 L542.404 1269.61 L542.404 1264.22 Z" fill="#000000" fill-rule="nonzero" fill-opacity="1" /><path clip-path="url(#clip070)" d="M577.126 1284.59 L577.126 1300.23 L572.867 1300.23 L572.867 1284.73 Q572.867 1281.04 571.431 1279.22 Q569.996 1277.39 567.126 1277.39 Q563.677 1277.39 561.686 1279.59 Q559.695 1281.79 559.695 1285.58 L559.695 1300.23 L555.413 1300.23 L555.413 1274.31 L559.695 1274.31 L559.695 1278.34 Q561.223 1276 563.283 1274.84 Q565.367 1273.68 568.075 1273.68 Q572.542 1273.68 574.834 1276.46 Q577.126 1279.22 577.126 1284.59 Z" fill="#000000" fill-rule="nonzero" fill-opacity="1" /><path clip-path="url(#clip070)" d="M607.797 1286.21 L607.797 1288.29 L588.214 1288.29 Q588.491 1292.69 590.853 1295 Q593.237 1297.29 597.473 1297.29 Q599.927 1297.29 602.218 1296.69 Q604.533 1296.09 606.802 1294.89 L606.802 1298.91 Q604.51 1299.89 602.102 1300.4 Q599.695 1300.91 597.218 1300.91 Q591.015 1300.91 587.38 1297.29 Q583.769 1293.68 583.769 1287.53 Q583.769 1281.16 587.195 1277.43 Q590.644 1273.68 596.477 1273.68 Q601.709 1273.68 604.741 1277.06 Q607.797 1280.42 607.797 1286.21 M603.538 1284.96 Q603.491 1281.46 601.57 1279.38 Q599.672 1277.29 596.524 1277.29 Q592.959 1277.29 590.806 1279.31 Q588.677 1281.32 588.353 1284.98 L603.538 1284.96 Z" fill="#000000" fill-rule="nonzero" fill-opacity="1" /><path clip-path="url(#clip070)" d="M636.338 1284.59 L636.338 1300.23 L632.079 1300.23 L632.079 1284.73 Q632.079 1281.04 630.644 1279.22 Q629.209 1277.39 626.338 1277.39 Q622.889 1277.39 620.899 1279.59 Q618.908 1281.79 618.908 1285.58 L618.908 1300.23 L614.626 1300.23 L614.626 1274.31 L618.908 1274.31 L618.908 1278.34 Q620.436 1276 622.496 1274.84 Q624.579 1273.68 627.288 1273.68 Q631.755 1273.68 634.047 1276.46 Q636.338 1279.22 636.338 1284.59 Z" fill="#000000" fill-rule="nonzero" fill-opacity="1" /><path clip-path="url(#clip070)" d="M663.491 1275.3 L663.491 1279.29 Q661.685 1278.29 659.857 1277.8 Q658.051 1277.29 656.199 1277.29 Q652.056 1277.29 649.764 1279.93 Q647.473 1282.55 647.473 1287.29 Q647.473 1292.04 649.764 1294.68 Q652.056 1297.29 656.199 1297.29 Q658.051 1297.29 659.857 1296.81 Q661.685 1296.3 663.491 1295.3 L663.491 1299.24 Q661.709 1300.07 659.787 1300.49 Q657.889 1300.91 655.736 1300.91 Q649.88 1300.91 646.431 1297.23 Q642.982 1293.54 642.982 1287.29 Q642.982 1280.95 646.454 1277.32 Q649.949 1273.68 656.014 1273.68 Q657.982 1273.68 659.857 1274.1 Q661.732 1274.49 663.491 1275.3 Z" fill="#000000" fill-rule="nonzero" fill-opacity="1" /><path clip-path="url(#clip070)" d="M693.074 1286.21 L693.074 1288.29 L673.491 1288.29 Q673.769 1292.69 676.13 1295 Q678.514 1297.29 682.75 1297.29 Q685.204 1297.29 687.496 1296.69 Q689.81 1296.09 692.079 1294.89 L692.079 1298.91 Q689.787 1299.89 687.38 1300.4 Q684.972 1300.91 682.496 1300.91 Q676.292 1300.91 672.658 1297.29 Q669.047 1293.68 669.047 1287.53 Q669.047 1281.16 672.472 1277.43 Q675.922 1273.68 681.755 1273.68 Q686.986 1273.68 690.019 1277.06 Q693.074 1280.42 693.074 1286.21 M688.815 1284.96 Q688.769 1281.46 686.847 1279.38 Q684.949 1277.29 681.801 1277.29 Q678.236 1277.29 676.084 1279.31 Q673.954 1281.32 673.63 1284.98 L688.815 1284.96 Z" fill="#000000" fill-rule="nonzero" fill-opacity="1" /><polyline clip-path="url(#clip070)" style="stroke:#808080; stroke-linecap:round; stroke-linejoin:round; stroke-width:4; stroke-opacity:1; fill:none" stroke-dasharray="16, 10" points="247.127,1334.79 394.031,1334.79 "/>
<path clip-path="url(#clip070)" d="M418.515 1326.15 L422.775 1326.15 L428.099 1346.38 L433.4 1326.15 L438.423 1326.15 L443.747 1346.38 L449.048 1326.15 L453.307 1326.15 L446.525 1352.07 L441.501 1352.07 L435.923 1330.82 L430.321 1352.07 L425.298 1352.07 L418.515 1326.15 Z" fill="#000000" fill-rule="nonzero" fill-opacity="1" /><path clip-path="url(#clip070)" d="M459.765 1326.15 L464.024 1326.15 L464.024 1352.07 L459.765 1352.07 L459.765 1326.15 M459.765 1316.06 L464.024 1316.06 L464.024 1321.45 L459.765 1321.45 L459.765 1316.06 Z" fill="#000000" fill-rule="nonzero" fill-opacity="1" /><path clip-path="url(#clip070)" d="M489.997 1330.08 L489.997 1316.06 L494.256 1316.06 L494.256 1352.07 L489.997 1352.07 L489.997 1348.19 Q488.654 1350.5 486.594 1351.63 Q484.557 1352.75 481.686 1352.75 Q476.987 1352.75 474.024 1349 Q471.085 1345.25 471.085 1339.13 Q471.085 1333.02 474.024 1329.27 Q476.987 1325.52 481.686 1325.52 Q484.557 1325.52 486.594 1326.66 Q488.654 1327.77 489.997 1330.08 M475.483 1339.13 Q475.483 1343.83 477.404 1346.52 Q479.348 1349.18 482.728 1349.18 Q486.108 1349.18 488.052 1346.52 Q489.997 1343.83 489.997 1339.13 Q489.997 1334.44 488.052 1331.77 Q486.108 1329.09 482.728 1329.09 Q479.348 1329.09 477.404 1331.77 Q475.483 1334.44 475.483 1339.13 Z" fill="#000000" fill-rule="nonzero" fill-opacity="1" /><path clip-path="url(#clip070)" d="M507.242 1318.79 L507.242 1326.15 L516.015 1326.15 L516.015 1329.46 L507.242 1329.46 L507.242 1343.53 Q507.242 1346.7 508.098 1347.61 Q508.978 1348.51 511.64 1348.51 L516.015 1348.51 L516.015 1352.07 L511.64 1352.07 Q506.709 1352.07 504.834 1350.25 Q502.959 1348.39 502.959 1343.53 L502.959 1329.46 L499.834 1329.46 L499.834 1326.15 L502.959 1326.15 L502.959 1318.79 L507.242 1318.79 Z" fill="#000000" fill-rule="nonzero" fill-opacity="1" /><path clip-path="url(#clip070)" d="M543.168 1336.43 L543.168 1352.07 L538.908 1352.07 L538.908 1336.57 Q538.908 1332.88 537.473 1331.06 Q536.038 1329.23 533.168 1329.23 Q529.719 1329.23 527.728 1331.43 Q525.737 1333.63 525.737 1337.42 L525.737 1352.07 L521.455 1352.07 L521.455 1316.06 L525.737 1316.06 L525.737 1330.18 Q527.265 1327.84 529.325 1326.68 Q531.408 1325.52 534.117 1325.52 Q538.584 1325.52 540.876 1328.3 Q543.168 1331.06 543.168 1336.43 Z" fill="#000000" fill-rule="nonzero" fill-opacity="1" /><circle clip-path="url(#clip070)" cx="320.579" cy="1386.63" r="20.48" fill="#ff0000" fill-rule="evenodd" fill-opacity="1" stroke="#000000" stroke-opacity="1" stroke-width="4.55111"/>
<path clip-path="url(#clip070)" d="M438.863 1382.97 Q440.46 1380.1 442.682 1378.73 Q444.904 1377.36 447.913 1377.36 Q451.964 1377.36 454.163 1380.21 Q456.363 1383.03 456.363 1388.27 L456.363 1403.91 L452.08 1403.91 L452.08 1388.41 Q452.08 1384.68 450.761 1382.87 Q449.441 1381.07 446.733 1381.07 Q443.423 1381.07 441.501 1383.27 Q439.58 1385.47 439.58 1389.26 L439.58 1403.91 L435.298 1403.91 L435.298 1388.41 Q435.298 1384.66 433.978 1382.87 Q432.659 1381.07 429.904 1381.07 Q426.64 1381.07 424.719 1383.29 Q422.798 1385.49 422.798 1389.26 L422.798 1403.91 L418.515 1403.91 L418.515 1377.99 L422.798 1377.99 L422.798 1382.02 Q424.256 1379.63 426.293 1378.5 Q428.33 1377.36 431.131 1377.36 Q433.955 1377.36 435.923 1378.8 Q437.914 1380.23 438.863 1382.97 Z" fill="#000000" fill-rule="nonzero" fill-opacity="1" /><path clip-path="url(#clip070)" d="M476.64 1390.88 Q471.478 1390.88 469.487 1392.06 Q467.497 1393.24 467.497 1396.09 Q467.497 1398.36 468.978 1399.7 Q470.483 1401.02 473.052 1401.02 Q476.594 1401.02 478.723 1398.52 Q480.876 1396 480.876 1391.83 L480.876 1390.88 L476.64 1390.88 M485.135 1389.12 L485.135 1403.91 L480.876 1403.91 L480.876 1399.98 Q479.418 1402.34 477.242 1403.47 Q475.066 1404.59 471.918 1404.59 Q467.937 1404.59 465.575 1402.36 Q463.237 1400.12 463.237 1396.37 Q463.237 1391.99 466.154 1389.77 Q469.094 1387.55 474.904 1387.55 L480.876 1387.55 L480.876 1387.13 Q480.876 1384.19 478.932 1382.6 Q477.011 1380.97 473.515 1380.97 Q471.293 1380.97 469.187 1381.51 Q467.08 1382.04 465.136 1383.1 L465.136 1379.17 Q467.474 1378.27 469.673 1377.83 Q471.872 1377.36 473.955 1377.36 Q479.58 1377.36 482.358 1380.28 Q485.135 1383.2 485.135 1389.12 Z" fill="#000000" fill-rule="nonzero" fill-opacity="1" /><path clip-path="url(#clip070)" d="M515.459 1377.99 L506.084 1390.6 L515.946 1403.91 L510.922 1403.91 L503.376 1393.73 L495.83 1403.91 L490.807 1403.91 L500.876 1390.35 L491.663 1377.99 L496.686 1377.99 L503.561 1387.22 L510.436 1377.99 L515.459 1377.99 Z" fill="#000000" fill-rule="nonzero" fill-opacity="1" /><path clip-path="url(#clip070)" d="M521.964 1377.99 L526.223 1377.99 L526.223 1403.91 L521.964 1403.91 L521.964 1377.99 M521.964 1367.9 L526.223 1367.9 L526.223 1373.29 L521.964 1373.29 L521.964 1367.9 Z" fill="#000000" fill-rule="nonzero" fill-opacity="1" /><path clip-path="url(#clip070)" d="M555.32 1382.97 Q556.918 1380.1 559.14 1378.73 Q561.362 1377.36 564.371 1377.36 Q568.422 1377.36 570.621 1380.21 Q572.82 1383.03 572.82 1388.27 L572.82 1403.91 L568.538 1403.91 L568.538 1388.41 Q568.538 1384.68 567.218 1382.87 Q565.899 1381.07 563.191 1381.07 Q559.88 1381.07 557.959 1383.27 Q556.038 1385.47 556.038 1389.26 L556.038 1403.91 L551.756 1403.91 L551.756 1388.41 Q551.756 1384.66 550.436 1382.87 Q549.117 1381.07 546.362 1381.07 Q543.098 1381.07 541.177 1383.29 Q539.256 1385.49 539.256 1389.26 L539.256 1403.91 L534.973 1403.91 L534.973 1377.99 L539.256 1377.99 L539.256 1382.02 Q540.714 1379.63 542.751 1378.5 Q544.788 1377.36 547.589 1377.36 Q550.413 1377.36 552.381 1378.8 Q554.371 1380.23 555.32 1382.97 Z" fill="#000000" fill-rule="nonzero" fill-opacity="1" /><path clip-path="url(#clip070)" d="M593.098 1390.88 Q587.936 1390.88 585.945 1392.06 Q583.954 1393.24 583.954 1396.09 Q583.954 1398.36 585.436 1399.7 Q586.941 1401.02 589.51 1401.02 Q593.052 1401.02 595.181 1398.52 Q597.334 1396 597.334 1391.83 L597.334 1390.88 L593.098 1390.88 M601.593 1389.12 L601.593 1403.91 L597.334 1403.91 L597.334 1399.98 Q595.876 1402.34 593.7 1403.47 Q591.524 1404.59 588.376 1404.59 Q584.394 1404.59 582.033 1402.36 Q579.695 1400.12 579.695 1396.37 Q579.695 1391.99 582.612 1389.77 Q585.552 1387.55 591.362 1387.55 L597.334 1387.55 L597.334 1387.13 Q597.334 1384.19 595.39 1382.6 Q593.468 1380.97 589.973 1380.97 Q587.751 1380.97 585.644 1381.51 Q583.538 1382.04 581.593 1383.1 L581.593 1379.17 Q583.931 1378.27 586.13 1377.83 Q588.329 1377.36 590.413 1377.36 Q596.038 1377.36 598.815 1380.28 Q601.593 1383.2 601.593 1389.12 Z" fill="#000000" fill-rule="nonzero" fill-opacity="1" /></svg>
