<svg class="main-svg" xmlns="http://www.w3.org/2000/svg" xmlns:xlink="http://www.w3.org/1999/xlink" width="700" height="500" style="" viewBox="0 0 700 500"><rect x="0" y="0" width="700" height="500" style="fill: rgb(255, 255, 255); fill-opacity: 1;"/><defs id="defs-8f32d9"><g class="clips"><clipPath id="clip8f32d9xyplot" class="plotclip"><rect width="653" height="463"/></clipPath><clipPath class="axesclip" id="clip8f32d9x"><rect x="37" y="0" width="653" height="500"/></clipPath><clipPath class="axesclip" id="clip8f32d9y"><rect x="0" y="10" width="700" height="463"/></clipPath><clipPath class="axesclip" id="clip8f32d9xy"><rect x="37" y="10" width="653" height="463"/></clipPath></g><g class="gradients"/></defs><g class="bglayer"><rect class="bg" x="37" y="10" width="653" height="463" style="fill: rgb(229, 236, 246); fill-opacity: 1; stroke-width: 0;"/></g><g class="layer-below"><g class="imagelayer"/><g class="shapelayer"/></g><g class="cartesianlayer"><g class="subplot xy"><g class="layer-subplot"><g class="shapelayer"/><g class="imagelayer"/></g><g class="gridlayer"><g class="x"><path class="xgrid crisp" transform="translate(173.04,0)" d="M0,10v463" style="stroke: rgb(255, 255, 255); stroke-opacity: 1; stroke-width: 1px;"/><path class="xgrid crisp" transform="translate(309.08,0)" d="M0,10v463" style="stroke: rgb(255, 255, 255); stroke-opacity: 1; stroke-width: 1px;"/><path class="xgrid crisp" transform="translate(445.13,0)" d="M0,10v463" style="stroke: rgb(255, 255, 255); stroke-opacity: 1; stroke-width: 1px;"/><path class="xgrid crisp" transform="translate(581.17,0)" d="M0,10v463" style="stroke: rgb(255, 255, 255); stroke-opacity: 1; stroke-width: 1px;"/></g><g class="y"><path class="ygrid crisp" transform="translate(0,430.1)" d="M37,0h653" style="stroke: rgb(255, 255, 255); stroke-opacity: 1; stroke-width: 1px;"/><path class="ygrid crisp" transform="translate(0,331.82)" d="M37,0h653" style="stroke: rgb(255, 255, 255); stroke-opacity: 1; stroke-width: 1px;"/><path class="ygrid crisp" transform="translate(0,135.26999999999998)" d="M37,0h653" style="stroke: rgb(255, 255, 255); stroke-opacity: 1; stroke-width: 1px;"/><path class="ygrid crisp" transform="translate(0,37)" d="M37,0h653" style="stroke: rgb(255, 255, 255); stroke-opacity: 1; stroke-width: 1px;"/></g></g><g class="zerolinelayer"><path class="xzl zl crisp" transform="translate(37,0)" d="M0,10v463" style="stroke: rgb(255, 255, 255); stroke-opacity: 1; stroke-width: 2px;"/><path class="yzl zl crisp" transform="translate(0,233.55)" d="M37,0h653" style="stroke: rgb(255, 255, 255); stroke-opacity: 1; stroke-width: 2px;"/></g><path class="xlines-below"/><path class="ylines-below"/><g class="overlines-below"/><g class="xaxislayer-below"/><g class="yaxislayer-below"/><g class="overaxes-below"/><g class="plot" transform="translate(37,10)" clip-path="url('#clip8f32d9xyplot')"><g class="scatterlayer mlayer"><g class="trace scatter trace49aa05" style="stroke-miterlimit: 2; opacity: 1;"><g class="fills"/><g class="errorbars"/><g class="lines"><path class="js-line" d="M0,358.97L10.61,372.67L10.88,372.98L21.49,384.03L21.77,384.28L29.93,390.87L30.2,391.06L38.36,395.91L38.64,396.05L46.53,399.06L46.8,399.13L54.96,400.48L55.23,400.49L63.12,400.08L63.4,400.03L70.47,398.23L70.74,398.14L79.18,394.25L79.45,394.1L88.43,387.94L88.7,387.72L97.95,379.27L98.22,379L110.19,365.1L110.47,364.75L123.53,346.11L123.8,345.69L138.49,320.95L138.76,320.46L154.54,290.32L154.82,289.77L178.76,239.35L179.03,238.75L225.29,139.31L225.56,138.76L243.24,105.02L243.51,104.54L259.02,78.82L259.3,78.41L271,61.99L271.27,61.64L282.69,48.45L282.97,48.17L291.67,40.16L291.95,39.94L300.38,33.98L300.65,33.82L308.81,29.81L309.09,29.7L317.25,27.45L317.52,27.41L324.32,26.9L324.6,26.91L332.76,27.96L333.03,28.03L341.19,30.88L341.46,31.01L347.99,34.57L348.27,34.75L356.16,40.55L356.43,40.78L365.68,49.6L365.95,49.89L375.75,61.49L376.02,61.84L386.36,76.43L386.63,76.84L399.96,98.87L400.23,99.36L410.3,118.11L410.57,118.63L422.55,142.91L422.82,143.48L446.49,195.99L446.76,196.62L497.37,312.81L497.64,313.4L512.88,344.92L513.15,345.46L527.57,372.17L527.84,372.64L539.54,391.55L539.81,391.96L552.33,409.04L552.6,409.37L562.67,420.5L562.94,420.76L571.38,428.17L571.65,428.37L579.81,433.79L580.08,433.95L587.97,437.51L588.24,437.6L595.32,439.37L595.59,439.42L603.21,439.8L603.48,439.79L611.64,438.46L611.92,438.39L620.35,435.15L620.62,435.01L627.97,430.67L628.24,430.48L637.22,423.31L637.49,423.06L647.29,413L647.56,412.69L653,406.14" style="vector-effect: non-scaling-stroke; fill: none; stroke: rgb(99, 110, 250); stroke-opacity: 1; stroke-width: 2px; opacity: 1;"/></g><g class="points"/><g class="text"/></g><g class="trace scatter trace7bd08c" style="stroke-miterlimit: 2; opacity: 1;"><g class="fills"/><g class="errorbars"/><g class="lines"/><g class="points"><path class="point" transform="translate(324.05,26.9)" d="M3,0A3,3 0 1,1 0,-3A3,3 0 0,1 3,0Z" style="opacity: 1; stroke-width: 0px; fill: rgb(239, 85, 59); fill-opacity: 1;"/></g><g class="text"/></g></g></g><g class="overplot"/><path class="xlines-above crisp" d="M0,0" style="fill: none;"/><path class="ylines-above crisp" d="M0,0" style="fill: none;"/><g class="overlines-above"/><g class="xaxislayer-above"><g class="xtick"><text text-anchor="middle" x="0" y="487" transform="translate(37,0)" style="font-family: 'Open Sans', verdana, arial, sans-serif; font-size: 13px; fill: rgb(42, 63, 95); fill-opacity: 1; white-space: pre;">0</text></g><g class="xtick"><text text-anchor="middle" x="0" y="487" transform="translate(173.04,0)" style="font-family: 'Open Sans', verdana, arial, sans-serif; font-size: 13px; fill: rgb(42, 63, 95); fill-opacity: 1; white-space: pre;">500</text></g><g class="xtick"><text text-anchor="middle" x="0" y="487" transform="translate(309.08,0)" style="font-family: 'Open Sans', verdana, arial, sans-serif; font-size: 13px; fill: rgb(42, 63, 95); fill-opacity: 1; white-space: pre;">1000</text></g><g class="xtick"><text text-anchor="middle" x="0" y="487" transform="translate(445.13,0)" style="font-family: 'Open Sans', verdana, arial, sans-serif; font-size: 13px; fill: rgb(42, 63, 95); fill-opacity: 1; white-space: pre;">1500</text></g><g class="xtick"><text text-anchor="middle" x="0" y="487" transform="translate(581.17,0)" style="font-family: 'Open Sans', verdana, arial, sans-serif; font-size: 13px; fill: rgb(42, 63, 95); fill-opacity: 1; white-space: pre;">2000</text></g></g><g class="yaxislayer-above"><g class="ytick"><text text-anchor="end" x="36" y="4.55" transform="translate(0,430.1)" style="font-family: 'Open Sans', verdana, arial, sans-serif; font-size: 13px; fill: rgb(42, 63, 95); fill-opacity: 1; white-space: pre;">−1</text></g><g class="ytick"><text text-anchor="end" x="36" y="4.55" transform="translate(0,331.82)" style="font-family: 'Open Sans', verdana, arial, sans-serif; font-size: 13px; fill: rgb(42, 63, 95); fill-opacity: 1; white-space: pre;">−0.5</text></g><g class="ytick"><text text-anchor="end" x="36" y="4.55" transform="translate(0,233.55)" style="font-family: 'Open Sans', verdana, arial, sans-serif; font-size: 13px; fill: rgb(42, 63, 95); fill-opacity: 1; white-space: pre;">0</text></g><g class="ytick"><text text-anchor="end" x="36" y="4.55" transform="translate(0,135.26999999999998)" style="font-family: 'Open Sans', verdana, arial, sans-serif; font-size: 13px; fill: rgb(42, 63, 95); fill-opacity: 1; white-space: pre;">0.5</text></g><g class="ytick"><text text-anchor="end" x="36" y="4.55" transform="translate(0,37)" style="font-family: 'Open Sans', verdana, arial, sans-serif; font-size: 13px; fill: rgb(42, 63, 95); fill-opacity: 1; white-space: pre;">1</text></g></g><g class="overaxes-above"/></g></g><g class="polarlayer"/><g class="ternarylayer"/><g class="geolayer"/><g class="funnelarealayer"/><g class="pielayer"/><g class="treemaplayer"/><g class="sunburstlayer"/><g class="glimages"/><defs id="topdefs-8f32d9"><g class="clips"/></defs><g class="layer-above"><g class="imagelayer"/><g class="shapelayer"><path data-index="0" fill-rule="evenodd" d="M37,410.54L690,410.54" clip-path="url('#clip8f32d9y')" style="opacity: 1; stroke: rgb(89, 105, 112); stroke-opacity: 0.4; fill: rgb(0, 0, 0); fill-opacity: 0; stroke-dasharray: 9px, 9px; stroke-width: 2px;"/><path data-index="1" fill-rule="evenodd" d="M37,36.9L690,36.9" clip-path="url('#clip8f32d9y')" style="opacity: 1; stroke: rgb(89, 105, 112); stroke-opacity: 0.4; fill: rgb(0, 0, 0); fill-opacity: 0; stroke-dasharray: 9px, 9px; stroke-width: 2px;"/></g></g><g class="infolayer"><g class="g-gtitle"/><g class="g-xtitle"/><g class="g-ytitle"/><g class="annotation" data-index="0" style="opacity: 1;"><g class="annotation-text-g" transform="rotate(0,527.62,298.45)"><g class="cursor-pointer" transform="translate(524,289)"><rect class="bg" x="0.5" y="0.5" width="7" height="18" style="stroke-width: 1px; stroke: rgb(0, 0, 0); stroke-opacity: 0; fill: rgb(0, 0, 0); fill-opacity: 0;"/><text class="annotation-text" text-anchor="middle" x="3.8125" y="14" style="font-family: 'Open Sans', verdana, arial, sans-serif; font-size: 13px; fill: rgb(42, 63, 95); fill-opacity: 1; white-space: pre;"> </text></g></g><g class="annotation-arrow-g" style="opacity: 1;"><path d="M523.62,298.45L192.74,298.45" style="stroke-width: 2px; stroke: rgb(42, 63, 95); stroke-opacity: 1; stroke-dasharray: 0px, 2.6px, 325.68px, 330.88px;"/><path d="M-3.7,-2.5V2.5L1.3,0Z" transform="translate(521.02001953125,298.4500427246094)rotate(-0.017489553642710168)scale(2)" style="fill: rgb(42, 63, 95); stroke-width: 0;"/><path d="M-3.7,-2.5V2.5L1.3,0Z" transform="translate(195.3400115966797,298.45001220703125)rotate(180)scale(2)" style="fill: rgb(42, 63, 95); stroke-width: 0;"/></g></g><g class="annotation" data-index="1" style="opacity: 1;"><g class="annotation-text-g" transform="rotate(0,91.69,27.4)"><g class="cursor-pointer" transform="translate(88,18)"><rect class="bg" x="0.5" y="0.5" width="7" height="18" style="stroke-width: 1px; stroke: rgb(0, 0, 0); stroke-opacity: 0; fill: rgb(0, 0, 0); fill-opacity: 0;"/><text class="annotation-text" text-anchor="middle" x="3.8125" y="14" style="font-family: 'Open Sans', verdana, arial, sans-serif; font-size: 13px; fill: rgb(42, 63, 95); fill-opacity: 1; white-space: pre;"> </text></g></g><g class="annotation-arrow-g" style="opacity: 1;"><path d="M91.69,36.9L91.69,410.54" style="stroke-width: 2px; stroke: rgb(42, 63, 95); stroke-opacity: 1; stroke-dasharray: 0px, 2.6px, 368.44px, 373.64px;"/><path d="M-3.7,-2.5V2.5L1.3,0Z" transform="translate(91.69001770019531,39.5)rotate(-90.00874277547395)scale(2)" style="fill: rgb(42, 63, 95); stroke-width: 0;"/><path d="M-3.7,-2.5V2.5L1.3,0Z" transform="translate(91.69000244140625,407.94000244140625)rotate(90)scale(2)" style="fill: rgb(42, 63, 95); stroke-width: 0;"/></g></g><g class="annotation" data-index="2" style="opacity: 1;"><g class="annotation-text-g" transform="rotate(0,136.19,52.5)"><g class="cursor-pointer" transform="translate(100,43)"><rect class="bg" x="0.5" y="0.5" width="72" height="18" style="stroke-width: 1px; stroke: rgb(0, 0, 0); stroke-opacity: 0; fill: rgb(0, 0, 0); fill-opacity: 0;"/><text class="annotation-text" text-anchor="middle" x="36.6875" y="14" style="font-family: 'Open Sans', verdana, arial, sans-serif; font-size: 13px; fill: rgb(42, 63, 95); fill-opacity: 1; white-space: pre;">Prominence</text></g></g></g><g class="annotation" data-index="3" style="opacity: 1;"><g class="annotation-text-g" transform="rotate(0,568.9200000000001,54.400000000000006)"><g class="cursor-pointer" transform="translate(513,42)"><rect class="bg" x="0.5" y="0.5" width="110" height="24" style="stroke-width: 1px; stroke: rgb(0, 0, 0); stroke-opacity: 0; fill: rgb(242, 242, 242); fill-opacity: 1;"/><text class="annotation-text" text-anchor="middle" x="55.71875" y="16" style="font-family: JuliaMono, SFMono-Regular, Menlo, Consolas, 'Liberation Mono', 'DejaVu Sans Mono', monospace; font-size: 13px; fill: rgb(42, 63, 95); fill-opacity: 1; white-space: pre;">relheight = 0</text></g></g></g><g class="annotation" data-index="4" style="opacity: 1;"><g class="annotation-text-g" transform="rotate(0,440.12,283.95)"><g class="cursor-pointer" transform="translate(377,271)"><rect class="bg" x="0.5" y="0.5" width="126" height="24" style="stroke-width: 1px; stroke: rgb(0, 0, 0); stroke-opacity: 0; fill: rgb(242, 242, 242); fill-opacity: 1;"/><text class="annotation-text" text-anchor="middle" x="63.515625" y="16" style="font-family: JuliaMono, SFMono-Regular, Menlo, Consolas, 'Liberation Mono', 'DejaVu Sans Mono', monospace; font-size: 13px; fill: rgb(42, 63, 95); fill-opacity: 1; white-space: pre;">relheight = 0.7</text></g></g></g><g class="annotation" data-index="5" style="opacity: 1;"><g class="annotation-text-g" transform="rotate(0,491.83000000000004,393.04)"><g class="cursor-pointer" transform="translate(436,381)"><rect class="bg" x="0.5" y="0.5" width="111" height="24" style="stroke-width: 1px; stroke: rgb(0, 0, 0); stroke-opacity: 0; fill: rgb(242, 242, 242); fill-opacity: 1;"/><text class="annotation-text" text-anchor="middle" x="55.71875" y="16" style="font-family: JuliaMono, SFMono-Regular, Menlo, Consolas, 'Liberation Mono', 'DejaVu Sans Mono', monospace; font-size: 13px; fill: rgb(42, 63, 95); fill-opacity: 1; white-space: pre;">relheight = 1</text></g></g></g><g class="annotation" data-index="6" style="opacity: 1;"><g class="annotation-text-g" transform="rotate(0,277.63,316.95)"><g class="cursor-pointer" transform="translate(214,304)"><rect class="bg" x="0.5" y="0.5" width="126" height="24" style="stroke-width: 1px; stroke: rgb(0, 0, 0); stroke-opacity: 0; fill: rgb(242, 242, 242); fill-opacity: 1;"/><text class="annotation-text" text-anchor="middle" x="63.515625" y="16" style="font-family: JuliaMono, SFMono-Regular, Menlo, Consolas, 'Liberation Mono', 'DejaVu Sans Mono', monospace; font-size: 13px; fill: rgb(42, 63, 95); fill-opacity: 1; white-space: pre;">width = 1216.09</text></g></g></g></g></svg>