<svg class="main-svg" xmlns="http://www.w3.org/2000/svg" xmlns:xlink="http://www.w3.org/1999/xlink" width="700" height="500" style="" viewBox="0 0 700 500"><rect x="0" y="0" width="700" height="500" style="fill: rgb(255, 255, 255); fill-opacity: 1;"/><defs id="defs-8f5e8e"><g class="clips"><clipPath id="clip8f5e8exyplot" class="plotclip"><rect width="663" height="462"/></clipPath><clipPath class="axesclip" id="clip8f5e8ex"><rect x="27" y="0" width="663" height="500"/></clipPath><clipPath class="axesclip" id="clip8f5e8ey"><rect x="0" y="10" width="700" height="462"/></clipPath><clipPath class="axesclip" id="clip8f5e8exy"><rect x="27" y="10" width="663" height="462"/></clipPath></g><g class="gradients"/></defs><g class="bglayer"><rect class="bg" x="27" y="10" width="663" height="462" style="fill: rgb(229, 236, 246); fill-opacity: 1; stroke-width: 0;"/></g><g class="layer-below"><g class="imagelayer"/><g class="shapelayer"/></g><g class="cartesianlayer"><g class="subplot xy"><g class="layer-subplot"><g class="shapelayer"/><g class="imagelayer"/></g><g class="gridlayer"><g class="x"><path class="xgrid crisp" transform="translate(48.620000000000005,0)" d="M0,10v462" style="stroke: rgb(255, 255, 255); stroke-opacity: 1; stroke-width: 1px;"/><path class="xgrid crisp" transform="translate(139.26,0)" d="M0,10v462" style="stroke: rgb(255, 255, 255); stroke-opacity: 1; stroke-width: 1px;"/><path class="xgrid crisp" transform="translate(229.89,0)" d="M0,10v462" style="stroke: rgb(255, 255, 255); stroke-opacity: 1; stroke-width: 1px;"/><path class="xgrid crisp" transform="translate(320.53,0)" d="M0,10v462" style="stroke: rgb(255, 255, 255); stroke-opacity: 1; stroke-width: 1px;"/><path class="xgrid crisp" transform="translate(411.16,0)" d="M0,10v462" style="stroke: rgb(255, 255, 255); stroke-opacity: 1; stroke-width: 1px;"/><path class="xgrid crisp" transform="translate(501.8,0)" d="M0,10v462" style="stroke: rgb(255, 255, 255); stroke-opacity: 1; stroke-width: 1px;"/><path class="xgrid crisp" transform="translate(592.44,0)" d="M0,10v462" style="stroke: rgb(255, 255, 255); stroke-opacity: 1; stroke-width: 1px;"/><path class="xgrid crisp" transform="translate(683.07,0)" d="M0,10v462" style="stroke: rgb(255, 255, 255); stroke-opacity: 1; stroke-width: 1px;"/></g><g class="y"><path class="ygrid crisp" transform="translate(0,402.91)" d="M27,0h663" style="stroke: rgb(255, 255, 255); stroke-opacity: 1; stroke-width: 1px;"/><path class="ygrid crisp" transform="translate(0,316.91)" d="M27,0h663" style="stroke: rgb(255, 255, 255); stroke-opacity: 1; stroke-width: 1px;"/><path class="ygrid crisp" transform="translate(0,144.91)" d="M27,0h663" style="stroke: rgb(255, 255, 255); stroke-opacity: 1; stroke-width: 1px;"/><path class="ygrid crisp" transform="translate(0,58.9)" d="M27,0h663" style="stroke: rgb(255, 255, 255); stroke-opacity: 1; stroke-width: 1px;"/></g></g><g class="zerolinelayer"><path class="yzl zl crisp" transform="translate(0,230.91)" d="M27,0h663" style="stroke: rgb(255, 255, 255); stroke-opacity: 1; stroke-width: 2px;"/></g><path class="xlines-below"/><path class="ylines-below"/><g class="overlines-below"/><g class="xaxislayer-below"/><g class="yaxislayer-below"/><g class="overaxes-below"/><g class="plot" transform="translate(27,10)" clip-path="url('#clip8f5e8exyplot')"><g class="scatterlayer mlayer"><g class="trace scatter trace9cede5" style="stroke-miterlimit: 2; opacity: 1;"><g class="fills"/><g class="errorbars"/><g class="lines"><path class="js-line" d="M21.62,220.91L35.22,193.89L35.67,193.08L43.37,180.93L43.83,180.32L49.72,173.64L50.17,173.23L55.16,169.73L55.61,169.51L60.14,168.19L60.59,168.15L65.13,168.66L65.58,168.8L70.11,171.11L70.56,171.42L75.55,175.9L76,176.39L82.35,184.64L82.8,185.31L90.96,199.08L91.41,199.92L119.51,252.3L119.96,252.98L126.76,261.92L127.21,262.43L133.1,267.88L133.56,268.21L138.99,271.19L139.45,271.35L144.43,272.36L144.89,272.38L149.87,271.86L150.32,271.75L156.21,269.48L156.67,269.24L164.83,264.04L165.28,263.71L182.95,251.49L183.41,251.27L189.75,249.11L190.2,249.03L195.64,249.06L196.09,249.14L200.63,250.78L201.08,251.02L206.06,254.71L206.52,255.14L211.96,261.51L212.41,262.14L218.3,271.77L218.75,272.62L225.1,285.91L225.55,286.96L234.61,310.18L235.07,311.44L251.38,359.32L251.84,360.65L263.17,391.98L263.62,393.12L271.32,410.61L271.78,411.51L278.12,422.53L278.57,423.19L284.46,430.21L284.92,430.62L289.45,433.77L289.9,433.98L293.98,435.1L294.43,435.13L298.51,434.67L298.97,434.53L303.5,432.28L303.95,431.97L308.94,427.64L309.39,427.16L315.73,419.35L316.19,418.72L326.16,403.1L326.61,402.33L345.64,371.54L346.1,370.91L353.8,361.57L354.25,361.1L361.05,355.42L361.51,355.13L367.4,352.33L367.85,352.19L373.29,351.3L373.74,351.29L380.09,352.03L380.54,352.14L388.7,355.07L389.15,355.27L405.01,361.91L405.46,362.03L411.81,362.81L412.26,362.79L417.25,361.83L417.7,361.67L422.68,358.95L423.14,358.61L428.12,353.86L428.58,353.33L434.01,345.64L434.47,344.89L440.36,333.53L440.81,332.54L447.16,316.89L447.61,315.65L455.77,290.91L456.22,289.41L467.55,248.79L468,247.08L495.19,146.48L495.65,145.03L504.26,120.13L504.71,118.97L511.51,103.57L511.96,102.68L517.85,92.67L518.31,92.02L523.74,85.55L524.2,85.12L529.64,81.17L530.09,80.93L535.53,79.2L535.98,79.14L541.42,79.24L541.87,79.31L548.67,81.26L549.12,81.43L570.42,89.98L570.87,90.07L576.77,90.5L577.22,90.47L582.66,89.34L583.11,89.18L588.55,86.4L589,86.09L594.89,81.17L595.35,80.71L602.14,72.74L602.6,72.14L611.21,59.3L611.66,58.56L633.41,23.1" style="vector-effect: non-scaling-stroke; fill: none; stroke: rgb(99, 110, 250); stroke-opacity: 1; stroke-width: 2px; opacity: 1;"/></g><g class="points"/><g class="text"/></g><g class="trace scatter tracea1c9f7" style="stroke-miterlimit: 2; opacity: 1;"><g class="fills"/><g class="errorbars"/><g class="lines"/><g class="points"><path class="point" transform="translate(61.5,168.12)" d="M3,0A3,3 0 1,1 0,-3A3,3 0 0,1 3,0Z" style="opacity: 1; stroke-width: 0px; fill: rgb(239, 85, 59); fill-opacity: 1;"/><path class="point" transform="translate(538.25,79)" d="M3,0A3,3 0 1,1 0,-3A3,3 0 0,1 3,0Z" style="opacity: 1; stroke-width: 0px; fill: rgb(239, 85, 59); fill-opacity: 1;"/></g><g class="text"/></g><g class="trace scatter trace1aa73c" style="stroke-miterlimit: 2; opacity: 1;"><g class="fills"/><g class="errorbars"/><g class="lines"/><g class="points"><path class="point" transform="translate(192.92,248.82)" d="M3,0A3,3 0 1,1 0,-3A3,3 0 0,1 3,0Z" style="opacity: 1; stroke-width: 0px; fill: rgb(128, 0, 128); fill-opacity: 1;"/></g><g class="text"/></g><g class="trace scatter trace7a9c82" style="stroke-miterlimit: 2; opacity: 1;"><g class="fills"/><g class="errorbars"/><g class="lines"/><g class="points"><path class="point" transform="translate(374.19,351.29)" d="M3,0A3,3 0 1,1 0,-3A3,3 0 0,1 3,0Z" style="opacity: 1; stroke-width: 0px; fill: rgb(128, 128, 128); fill-opacity: 1;"/></g><g class="text"/></g><g class="trace scatter tracedd2263" style="stroke-miterlimit: 2; opacity: 1;"><g class="fills"/><g class="errorbars"/><g class="lines"/><g class="points"><path class="point" transform="translate(145.34,272.39)" d="M3,0A3,3 0 1,1 0,-3A3,3 0 0,1 3,0Z" style="opacity: 1; stroke-width: 0px; fill: rgb(0, 0, 255); fill-opacity: 1;"/><path class="point" transform="translate(294.89,435.15)" d="M3,0A3,3 0 1,1 0,-3A3,3 0 0,1 3,0Z" style="opacity: 1; stroke-width: 0px; fill: rgb(0, 0, 255); fill-opacity: 1;"/></g><g class="text"/></g></g></g><g class="overplot"/><path class="xlines-above crisp" d="M0,0" style="fill: none;"/><path class="ylines-above crisp" d="M0,0" style="fill: none;"/><g class="overlines-above"/><g class="xaxislayer-above"><g class="xtick"><text text-anchor="middle" x="0" y="487" transform="translate(48.620000000000005,0)" style="font-family: 'Open Sans', verdana, arial, sans-serif; font-size: 14px; fill: rgb(42, 63, 95); fill-opacity: 1; white-space: pre;">10</text></g><g class="xtick"><text text-anchor="middle" x="0" y="487" transform="translate(139.26,0)" style="font-family: 'Open Sans', verdana, arial, sans-serif; font-size: 14px; fill: rgb(42, 63, 95); fill-opacity: 1; white-space: pre;">12</text></g><g class="xtick"><text text-anchor="middle" x="0" y="487" transform="translate(229.89,0)" style="font-family: 'Open Sans', verdana, arial, sans-serif; font-size: 14px; fill: rgb(42, 63, 95); fill-opacity: 1; white-space: pre;">14</text></g><g class="xtick"><text text-anchor="middle" x="0" y="487" transform="translate(320.53,0)" style="font-family: 'Open Sans', verdana, arial, sans-serif; font-size: 14px; fill: rgb(42, 63, 95); fill-opacity: 1; white-space: pre;">16</text></g><g class="xtick"><text text-anchor="middle" x="0" y="487" transform="translate(411.16,0)" style="font-family: 'Open Sans', verdana, arial, sans-serif; font-size: 14px; fill: rgb(42, 63, 95); fill-opacity: 1; white-space: pre;">18</text></g><g class="xtick"><text text-anchor="middle" x="0" y="487" transform="translate(501.8,0)" style="font-family: 'Open Sans', verdana, arial, sans-serif; font-size: 14px; fill: rgb(42, 63, 95); fill-opacity: 1; white-space: pre;">20</text></g><g class="xtick"><text text-anchor="middle" x="0" y="487" transform="translate(592.44,0)" style="font-family: 'Open Sans', verdana, arial, sans-serif; font-size: 14px; fill: rgb(42, 63, 95); fill-opacity: 1; white-space: pre;">22</text></g><g class="xtick"><text text-anchor="middle" x="0" y="487" transform="translate(683.07,0)" style="font-family: 'Open Sans', verdana, arial, sans-serif; font-size: 14px; fill: rgb(42, 63, 95); fill-opacity: 1; white-space: pre;">24</text></g></g><g class="yaxislayer-above"><g class="ytick"><text text-anchor="end" x="26" y="4.8999999999999995" transform="translate(0,402.91)" style="font-family: 'Open Sans', verdana, arial, sans-serif; font-size: 14px; fill: rgb(42, 63, 95); fill-opacity: 1; white-space: pre;">−4</text></g><g class="ytick"><text text-anchor="end" x="26" y="4.8999999999999995" transform="translate(0,316.91)" style="font-family: 'Open Sans', verdana, arial, sans-serif; font-size: 14px; fill: rgb(42, 63, 95); fill-opacity: 1; white-space: pre;">−2</text></g><g class="ytick"><text text-anchor="end" x="26" y="4.8999999999999995" transform="translate(0,230.91)" style="font-family: 'Open Sans', verdana, arial, sans-serif; font-size: 14px; fill: rgb(42, 63, 95); fill-opacity: 1; white-space: pre;">0</text></g><g class="ytick"><text text-anchor="end" x="26" y="4.8999999999999995" transform="translate(0,144.91)" style="font-family: 'Open Sans', verdana, arial, sans-serif; font-size: 14px; fill: rgb(42, 63, 95); fill-opacity: 1; white-space: pre;">2</text></g><g class="ytick"><text text-anchor="end" x="26" y="4.8999999999999995" transform="translate(0,58.9)" style="font-family: 'Open Sans', verdana, arial, sans-serif; font-size: 14px; fill: rgb(42, 63, 95); fill-opacity: 1; white-space: pre;">4</text></g></g><g class="overaxes-above"/></g></g><g class="polarlayer"/><g class="ternarylayer"/><g class="geolayer"/><g class="funnelarealayer"/><g class="pielayer"/><g class="treemaplayer"/><g class="sunburstlayer"/><g class="glimages"/><defs id="topdefs-8f5e8e"><g class="clips"/></defs><g class="layer-above"><g class="imagelayer"/><g class="shapelayer"><path data-index="0" fill-rule="evenodd" d="M27,258.82L690,258.82" clip-path="url('#clip8f5e8ey')" style="opacity: 1; stroke: rgb(89, 105, 112); stroke-opacity: 0.4; fill: rgb(0, 0, 0); fill-opacity: 0; stroke-dasharray: 9px, 9px; stroke-width: 2.5px;"/><path data-index="1" fill-rule="evenodd" d="M172.34,282.39L226.72,282.39" clip-path="url('#clip8f5e8exy')" style="opacity: 1; stroke: rgb(0, 0, 255); stroke-opacity: 1; fill: rgb(0, 0, 0); fill-opacity: 0; stroke-width: 1.5px;"/></g></g><g class="infolayer"><g class="g-gtitle"/><g class="g-xtitle"/><g class="g-ytitle"/><g class="annotation" data-index="0" style="opacity: 1;"><g class="annotation-text-g" transform="rotate(0,601.5,268.82)"><g class="cursor-pointer" transform="translate(513,259)"><rect class="bg" x="0.5" y="0.5" width="176" height="19" style="stroke-width: 1px; stroke: rgb(0, 0, 0); stroke-opacity: 0; fill: rgb(0, 0, 0); fill-opacity: 0;"/><text class="annotation-text" text-anchor="middle" x="88.359375" y="15" style="font-family: 'Open Sans', verdana, arial, sans-serif; font-size: 14px; fill: rgb(42, 63, 95); fill-opacity: 1; white-space: pre;">Minimum reference maxima</text></g></g><g class="annotation-arrow-g" style="opacity: 0.4;"><path d="M601.5,258.82L601.5,233.02" style="stroke-width: 2.5px; stroke: rgb(89, 105, 112); stroke-opacity: 1; stroke-dasharray: 0px, 0px, 23.525px, 25.8px;"/><path d="M-3.7,-2.5V2.5L1.3,0Z" transform="translate(601.5,235.2949981689453)rotate(-90)scale(1.75)" style="fill: rgb(89, 105, 112); stroke-width: 0;"/></g></g><g class="annotation" data-index="1" style="opacity: 1;"><g class="annotation-text-g" transform="rotate(0,105.5,144.12)"><g class="cursor-pointer" transform="translate(27,134)"><rect class="bg" x="0.5" y="0.5" width="156" height="19" style="stroke-width: 1px; stroke: rgb(0, 0, 0); stroke-opacity: 0; fill: rgb(0, 0, 0); fill-opacity: 0;"/><text class="annotation-text" text-anchor="middle" x="77.890625" y="15" style="font-family: 'Open Sans', verdana, arial, sans-serif; font-size: 14px; fill: rgb(42, 63, 95); fill-opacity: 1; white-space: pre;">Previous reference peak</text></g></g><g class="annotation-arrow-g" style="opacity: 1;"><path d="M100.75,153.62L90.5,174.12" style="stroke-width: 1px; stroke: rgb(42, 63, 95); stroke-opacity: 1; stroke-dasharray: 0px, 0px, 21.2297px, 22.9197px;"/><path d="M-3.7,-2.5V2.5L1.3,0Z" transform="translate(91.25579071044922,172.60841369628906)rotate(116.56505117707799)scale(1.3)" style="fill: rgb(42, 63, 95); stroke-width: 0;"/></g></g><g class="annotation" data-index="2" style="opacity: 1;"><g class="annotation-text-g" transform="rotate(0,236.92,224.82)"><g class="cursor-pointer" transform="translate(194,215)"><rect class="bg" x="0.5" y="0.5" width="85" height="19" style="stroke-width: 1px; stroke: rgb(0, 0, 0); stroke-opacity: 0; fill: rgb(0, 0, 0); fill-opacity: 0;"/><text class="annotation-text" text-anchor="middle" x="42.46875" y="15" style="font-family: 'Open Sans', verdana, arial, sans-serif; font-size: 14px; fill: rgb(42, 63, 95); fill-opacity: 1; white-space: pre;">Current peak</text></g></g><g class="annotation-arrow-g" style="opacity: 1;"><path d="M232.17,234.32L221.92,254.82" style="stroke-width: 1px; stroke: rgb(42, 63, 95); stroke-opacity: 1; stroke-dasharray: 0px, 0px, 21.2297px, 22.9197px;"/><path d="M-3.7,-2.5V2.5L1.3,0Z" transform="translate(222.67579650878906,253.3084259033203)rotate(116.56505117707799)scale(1.3)" style="fill: rgb(42, 63, 95); stroke-width: 0;"/></g></g><g class="annotation" data-index="3" style="opacity: 1;"><g class="annotation-text-g" transform="rotate(0,389.19,327.29)"><g class="cursor-pointer" transform="translate(329,317)" style="pointer-events: all;"><rect class="bg" x="0.5" y="0.5" width="120" height="19" style="stroke-width: 1px; stroke: rgb(0, 0, 0); stroke-opacity: 0; fill: rgb(0, 0, 0); fill-opacity: 0;"/><text class="annotation-text" text-anchor="middle" x="60.359375" y="15" style="font-family: 'Open Sans', verdana, arial, sans-serif; font-size: 14px; fill: rgb(42, 63, 95); fill-opacity: 1; white-space: pre;">Ignored (too small)</text></g></g><g class="annotation-arrow-g" style="opacity: 1;"><path d="M392.3566666666667,336.79L399.19,357.29" style="stroke-width: 1px; stroke: rgb(42, 63, 95); stroke-opacity: 1; stroke-dasharray: 0px, 0px, 19.9189px, 21.6089px;"/><path d="M-3.7,-2.5V2.5L1.3,0Z" transform="translate(398.65557861328125,355.6867370605469)rotate(71.57058005668189)scale(1.3)" style="fill: rgb(42, 63, 95); stroke-width: 0;"/></g></g><g class="annotation" data-index="4" style="opacity: 1;"><g class="annotation-text-g" transform="rotate(0,548.25,55)"><g class="cursor-pointer" transform="translate(483,45)"><rect class="bg" x="0.5" y="0.5" width="130" height="19" style="stroke-width: 1px; stroke: rgb(0, 0, 0); stroke-opacity: 0; fill: rgb(0, 0, 0); fill-opacity: 0;"/><text class="annotation-text" text-anchor="middle" x="65.046875" y="15" style="font-family: 'Open Sans', verdana, arial, sans-serif; font-size: 14px; fill: rgb(42, 63, 95); fill-opacity: 1; white-space: pre;">Next reference peak</text></g></g><g class="annotation-arrow-g" style="opacity: 1;"><path d="M553,64.5L563.25,85" style="stroke-width: 1px; stroke: rgb(42, 63, 95); stroke-opacity: 1; stroke-dasharray: 0px, 0px, 21.2297px, 22.9197px;"/><path d="M-3.7,-2.5V2.5L1.3,0Z" transform="translate(562.4942016601562,83.48841857910156)rotate(63.425174722110455)scale(1.3)" style="fill: rgb(42, 63, 95); stroke-width: 0;"/></g></g><g class="annotation" data-index="5" style="opacity: 1;"><g class="annotation-text-g" transform="rotate(0,155.34,311.39)"><g class="cursor-pointer" transform="translate(103,301)"><rect class="bg" x="0.5" y="0.5" width="104" height="19" style="stroke-width: 1px; stroke: rgb(0, 0, 0); stroke-opacity: 0; fill: rgb(0, 0, 0); fill-opacity: 0;"/><text class="annotation-text" text-anchor="middle" x="52.578125" y="15" style="font-family: 'Open Sans', verdana, arial, sans-serif; font-size: 14px; fill: rgb(42, 63, 95); fill-opacity: 1; white-space: pre;">Larger minimum</text></g></g><g class="annotation-arrow-g" style="opacity: 1;"><path d="M155.34,301.39L170.34,286.39" style="stroke-width: 1px; stroke: rgb(42, 63, 95); stroke-opacity: 1; stroke-dasharray: 0px, 0px, 19.5232px, 21.2132px;"/><path d="M-3.7,-2.5V2.5L1.3,0Z" transform="translate(169.14498901367188,287.58502197265625)rotate(-45)scale(1.3)" style="fill: rgb(42, 63, 95); stroke-width: 0;"/></g></g><g class="annotation" data-index="6" style="opacity: 1;"><g class="annotation-text-g" transform="rotate(0,219.92,251.83000000000004)"><g class="cursor-pointer" transform="translate(216,242)"><rect class="bg" x="0.5" y="0.5" width="7" height="19" style="stroke-width: 1px; stroke: rgb(0, 0, 0); stroke-opacity: 0; fill: rgb(0, 0, 0); fill-opacity: 0;"/><text class="annotation-text" text-anchor="middle" x="3.953125" y="15" style="font-family: 'Open Sans', verdana, arial, sans-serif; font-size: 14px; fill: rgb(42, 63, 95); fill-opacity: 1; white-space: pre;"> </text></g></g><g class="annotation-arrow-g" style="opacity: 1;"><path d="M219.92,261.83000000000004L219.92,282.39" style="stroke-width: 1px; stroke: rgb(42, 63, 95); stroke-opacity: 1; stroke-dasharray: 0px, 1.69px, 17.18px, 20.56px;"/><path d="M-3.7,-2.5V2.5L1.3,0Z" transform="translate(219.9199981689453,263.5199890136719)rotate(-90)scale(1.3)" style="fill: rgb(42, 63, 95); stroke-width: 0;"/><path d="M-3.7,-2.5V2.5L1.3,0Z" transform="translate(219.9199981689453,280.70001220703125)rotate(90)scale(1.3)" style="fill: rgb(42, 63, 95); stroke-width: 0;"/></g></g><g class="annotation" data-index="7" style="opacity: 1;"><g class="annotation-text-g" transform="rotate(0,305.02,272.11)"><g class="cursor-pointer" transform="translate(248,262)"><rect class="bg" x="0.5" y="0.5" width="113" height="19" style="stroke-width: 1px; stroke: rgb(0, 0, 0); stroke-opacity: 0; fill: rgb(0, 0, 0); fill-opacity: 0;"/><text class="annotation-text" text-anchor="middle" x="56.875" y="15" style="font-family: 'Open Sans', verdana, arial, sans-serif; font-size: 14px; fill: rgb(42, 63, 95); fill-opacity: 1; white-space: pre;">Prominence: 0.55</text></g></g></g></g></svg>