<?xml version="1.0" encoding="utf-8"?>
<svg xmlns="http://www.w3.org/2000/svg" xmlns:xlink="http://www.w3.org/1999/xlink" width="600" height="400" viewBox="0 0 2400 1600">
<defs>
  <clipPath id="clip000">
    <rect x="0" y="0" width="2400" height="1600"/>
  </clipPath>
</defs>
<path clip-path="url(#clip000)" d="M0 1600 L2400 1600 L2400 0 L0 0  Z" fill="#ffffff" fill-rule="evenodd" fill-opacity="1"/>
<defs>
  <clipPath id="clip001">
    <rect x="480" y="0" width="1681" height="1600"/>
  </clipPath>
</defs>
<path clip-path="url(#clip000)" d="M149.191 1486.45 L2352.76 1486.45 L2352.76 47.2441 L149.191 47.2441  Z" fill="#ffffff" fill-rule="evenodd" fill-opacity="1"/>
<defs>
  <clipPath id="clip002">
    <rect x="149" y="47" width="2205" height="1440"/>
  </clipPath>
</defs>
<polyline clip-path="url(#clip002)" style="stroke:#000000; stroke-linecap:round; stroke-linejoin:round; stroke-width:2; stroke-opacity:0.1; fill:none" points="211.556,1486.45 211.556,47.2441 "/>
<polyline clip-path="url(#clip002)" style="stroke:#000000; stroke-linecap:round; stroke-linejoin:round; stroke-width:2; stroke-opacity:0.1; fill:none" points="663.477,1486.45 663.477,47.2441 "/>
<polyline clip-path="url(#clip002)" style="stroke:#000000; stroke-linecap:round; stroke-linejoin:round; stroke-width:2; stroke-opacity:0.1; fill:none" points="1115.4,1486.45 1115.4,47.2441 "/>
<polyline clip-path="url(#clip002)" style="stroke:#000000; stroke-linecap:round; stroke-linejoin:round; stroke-width:2; stroke-opacity:0.1; fill:none" points="1567.32,1486.45 1567.32,47.2441 "/>
<polyline clip-path="url(#clip002)" style="stroke:#000000; stroke-linecap:round; stroke-linejoin:round; stroke-width:2; stroke-opacity:0.1; fill:none" points="2019.24,1486.45 2019.24,47.2441 "/>
<polyline clip-path="url(#clip000)" style="stroke:#000000; stroke-linecap:round; stroke-linejoin:round; stroke-width:4; stroke-opacity:1; fill:none" points="149.191,1486.45 2352.76,1486.45 "/>
<polyline clip-path="url(#clip000)" style="stroke:#000000; stroke-linecap:round; stroke-linejoin:round; stroke-width:4; stroke-opacity:1; fill:none" points="211.556,1486.45 211.556,1467.55 "/>
<polyline clip-path="url(#clip000)" style="stroke:#000000; stroke-linecap:round; stroke-linejoin:round; stroke-width:4; stroke-opacity:1; fill:none" points="663.477,1486.45 663.477,1467.55 "/>
<polyline clip-path="url(#clip000)" style="stroke:#000000; stroke-linecap:round; stroke-linejoin:round; stroke-width:4; stroke-opacity:1; fill:none" points="1115.4,1486.45 1115.4,1467.55 "/>
<polyline clip-path="url(#clip000)" style="stroke:#000000; stroke-linecap:round; stroke-linejoin:round; stroke-width:4; stroke-opacity:1; fill:none" points="1567.32,1486.45 1567.32,1467.55 "/>
<polyline clip-path="url(#clip000)" style="stroke:#000000; stroke-linecap:round; stroke-linejoin:round; stroke-width:4; stroke-opacity:1; fill:none" points="2019.24,1486.45 2019.24,1467.55 "/>
<path clip-path="url(#clip000)" d="M211.556 1517.37 Q207.945 1517.37 206.116 1520.93 Q204.311 1524.47 204.311 1531.6 Q204.311 1538.71 206.116 1542.27 Q207.945 1545.82 211.556 1545.82 Q215.19 1545.82 216.996 1542.27 Q218.824 1538.71 218.824 1531.6 Q218.824 1524.47 216.996 1520.93 Q215.19 1517.37 211.556 1517.37 M211.556 1513.66 Q217.366 1513.66 220.422 1518.27 Q223.5 1522.85 223.5 1531.6 Q223.5 1540.33 220.422 1544.94 Q217.366 1549.52 211.556 1549.52 Q205.746 1549.52 202.667 1544.94 Q199.612 1540.33 199.612 1531.6 Q199.612 1522.85 202.667 1518.27 Q205.746 1513.66 211.556 1513.66 Z" fill="#000000" fill-rule="nonzero" fill-opacity="1" /><path clip-path="url(#clip000)" d="M653.754 1514.29 L672.111 1514.29 L672.111 1518.22 L658.037 1518.22 L658.037 1526.7 Q659.055 1526.35 660.074 1526.19 Q661.092 1526 662.111 1526 Q667.898 1526 671.277 1529.17 Q674.657 1532.34 674.657 1537.76 Q674.657 1543.34 671.185 1546.44 Q667.713 1549.52 661.393 1549.52 Q659.217 1549.52 656.949 1549.15 Q654.703 1548.78 652.296 1548.04 L652.296 1543.34 Q654.379 1544.47 656.602 1545.03 Q658.824 1545.58 661.301 1545.58 Q665.305 1545.58 667.643 1543.48 Q669.981 1541.37 669.981 1537.76 Q669.981 1534.15 667.643 1532.04 Q665.305 1529.94 661.301 1529.94 Q659.426 1529.94 657.551 1530.35 Q655.699 1530.77 653.754 1531.65 L653.754 1514.29 Z" fill="#000000" fill-rule="nonzero" fill-opacity="1" /><path clip-path="url(#clip000)" d="M1090.08 1544.91 L1097.72 1544.91 L1097.72 1518.55 L1089.41 1520.21 L1089.41 1515.95 L1097.68 1514.29 L1102.35 1514.29 L1102.35 1544.91 L1109.99 1544.91 L1109.99 1548.85 L1090.08 1548.85 L1090.08 1544.91 Z" fill="#000000" fill-rule="nonzero" fill-opacity="1" /><path clip-path="url(#clip000)" d="M1129.44 1517.37 Q1125.83 1517.37 1124 1520.93 Q1122.19 1524.47 1122.19 1531.6 Q1122.19 1538.71 1124 1542.27 Q1125.83 1545.82 1129.44 1545.82 Q1133.07 1545.82 1134.88 1542.27 Q1136.7 1538.71 1136.7 1531.6 Q1136.7 1524.47 1134.88 1520.93 Q1133.07 1517.37 1129.44 1517.37 M1129.44 1513.66 Q1135.25 1513.66 1138.3 1518.27 Q1141.38 1522.85 1141.38 1531.6 Q1141.38 1540.33 1138.3 1544.94 Q1135.25 1549.52 1129.44 1549.52 Q1123.63 1549.52 1120.55 1544.94 Q1117.49 1540.33 1117.49 1531.6 Q1117.49 1522.85 1120.55 1518.27 Q1123.63 1513.66 1129.44 1513.66 Z" fill="#000000" fill-rule="nonzero" fill-opacity="1" /><path clip-path="url(#clip000)" d="M1542.5 1544.91 L1550.14 1544.91 L1550.14 1518.55 L1541.83 1520.21 L1541.83 1515.95 L1550.1 1514.29 L1554.77 1514.29 L1554.77 1544.91 L1562.41 1544.91 L1562.41 1548.85 L1542.5 1548.85 L1542.5 1544.91 Z" fill="#000000" fill-rule="nonzero" fill-opacity="1" /><path clip-path="url(#clip000)" d="M1571.9 1514.29 L1590.26 1514.29 L1590.26 1518.22 L1576.18 1518.22 L1576.18 1526.7 Q1577.2 1526.35 1578.22 1526.19 Q1579.24 1526 1580.26 1526 Q1586.04 1526 1589.42 1529.17 Q1592.8 1532.34 1592.8 1537.76 Q1592.8 1543.34 1589.33 1546.44 Q1585.86 1549.52 1579.54 1549.52 Q1577.36 1549.52 1575.1 1549.15 Q1572.85 1548.78 1570.44 1548.04 L1570.44 1543.34 Q1572.53 1544.47 1574.75 1545.03 Q1576.97 1545.58 1579.45 1545.58 Q1583.45 1545.58 1585.79 1543.48 Q1588.13 1541.37 1588.13 1537.76 Q1588.13 1534.15 1585.79 1532.04 Q1583.45 1529.94 1579.45 1529.94 Q1577.57 1529.94 1575.7 1530.35 Q1573.85 1530.77 1571.9 1531.65 L1571.9 1514.29 Z" fill="#000000" fill-rule="nonzero" fill-opacity="1" /><path clip-path="url(#clip000)" d="M1998.01 1544.91 L2014.33 1544.91 L2014.33 1548.85 L1992.39 1548.85 L1992.39 1544.91 Q1995.05 1542.16 1999.63 1537.53 Q2004.24 1532.88 2005.42 1531.53 Q2007.66 1529.01 2008.54 1527.27 Q2009.45 1525.51 2009.45 1523.82 Q2009.45 1521.07 2007.5 1519.33 Q2005.58 1517.6 2002.48 1517.6 Q2000.28 1517.6 1997.83 1518.36 Q1995.4 1519.13 1992.62 1520.68 L1992.62 1515.95 Q1995.44 1514.82 1997.9 1514.24 Q2000.35 1513.66 2002.39 1513.66 Q2007.76 1513.66 2010.95 1516.35 Q2014.15 1519.03 2014.15 1523.52 Q2014.15 1525.65 2013.34 1527.57 Q2012.55 1529.47 2010.44 1532.07 Q2009.86 1532.74 2006.76 1535.95 Q2003.66 1539.15 1998.01 1544.91 Z" fill="#000000" fill-rule="nonzero" fill-opacity="1" /><path clip-path="url(#clip000)" d="M2034.15 1517.37 Q2030.53 1517.37 2028.71 1520.93 Q2026.9 1524.47 2026.9 1531.6 Q2026.9 1538.71 2028.71 1542.27 Q2030.53 1545.82 2034.15 1545.82 Q2037.78 1545.82 2039.59 1542.27 Q2041.41 1538.71 2041.41 1531.6 Q2041.41 1524.47 2039.59 1520.93 Q2037.78 1517.37 2034.15 1517.37 M2034.15 1513.66 Q2039.96 1513.66 2043.01 1518.27 Q2046.09 1522.85 2046.09 1531.6 Q2046.09 1540.33 2043.01 1544.94 Q2039.96 1549.52 2034.15 1549.52 Q2028.34 1549.52 2025.26 1544.94 Q2022.2 1540.33 2022.2 1531.6 Q2022.2 1522.85 2025.26 1518.27 Q2028.34 1513.66 2034.15 1513.66 Z" fill="#000000" fill-rule="nonzero" fill-opacity="1" /><polyline clip-path="url(#clip002)" style="stroke:#000000; stroke-linecap:round; stroke-linejoin:round; stroke-width:2; stroke-opacity:0.1; fill:none" points="149.191,1311.88 2352.76,1311.88 "/>
<polyline clip-path="url(#clip002)" style="stroke:#000000; stroke-linecap:round; stroke-linejoin:round; stroke-width:2; stroke-opacity:0.1; fill:none" points="149.191,1039.36 2352.76,1039.36 "/>
<polyline clip-path="url(#clip002)" style="stroke:#000000; stroke-linecap:round; stroke-linejoin:round; stroke-width:2; stroke-opacity:0.1; fill:none" points="149.191,766.846 2352.76,766.846 "/>
<polyline clip-path="url(#clip002)" style="stroke:#000000; stroke-linecap:round; stroke-linejoin:round; stroke-width:2; stroke-opacity:0.1; fill:none" points="149.191,494.33 2352.76,494.33 "/>
<polyline clip-path="url(#clip002)" style="stroke:#000000; stroke-linecap:round; stroke-linejoin:round; stroke-width:2; stroke-opacity:0.1; fill:none" points="149.191,221.813 2352.76,221.813 "/>
<polyline clip-path="url(#clip000)" style="stroke:#000000; stroke-linecap:round; stroke-linejoin:round; stroke-width:4; stroke-opacity:1; fill:none" points="149.191,1486.45 149.191,47.2441 "/>
<polyline clip-path="url(#clip000)" style="stroke:#000000; stroke-linecap:round; stroke-linejoin:round; stroke-width:4; stroke-opacity:1; fill:none" points="149.191,1311.88 168.089,1311.88 "/>
<polyline clip-path="url(#clip000)" style="stroke:#000000; stroke-linecap:round; stroke-linejoin:round; stroke-width:4; stroke-opacity:1; fill:none" points="149.191,1039.36 168.089,1039.36 "/>
<polyline clip-path="url(#clip000)" style="stroke:#000000; stroke-linecap:round; stroke-linejoin:round; stroke-width:4; stroke-opacity:1; fill:none" points="149.191,766.846 168.089,766.846 "/>
<polyline clip-path="url(#clip000)" style="stroke:#000000; stroke-linecap:round; stroke-linejoin:round; stroke-width:4; stroke-opacity:1; fill:none" points="149.191,494.33 168.089,494.33 "/>
<polyline clip-path="url(#clip000)" style="stroke:#000000; stroke-linecap:round; stroke-linejoin:round; stroke-width:4; stroke-opacity:1; fill:none" points="149.191,221.813 168.089,221.813 "/>
<path clip-path="url(#clip000)" d="M50.9921 1312.33 L80.6679 1312.33 L80.6679 1316.27 L50.9921 1316.27 L50.9921 1312.33 Z" fill="#000000" fill-rule="nonzero" fill-opacity="1" /><path clip-path="url(#clip000)" d="M103.608 1298.67 L91.8021 1317.12 L103.608 1317.12 L103.608 1298.67 M102.381 1294.6 L108.26 1294.6 L108.26 1317.12 L113.191 1317.12 L113.191 1321.01 L108.26 1321.01 L108.26 1329.16 L103.608 1329.16 L103.608 1321.01 L88.0058 1321.01 L88.0058 1316.5 L102.381 1294.6 Z" fill="#000000" fill-rule="nonzero" fill-opacity="1" /><path clip-path="url(#clip000)" d="M53.0754 1039.81 L82.7512 1039.81 L82.7512 1043.75 L53.0754 1043.75 L53.0754 1039.81 Z" fill="#000000" fill-rule="nonzero" fill-opacity="1" /><path clip-path="url(#clip000)" d="M96.8715 1052.71 L113.191 1052.71 L113.191 1056.64 L91.2465 1056.64 L91.2465 1052.71 Q93.9086 1049.95 98.4919 1045.32 Q103.098 1040.67 104.279 1039.33 Q106.524 1036.8 107.404 1035.07 Q108.307 1033.31 108.307 1031.62 Q108.307 1028.86 106.362 1027.13 Q104.441 1025.39 101.339 1025.39 Q99.14 1025.39 96.6863 1026.16 Q94.2558 1026.92 91.478 1028.47 L91.478 1023.75 Q94.3021 1022.61 96.7558 1022.04 Q99.2095 1021.46 101.246 1021.46 Q106.617 1021.46 109.811 1024.14 Q113.006 1026.83 113.006 1031.32 Q113.006 1033.45 112.196 1035.37 Q111.408 1037.27 109.302 1039.86 Q108.723 1040.53 105.621 1043.75 Q102.52 1046.94 96.8715 1052.71 Z" fill="#000000" fill-rule="nonzero" fill-opacity="1" /><path clip-path="url(#clip000)" d="M101.246 752.645 Q97.6354 752.645 95.8067 756.209 Q94.0012 759.751 94.0012 766.881 Q94.0012 773.987 95.8067 777.552 Q97.6354 781.094 101.246 781.094 Q104.881 781.094 106.686 777.552 Q108.515 773.987 108.515 766.881 Q108.515 759.751 106.686 756.209 Q104.881 752.645 101.246 752.645 M101.246 748.941 Q107.057 748.941 110.112 753.547 Q113.191 758.131 113.191 766.881 Q113.191 775.608 110.112 780.214 Q107.057 784.797 101.246 784.797 Q95.4363 784.797 92.3576 780.214 Q89.3021 775.608 89.3021 766.881 Q89.3021 758.131 92.3576 753.547 Q95.4363 748.941 101.246 748.941 Z" fill="#000000" fill-rule="nonzero" fill-opacity="1" /><path clip-path="url(#clip000)" d="M96.8715 507.675 L113.191 507.675 L113.191 511.61 L91.2465 511.61 L91.2465 507.675 Q93.9086 504.92 98.4919 500.29 Q103.098 495.638 104.279 494.295 Q106.524 491.772 107.404 490.036 Q108.307 488.277 108.307 486.587 Q108.307 483.832 106.362 482.096 Q104.441 480.36 101.339 480.36 Q99.14 480.36 96.6863 481.124 Q94.2558 481.888 91.478 483.439 L91.478 478.716 Q94.3021 477.582 96.7558 477.003 Q99.2095 476.425 101.246 476.425 Q106.617 476.425 109.811 479.11 Q113.006 481.795 113.006 486.286 Q113.006 488.415 112.196 490.337 Q111.408 492.235 109.302 494.827 Q108.723 495.499 105.621 498.716 Q102.52 501.911 96.8715 507.675 Z" fill="#000000" fill-rule="nonzero" fill-opacity="1" /><path clip-path="url(#clip000)" d="M103.608 208.608 L91.8021 227.056 L103.608 227.056 L103.608 208.608 M102.381 204.533 L108.26 204.533 L108.26 227.056 L113.191 227.056 L113.191 230.945 L108.26 230.945 L108.26 239.093 L103.608 239.093 L103.608 230.945 L88.0058 230.945 L88.0058 226.431 L102.381 204.533 Z" fill="#000000" fill-rule="nonzero" fill-opacity="1" /><polyline clip-path="url(#clip002)" style="stroke:#009af9; stroke-linecap:round; stroke-linejoin:round; stroke-width:4; stroke-opacity:1; fill:none" points="211.556,766.846 215.171,744.597 218.787,722.412 222.402,700.353 226.017,678.483 229.633,656.864 233.248,635.555 236.863,614.615 240.479,594.101 244.094,574.068 247.71,554.566 251.325,535.645 254.94,517.351 258.556,499.726 262.171,482.811 265.786,466.639 269.402,451.244 273.017,436.652 276.632,422.888 280.248,409.97 283.863,397.913 287.479,386.728 291.094,376.42 294.709,366.992 298.325,358.44 301.94,350.758 305.555,343.932 309.171,337.949 312.786,332.787 316.402,328.422 320.017,324.827 323.632,321.971 327.248,319.817 330.863,318.328 334.478,317.463 338.094,317.178 341.709,317.426 345.324,318.158 348.94,319.324 352.555,320.871 356.171,322.747 359.786,324.896 363.401,327.263 367.017,329.793 370.632,332.43 374.247,335.12 377.863,337.807 381.478,340.439 385.093,342.963 388.709,345.328 392.324,347.487 395.94,349.392 399.555,350.999 403.17,352.268 406.786,353.16 410.401,353.641 414.016,353.677 417.632,353.243 421.247,352.312 424.862,350.866 428.478,348.887 432.093,346.363 435.709,343.287 439.324,339.655 442.939,335.467 446.555,330.728 450.17,325.448 453.785,319.639 457.401,313.32 461.016,306.51 464.631,299.237 468.247,291.529 471.862,283.419 475.478,274.943 479.093,266.14 482.708,257.053 486.324,247.726 489.939,238.209 493.554,228.549 497.17,218.799 500.785,209.012 504.4,199.243 508.016,189.547 511.631,179.981 515.247,170.601 518.862,161.464 522.477,152.625 526.093,144.141 529.708,136.066 533.323,128.454 536.939,121.356 540.554,114.822 544.17,108.899 547.785,103.633 551.4,99.0666 555.016,95.2383 558.631,92.1843 562.246,89.9374 565.862,88.5263 569.477,87.9763 573.092,88.3082 576.708,89.5391 580.323,91.6815 583.939,94.7438 587.554,98.7298 591.169,103.639 594.785,109.466 598.4,116.202 602.015,123.833 605.631,132.341 609.246,141.702 612.861,151.891 616.477,162.876 620.092,174.624 623.708,187.095 627.323,200.248 630.938,214.038 634.554,228.416 638.169,243.333 641.784,258.733 645.4,274.563 649.015,290.763 652.63,307.276 656.246,324.039 659.861,340.992 663.477,358.072 667.092,375.216 670.707,392.363 674.323,409.449 677.938,426.412 681.553,443.194 685.169,459.732 688.784,475.971 692.399,491.855 696.015,507.329 699.63,522.342 703.246,536.847 706.861,550.797 710.476,564.152 714.092,576.872 717.707,588.922 721.322,600.272 724.938,610.894 728.553,620.766 732.168,629.869 735.784,638.189 739.399,645.716 743.015,652.444 746.63,658.372 750.245,663.505 753.861,667.849 757.476,671.417 761.091,674.225 764.707,676.294 768.322,677.648 771.938,678.316 775.553,678.33 779.168,677.724 782.784,676.539 786.399,674.814 790.014,672.596 793.63,669.931 797.245,666.867 800.86,663.456 804.476,659.751 808.091,655.805 811.707,651.673 815.322,647.411 818.937,643.075 822.553,638.719 826.168,634.4 829.783,630.173 833.399,626.09 837.014,622.205 840.629,618.568 844.245,615.228 847.86,612.232 851.476,609.623 855.091,607.444 858.706,605.732 862.322,604.523 865.937,603.848 869.552,603.735 873.168,604.209 876.783,605.291 880.398,606.996 884.014,609.337 887.629,612.322 891.245,615.954 894.86,620.233 898.475,625.155 902.091,630.709 905.706,636.883 909.321,643.658 912.937,651.015 916.552,658.926 920.167,667.363 923.783,676.293 927.398,685.68 931.014,695.484 934.629,705.662 938.244,716.17 941.86,726.959 945.475,737.98 949.09,749.181 952.706,760.508 956.321,771.906 959.936,783.32 963.552,794.693 967.167,805.968 970.783,817.088 974.398,827.997 978.013,838.639 981.629,848.959 985.244,858.903 988.859,868.419 992.475,877.456 996.09,885.968 999.706,893.908 1003.32,901.234 1006.94,907.905 1010.55,913.886 1014.17,919.143 1017.78,923.647 1021.4,927.373 1025.01,930.298 1028.63,932.406 1032.24,933.683 1035.86,934.12 1039.47,933.714 1043.09,932.463 1046.71,930.373 1050.32,927.452 1053.94,923.713 1057.55,919.175 1061.17,913.859 1064.78,907.791 1068.4,901.002 1072.01,893.524 1075.63,885.397 1079.24,876.66 1082.86,867.359 1086.47,857.54 1090.09,847.254 1093.71,836.554 1097.32,825.494 1100.94,814.132 1104.55,802.526 1108.17,790.735 1111.78,778.822 1115.4,766.846 1119.01,754.87 1122.63,742.957 1126.24,731.166 1129.86,719.56 1133.47,708.198 1137.09,697.138 1140.7,686.438 1144.32,676.152 1147.94,666.333 1151.55,657.032 1155.17,648.295 1158.78,640.168 1162.4,632.69 1166.01,625.901 1169.63,619.833 1173.24,614.517 1176.86,609.979 1180.47,606.24 1184.09,603.319 1187.7,601.229 1191.32,599.978 1194.94,599.572 1198.55,600.009 1202.17,601.286 1205.78,603.394 1209.4,606.319 1213.01,610.045 1216.63,614.549 1220.24,619.806 1223.86,625.787 1227.47,632.458 1231.09,639.784 1234.7,647.724 1238.32,656.236 1241.93,665.273 1245.55,674.789 1249.17,684.733 1252.78,695.053 1256.4,705.695 1260.01,716.604 1263.63,727.724 1267.24,738.999 1270.86,750.372 1274.47,761.786 1278.09,773.184 1281.7,784.511 1285.32,795.712 1288.93,806.733 1292.55,817.522 1296.17,828.03 1299.78,838.208 1303.4,848.012 1307.01,857.399 1310.63,866.329 1314.24,874.766 1317.86,882.677 1321.47,890.034 1325.09,896.809 1328.7,902.983 1332.32,908.537 1335.93,913.459 1339.55,917.738 1343.17,921.37 1346.78,924.355 1350.4,926.696 1354.01,928.401 1357.63,929.483 1361.24,929.957 1364.86,929.844 1368.47,929.169 1372.09,927.96 1375.7,926.248 1379.32,924.069 1382.93,921.46 1386.55,918.464 1390.16,915.124 1393.78,911.487 1397.4,907.602 1401.01,903.519 1404.63,899.292 1408.24,894.973 1411.86,890.617 1415.47,886.281 1419.09,882.019 1422.7,877.887 1426.32,873.941 1429.93,870.236 1433.55,866.825 1437.16,863.761 1440.78,861.096 1444.4,858.878 1448.01,857.153 1451.63,855.968 1455.24,855.362 1458.86,855.376 1462.47,856.044 1466.09,857.398 1469.7,859.467 1473.32,862.275 1476.93,865.843 1480.55,870.187 1484.16,875.32 1487.78,881.248 1491.4,887.976 1495.01,895.503 1498.63,903.823 1502.24,912.926 1505.86,922.798 1509.47,933.42 1513.09,944.77 1516.7,956.82 1520.32,969.54 1523.93,982.895 1527.55,996.845 1531.16,1011.35 1534.78,1026.36 1538.39,1041.84 1542.01,1057.72 1545.63,1073.96 1549.24,1090.5 1552.86,1107.28 1556.47,1124.24 1560.09,1141.33 1563.7,1158.48 1567.32,1175.62 1570.93,1192.7 1574.55,1209.65 1578.16,1226.42 1581.78,1242.93 1585.39,1259.13 1589.01,1274.96 1592.63,1290.36 1596.24,1305.28 1599.86,1319.65 1603.47,1333.44 1607.09,1346.6 1610.7,1359.07 1614.32,1370.82 1617.93,1381.8 1621.55,1391.99 1625.16,1401.35 1628.78,1409.86 1632.39,1417.49 1636.01,1424.23 1639.63,1430.05 1643.24,1434.96 1646.86,1438.95 1650.47,1442.01 1654.09,1444.15 1657.7,1445.38 1661.32,1445.72 1664.93,1445.17 1668.55,1443.75 1672.16,1441.51 1675.78,1438.45 1679.39,1434.63 1683.01,1430.06 1686.62,1424.79 1690.24,1418.87 1693.86,1412.34 1697.47,1405.24 1701.09,1397.63 1704.7,1389.55 1708.32,1381.07 1711.93,1372.23 1715.55,1363.09 1719.16,1353.71 1722.78,1344.14 1726.39,1334.45 1730.01,1324.68 1733.62,1314.89 1737.24,1305.14 1740.86,1295.48 1744.47,1285.97 1748.09,1276.64 1751.7,1267.55 1755.32,1258.75 1758.93,1250.27 1762.55,1242.16 1766.16,1234.45 1769.78,1227.18 1773.39,1220.37 1777.01,1214.05 1780.62,1208.24 1784.24,1202.96 1787.86,1198.22 1791.47,1194.04 1795.09,1190.4 1798.7,1187.33 1802.32,1184.81 1805.93,1182.83 1809.55,1181.38 1813.16,1180.45 1816.78,1180.01 1820.39,1180.05 1824.01,1180.53 1827.62,1181.42 1831.24,1182.69 1834.85,1184.3 1838.47,1186.21 1842.09,1188.36 1845.7,1190.73 1849.32,1193.25 1852.93,1195.88 1856.55,1198.57 1860.16,1201.26 1863.78,1203.9 1867.39,1206.43 1871.01,1208.8 1874.62,1210.95 1878.24,1212.82 1881.85,1214.37 1885.47,1215.53 1889.09,1216.27 1892.7,1216.51 1896.32,1216.23 1899.93,1215.36 1903.55,1213.87 1907.16,1211.72 1910.78,1208.86 1914.39,1205.27 1918.01,1200.91 1921.62,1195.74 1925.24,1189.76 1928.85,1182.93 1932.47,1175.25 1936.09,1166.7 1939.7,1157.27 1943.32,1146.96 1946.93,1135.78 1950.55,1123.72 1954.16,1110.8 1957.78,1097.04 1961.39,1082.45 1965.01,1067.05 1968.62,1050.88 1972.24,1033.97 1975.85,1016.34 1979.47,998.047 1983.08,979.126 1986.7,959.624 1990.32,939.591 1993.93,919.077 1997.55,898.137 2001.16,876.828 2004.78,855.209 2008.39,833.339 2012.01,811.28 2015.62,789.095 2019.24,766.846 2022.85,744.597 2026.47,722.412 2030.08,700.353 2033.7,678.483 2037.32,656.864 2040.93,635.555 2044.55,614.615 2048.16,594.101 2051.78,574.068 2055.39,554.566 2059.01,535.645 2062.62,517.351 2066.24,499.726 2069.85,482.811 2073.47,466.639 2077.08,451.244 2080.7,436.652 2084.32,422.888 2087.93,409.97 2091.55,397.913 2095.16,386.728 2098.78,376.42 2102.39,366.992 2106.01,358.44 2109.62,350.758 2113.24,343.932 2116.85,337.949 2120.47,332.787 2124.08,328.422 2127.7,324.827 2131.31,321.971 2134.93,319.817 2138.55,318.328 2142.16,317.463 2145.78,317.178 2149.39,317.426 2153.01,318.158 2156.62,319.324 2160.24,320.871 2163.85,322.747 2167.47,324.896 2171.08,327.263 2174.7,329.793 2178.31,332.43 2181.93,335.12 2185.55,337.807 2189.16,340.439 2192.78,342.963 2196.39,345.328 2200.01,347.487 2203.62,349.392 2207.24,350.999 2210.85,352.268 2214.47,353.16 2218.08,353.641 2221.7,353.677 2225.31,353.243 2228.93,352.312 2232.55,350.866 2236.16,348.887 2239.78,346.363 2243.39,343.287 2247.01,339.655 2250.62,335.467 2254.24,330.728 2257.85,325.448 2261.47,319.639 2265.08,313.32 2268.7,306.51 2272.31,299.237 2275.93,291.529 2279.54,283.419 2283.16,274.943 2286.78,266.14 2290.39,257.053 "/>
<path clip-path="url(#clip000)" d="M222.643 1438.47 L576.216 1438.47 L576.216 1334.79 L222.643 1334.79  Z" fill="#ffffff" fill-rule="evenodd" fill-opacity="1"/>
<polyline clip-path="url(#clip000)" style="stroke:#000000; stroke-linecap:round; stroke-linejoin:round; stroke-width:4; stroke-opacity:1; fill:none" points="222.643,1438.47 576.216,1438.47 576.216,1334.79 222.643,1334.79 222.643,1438.47 "/>
<polyline clip-path="url(#clip000)" style="stroke:#009af9; stroke-linecap:round; stroke-linejoin:round; stroke-width:4; stroke-opacity:1; fill:none" points="247.127,1386.63 394.031,1386.63 "/>
<path clip-path="url(#clip000)" d="M436.941 1378.75 L436.941 1382.78 Q435.136 1381.85 433.191 1381.39 Q431.247 1380.93 429.164 1380.93 Q425.992 1380.93 424.395 1381.9 Q422.821 1382.87 422.821 1384.82 Q422.821 1386.3 423.955 1387.16 Q425.09 1387.99 428.515 1388.75 L429.974 1389.08 Q434.511 1390.05 436.409 1391.83 Q438.33 1393.59 438.33 1396.76 Q438.33 1400.37 435.46 1402.48 Q432.613 1404.59 427.613 1404.59 Q425.529 1404.59 423.261 1404.17 Q421.015 1403.78 418.515 1402.97 L418.515 1398.57 Q420.877 1399.79 423.168 1400.42 Q425.46 1401.02 427.705 1401.02 Q430.714 1401.02 432.335 1400 Q433.955 1398.96 433.955 1397.09 Q433.955 1395.35 432.775 1394.42 Q431.617 1393.5 427.659 1392.64 L426.177 1392.29 Q422.219 1391.46 420.46 1389.75 Q418.701 1388.01 418.701 1385 Q418.701 1381.35 421.293 1379.35 Q423.886 1377.36 428.654 1377.36 Q431.015 1377.36 433.099 1377.71 Q435.182 1378.06 436.941 1378.75 Z" fill="#000000" fill-rule="nonzero" fill-opacity="1" /><path clip-path="url(#clip000)" d="M445.113 1377.99 L449.372 1377.99 L449.372 1403.91 L445.113 1403.91 L445.113 1377.99 M445.113 1367.9 L449.372 1367.9 L449.372 1373.29 L445.113 1373.29 L445.113 1367.9 Z" fill="#000000" fill-rule="nonzero" fill-opacity="1" /><path clip-path="url(#clip000)" d="M475.344 1390.65 Q475.344 1386.02 473.423 1383.47 Q471.524 1380.93 468.075 1380.93 Q464.649 1380.93 462.728 1383.47 Q460.83 1386.02 460.83 1390.65 Q460.83 1395.26 462.728 1397.8 Q464.649 1400.35 468.075 1400.35 Q471.524 1400.35 473.423 1397.8 Q475.344 1395.26 475.344 1390.65 M479.603 1400.7 Q479.603 1407.32 476.663 1410.53 Q473.724 1413.78 467.659 1413.78 Q465.413 1413.78 463.423 1413.43 Q461.432 1413.1 459.557 1412.41 L459.557 1408.27 Q461.432 1409.28 463.261 1409.77 Q465.089 1410.26 466.987 1410.26 Q471.177 1410.26 473.261 1408.06 Q475.344 1405.88 475.344 1401.46 L475.344 1399.35 Q474.024 1401.65 471.964 1402.78 Q469.904 1403.91 467.034 1403.91 Q462.265 1403.91 459.349 1400.28 Q456.432 1396.65 456.432 1390.65 Q456.432 1384.63 459.349 1381 Q462.265 1377.36 467.034 1377.36 Q469.904 1377.36 471.964 1378.5 Q474.024 1379.63 475.344 1381.92 L475.344 1377.99 L479.603 1377.99 L479.603 1400.7 Z" fill="#000000" fill-rule="nonzero" fill-opacity="1" /><path clip-path="url(#clip000)" d="M509.927 1388.27 L509.927 1403.91 L505.668 1403.91 L505.668 1388.41 Q505.668 1384.72 504.233 1382.9 Q502.797 1381.07 499.927 1381.07 Q496.478 1381.07 494.487 1383.27 Q492.497 1385.47 492.497 1389.26 L492.497 1403.91 L488.214 1403.91 L488.214 1377.99 L492.497 1377.99 L492.497 1382.02 Q494.024 1379.68 496.085 1378.52 Q498.168 1377.36 500.876 1377.36 Q505.344 1377.36 507.635 1380.14 Q509.927 1382.9 509.927 1388.27 Z" fill="#000000" fill-rule="nonzero" fill-opacity="1" /><path clip-path="url(#clip000)" d="M530.205 1390.88 Q525.043 1390.88 523.052 1392.06 Q521.061 1393.24 521.061 1396.09 Q521.061 1398.36 522.543 1399.7 Q524.047 1401.02 526.617 1401.02 Q530.158 1401.02 532.288 1398.52 Q534.441 1396 534.441 1391.83 L534.441 1390.88 L530.205 1390.88 M538.7 1389.12 L538.7 1403.91 L534.441 1403.91 L534.441 1399.98 Q532.982 1402.34 530.807 1403.47 Q528.631 1404.59 525.483 1404.59 Q521.501 1404.59 519.14 1402.36 Q516.802 1400.12 516.802 1396.37 Q516.802 1391.99 519.719 1389.77 Q522.658 1387.55 528.469 1387.55 L534.441 1387.55 L534.441 1387.13 Q534.441 1384.19 532.496 1382.6 Q530.575 1380.97 527.08 1380.97 Q524.858 1380.97 522.751 1381.51 Q520.645 1382.04 518.7 1383.1 L518.7 1379.17 Q521.038 1378.27 523.237 1377.83 Q525.436 1377.36 527.52 1377.36 Q533.144 1377.36 535.922 1380.28 Q538.7 1383.2 538.7 1389.12 Z" fill="#000000" fill-rule="nonzero" fill-opacity="1" /><path clip-path="url(#clip000)" d="M547.473 1367.9 L551.732 1367.9 L551.732 1403.91 L547.473 1403.91 L547.473 1367.9 Z" fill="#000000" fill-rule="nonzero" fill-opacity="1" /></svg>
