<?xml version="1.0" encoding="utf-8"?>
<svg xmlns="http://www.w3.org/2000/svg" xmlns:xlink="http://www.w3.org/1999/xlink" width="600" height="400" viewBox="0 0 2400 1600">
<defs>
  <clipPath id="clip120">
    <rect x="0" y="0" width="2400" height="1600"/>
  </clipPath>
</defs>
<path clip-path="url(#clip120)" d="M0 1600 L2400 1600 L2400 0 L0 0  Z" fill="#ffffff" fill-rule="evenodd" fill-opacity="1"/>
<defs>
  <clipPath id="clip121">
    <rect x="480" y="0" width="1681" height="1600"/>
  </clipPath>
</defs>
<path clip-path="url(#clip120)" d="M149.191 1486.45 L2352.76 1486.45 L2352.76 47.2441 L149.191 47.2441  Z" fill="#ffffff" fill-rule="evenodd" fill-opacity="1"/>
<defs>
  <clipPath id="clip122">
    <rect x="149" y="47" width="2205" height="1440"/>
  </clipPath>
</defs>
<polyline clip-path="url(#clip122)" style="stroke:#000000; stroke-linecap:round; stroke-linejoin:round; stroke-width:2; stroke-opacity:0.1; fill:none" points="211.556,1486.45 211.556,47.2441 "/>
<polyline clip-path="url(#clip122)" style="stroke:#000000; stroke-linecap:round; stroke-linejoin:round; stroke-width:2; stroke-opacity:0.1; fill:none" points="663.477,1486.45 663.477,47.2441 "/>
<polyline clip-path="url(#clip122)" style="stroke:#000000; stroke-linecap:round; stroke-linejoin:round; stroke-width:2; stroke-opacity:0.1; fill:none" points="1115.4,1486.45 1115.4,47.2441 "/>
<polyline clip-path="url(#clip122)" style="stroke:#000000; stroke-linecap:round; stroke-linejoin:round; stroke-width:2; stroke-opacity:0.1; fill:none" points="1567.32,1486.45 1567.32,47.2441 "/>
<polyline clip-path="url(#clip122)" style="stroke:#000000; stroke-linecap:round; stroke-linejoin:round; stroke-width:2; stroke-opacity:0.1; fill:none" points="2019.24,1486.45 2019.24,47.2441 "/>
<polyline clip-path="url(#clip120)" style="stroke:#000000; stroke-linecap:round; stroke-linejoin:round; stroke-width:4; stroke-opacity:1; fill:none" points="149.191,1486.45 2352.76,1486.45 "/>
<polyline clip-path="url(#clip120)" style="stroke:#000000; stroke-linecap:round; stroke-linejoin:round; stroke-width:4; stroke-opacity:1; fill:none" points="211.556,1486.45 211.556,1467.55 "/>
<polyline clip-path="url(#clip120)" style="stroke:#000000; stroke-linecap:round; stroke-linejoin:round; stroke-width:4; stroke-opacity:1; fill:none" points="663.477,1486.45 663.477,1467.55 "/>
<polyline clip-path="url(#clip120)" style="stroke:#000000; stroke-linecap:round; stroke-linejoin:round; stroke-width:4; stroke-opacity:1; fill:none" points="1115.4,1486.45 1115.4,1467.55 "/>
<polyline clip-path="url(#clip120)" style="stroke:#000000; stroke-linecap:round; stroke-linejoin:round; stroke-width:4; stroke-opacity:1; fill:none" points="1567.32,1486.45 1567.32,1467.55 "/>
<polyline clip-path="url(#clip120)" style="stroke:#000000; stroke-linecap:round; stroke-linejoin:round; stroke-width:4; stroke-opacity:1; fill:none" points="2019.24,1486.45 2019.24,1467.55 "/>
<path clip-path="url(#clip120)" d="M211.556 1517.37 Q207.945 1517.37 206.116 1520.93 Q204.311 1524.47 204.311 1531.6 Q204.311 1538.71 206.116 1542.27 Q207.945 1545.82 211.556 1545.82 Q215.19 1545.82 216.996 1542.27 Q218.824 1538.71 218.824 1531.6 Q218.824 1524.47 216.996 1520.93 Q215.19 1517.37 211.556 1517.37 M211.556 1513.66 Q217.366 1513.66 220.422 1518.27 Q223.5 1522.85 223.5 1531.6 Q223.5 1540.33 220.422 1544.94 Q217.366 1549.52 211.556 1549.52 Q205.746 1549.52 202.667 1544.94 Q199.612 1540.33 199.612 1531.6 Q199.612 1522.85 202.667 1518.27 Q205.746 1513.66 211.556 1513.66 Z" fill="#000000" fill-rule="nonzero" fill-opacity="1" /><path clip-path="url(#clip120)" d="M653.754 1514.29 L672.111 1514.29 L672.111 1518.22 L658.037 1518.22 L658.037 1526.7 Q659.055 1526.35 660.074 1526.19 Q661.092 1526 662.111 1526 Q667.898 1526 671.277 1529.17 Q674.657 1532.34 674.657 1537.76 Q674.657 1543.34 671.185 1546.44 Q667.713 1549.52 661.393 1549.52 Q659.217 1549.52 656.949 1549.15 Q654.703 1548.78 652.296 1548.04 L652.296 1543.34 Q654.379 1544.47 656.602 1545.03 Q658.824 1545.58 661.301 1545.58 Q665.305 1545.58 667.643 1543.48 Q669.981 1541.37 669.981 1537.76 Q669.981 1534.15 667.643 1532.04 Q665.305 1529.94 661.301 1529.94 Q659.426 1529.94 657.551 1530.35 Q655.699 1530.77 653.754 1531.65 L653.754 1514.29 Z" fill="#000000" fill-rule="nonzero" fill-opacity="1" /><path clip-path="url(#clip120)" d="M1090.08 1544.91 L1097.72 1544.91 L1097.72 1518.55 L1089.41 1520.21 L1089.41 1515.95 L1097.68 1514.29 L1102.35 1514.29 L1102.35 1544.91 L1109.99 1544.91 L1109.99 1548.85 L1090.08 1548.85 L1090.08 1544.91 Z" fill="#000000" fill-rule="nonzero" fill-opacity="1" /><path clip-path="url(#clip120)" d="M1129.44 1517.37 Q1125.83 1517.37 1124 1520.93 Q1122.19 1524.47 1122.19 1531.6 Q1122.19 1538.71 1124 1542.27 Q1125.83 1545.82 1129.44 1545.82 Q1133.07 1545.82 1134.88 1542.27 Q1136.7 1538.71 1136.7 1531.6 Q1136.7 1524.47 1134.88 1520.93 Q1133.07 1517.37 1129.44 1517.37 M1129.44 1513.66 Q1135.25 1513.66 1138.3 1518.27 Q1141.38 1522.85 1141.38 1531.6 Q1141.38 1540.33 1138.3 1544.94 Q1135.25 1549.52 1129.44 1549.52 Q1123.63 1549.52 1120.55 1544.94 Q1117.49 1540.33 1117.49 1531.6 Q1117.49 1522.85 1120.55 1518.27 Q1123.63 1513.66 1129.44 1513.66 Z" fill="#000000" fill-rule="nonzero" fill-opacity="1" /><path clip-path="url(#clip120)" d="M1542.5 1544.91 L1550.14 1544.91 L1550.14 1518.55 L1541.83 1520.21 L1541.83 1515.95 L1550.1 1514.29 L1554.77 1514.29 L1554.77 1544.91 L1562.41 1544.91 L1562.41 1548.85 L1542.5 1548.85 L1542.5 1544.91 Z" fill="#000000" fill-rule="nonzero" fill-opacity="1" /><path clip-path="url(#clip120)" d="M1571.9 1514.29 L1590.26 1514.29 L1590.26 1518.22 L1576.18 1518.22 L1576.18 1526.7 Q1577.2 1526.35 1578.22 1526.19 Q1579.24 1526 1580.26 1526 Q1586.04 1526 1589.42 1529.17 Q1592.8 1532.34 1592.8 1537.76 Q1592.8 1543.34 1589.33 1546.44 Q1585.86 1549.52 1579.54 1549.52 Q1577.36 1549.52 1575.1 1549.15 Q1572.85 1548.78 1570.44 1548.04 L1570.44 1543.34 Q1572.53 1544.47 1574.75 1545.03 Q1576.97 1545.58 1579.45 1545.58 Q1583.45 1545.58 1585.79 1543.48 Q1588.13 1541.37 1588.13 1537.76 Q1588.13 1534.15 1585.79 1532.04 Q1583.45 1529.94 1579.45 1529.94 Q1577.57 1529.94 1575.7 1530.35 Q1573.85 1530.77 1571.9 1531.65 L1571.9 1514.29 Z" fill="#000000" fill-rule="nonzero" fill-opacity="1" /><path clip-path="url(#clip120)" d="M1998.01 1544.91 L2014.33 1544.91 L2014.33 1548.85 L1992.39 1548.85 L1992.39 1544.91 Q1995.05 1542.16 1999.63 1537.53 Q2004.24 1532.88 2005.42 1531.53 Q2007.66 1529.01 2008.54 1527.27 Q2009.45 1525.51 2009.45 1523.82 Q2009.45 1521.07 2007.5 1519.33 Q2005.58 1517.6 2002.48 1517.6 Q2000.28 1517.6 1997.83 1518.36 Q1995.4 1519.13 1992.62 1520.68 L1992.62 1515.95 Q1995.44 1514.82 1997.9 1514.24 Q2000.35 1513.66 2002.39 1513.66 Q2007.76 1513.66 2010.95 1516.35 Q2014.15 1519.03 2014.15 1523.52 Q2014.15 1525.65 2013.34 1527.57 Q2012.55 1529.47 2010.44 1532.07 Q2009.86 1532.74 2006.76 1535.95 Q2003.66 1539.15 1998.01 1544.91 Z" fill="#000000" fill-rule="nonzero" fill-opacity="1" /><path clip-path="url(#clip120)" d="M2034.15 1517.37 Q2030.53 1517.37 2028.71 1520.93 Q2026.9 1524.47 2026.9 1531.6 Q2026.9 1538.71 2028.71 1542.27 Q2030.53 1545.82 2034.15 1545.82 Q2037.78 1545.82 2039.59 1542.27 Q2041.41 1538.71 2041.41 1531.6 Q2041.41 1524.47 2039.59 1520.93 Q2037.78 1517.37 2034.15 1517.37 M2034.15 1513.66 Q2039.96 1513.66 2043.01 1518.27 Q2046.09 1522.85 2046.09 1531.6 Q2046.09 1540.33 2043.01 1544.94 Q2039.96 1549.52 2034.15 1549.52 Q2028.34 1549.52 2025.26 1544.94 Q2022.2 1540.33 2022.2 1531.6 Q2022.2 1522.85 2025.26 1518.27 Q2028.34 1513.66 2034.15 1513.66 Z" fill="#000000" fill-rule="nonzero" fill-opacity="1" /><polyline clip-path="url(#clip122)" style="stroke:#000000; stroke-linecap:round; stroke-linejoin:round; stroke-width:2; stroke-opacity:0.1; fill:none" points="149.191,1311.88 2352.76,1311.88 "/>
<polyline clip-path="url(#clip122)" style="stroke:#000000; stroke-linecap:round; stroke-linejoin:round; stroke-width:2; stroke-opacity:0.1; fill:none" points="149.191,1039.36 2352.76,1039.36 "/>
<polyline clip-path="url(#clip122)" style="stroke:#000000; stroke-linecap:round; stroke-linejoin:round; stroke-width:2; stroke-opacity:0.1; fill:none" points="149.191,766.846 2352.76,766.846 "/>
<polyline clip-path="url(#clip122)" style="stroke:#000000; stroke-linecap:round; stroke-linejoin:round; stroke-width:2; stroke-opacity:0.1; fill:none" points="149.191,494.33 2352.76,494.33 "/>
<polyline clip-path="url(#clip122)" style="stroke:#000000; stroke-linecap:round; stroke-linejoin:round; stroke-width:2; stroke-opacity:0.1; fill:none" points="149.191,221.813 2352.76,221.813 "/>
<polyline clip-path="url(#clip120)" style="stroke:#000000; stroke-linecap:round; stroke-linejoin:round; stroke-width:4; stroke-opacity:1; fill:none" points="149.191,1486.45 149.191,47.2441 "/>
<polyline clip-path="url(#clip120)" style="stroke:#000000; stroke-linecap:round; stroke-linejoin:round; stroke-width:4; stroke-opacity:1; fill:none" points="149.191,1311.88 168.089,1311.88 "/>
<polyline clip-path="url(#clip120)" style="stroke:#000000; stroke-linecap:round; stroke-linejoin:round; stroke-width:4; stroke-opacity:1; fill:none" points="149.191,1039.36 168.089,1039.36 "/>
<polyline clip-path="url(#clip120)" style="stroke:#000000; stroke-linecap:round; stroke-linejoin:round; stroke-width:4; stroke-opacity:1; fill:none" points="149.191,766.846 168.089,766.846 "/>
<polyline clip-path="url(#clip120)" style="stroke:#000000; stroke-linecap:round; stroke-linejoin:round; stroke-width:4; stroke-opacity:1; fill:none" points="149.191,494.33 168.089,494.33 "/>
<polyline clip-path="url(#clip120)" style="stroke:#000000; stroke-linecap:round; stroke-linejoin:round; stroke-width:4; stroke-opacity:1; fill:none" points="149.191,221.813 168.089,221.813 "/>
<path clip-path="url(#clip120)" d="M50.9921 1312.33 L80.6679 1312.33 L80.6679 1316.27 L50.9921 1316.27 L50.9921 1312.33 Z" fill="#000000" fill-rule="nonzero" fill-opacity="1" /><path clip-path="url(#clip120)" d="M103.608 1298.67 L91.8021 1317.12 L103.608 1317.12 L103.608 1298.67 M102.381 1294.6 L108.26 1294.6 L108.26 1317.12 L113.191 1317.12 L113.191 1321.01 L108.26 1321.01 L108.26 1329.16 L103.608 1329.16 L103.608 1321.01 L88.0058 1321.01 L88.0058 1316.5 L102.381 1294.6 Z" fill="#000000" fill-rule="nonzero" fill-opacity="1" /><path clip-path="url(#clip120)" d="M53.0754 1039.81 L82.7512 1039.81 L82.7512 1043.75 L53.0754 1043.75 L53.0754 1039.81 Z" fill="#000000" fill-rule="nonzero" fill-opacity="1" /><path clip-path="url(#clip120)" d="M96.8715 1052.71 L113.191 1052.71 L113.191 1056.64 L91.2465 1056.64 L91.2465 1052.71 Q93.9086 1049.95 98.4919 1045.32 Q103.098 1040.67 104.279 1039.33 Q106.524 1036.8 107.404 1035.07 Q108.307 1033.31 108.307 1031.62 Q108.307 1028.86 106.362 1027.13 Q104.441 1025.39 101.339 1025.39 Q99.14 1025.39 96.6863 1026.16 Q94.2558 1026.92 91.478 1028.47 L91.478 1023.75 Q94.3021 1022.61 96.7558 1022.04 Q99.2095 1021.46 101.246 1021.46 Q106.617 1021.46 109.811 1024.14 Q113.006 1026.83 113.006 1031.32 Q113.006 1033.45 112.196 1035.37 Q111.408 1037.27 109.302 1039.86 Q108.723 1040.53 105.621 1043.75 Q102.52 1046.94 96.8715 1052.71 Z" fill="#000000" fill-rule="nonzero" fill-opacity="1" /><path clip-path="url(#clip120)" d="M101.246 752.645 Q97.6354 752.645 95.8067 756.209 Q94.0012 759.751 94.0012 766.881 Q94.0012 773.987 95.8067 777.552 Q97.6354 781.094 101.246 781.094 Q104.881 781.094 106.686 777.552 Q108.515 773.987 108.515 766.881 Q108.515 759.751 106.686 756.209 Q104.881 752.645 101.246 752.645 M101.246 748.941 Q107.057 748.941 110.112 753.547 Q113.191 758.131 113.191 766.881 Q113.191 775.608 110.112 780.214 Q107.057 784.797 101.246 784.797 Q95.4363 784.797 92.3576 780.214 Q89.3021 775.608 89.3021 766.881 Q89.3021 758.131 92.3576 753.547 Q95.4363 748.941 101.246 748.941 Z" fill="#000000" fill-rule="nonzero" fill-opacity="1" /><path clip-path="url(#clip120)" d="M96.8715 507.675 L113.191 507.675 L113.191 511.61 L91.2465 511.61 L91.2465 507.675 Q93.9086 504.92 98.4919 500.29 Q103.098 495.638 104.279 494.295 Q106.524 491.772 107.404 490.036 Q108.307 488.277 108.307 486.587 Q108.307 483.832 106.362 482.096 Q104.441 480.36 101.339 480.36 Q99.14 480.36 96.6863 481.124 Q94.2558 481.888 91.478 483.439 L91.478 478.716 Q94.3021 477.582 96.7558 477.003 Q99.2095 476.425 101.246 476.425 Q106.617 476.425 109.811 479.11 Q113.006 481.795 113.006 486.286 Q113.006 488.415 112.196 490.337 Q111.408 492.235 109.302 494.827 Q108.723 495.499 105.621 498.716 Q102.52 501.911 96.8715 507.675 Z" fill="#000000" fill-rule="nonzero" fill-opacity="1" /><path clip-path="url(#clip120)" d="M103.608 208.608 L91.8021 227.056 L103.608 227.056 L103.608 208.608 M102.381 204.533 L108.26 204.533 L108.26 227.056 L113.191 227.056 L113.191 230.945 L108.26 230.945 L108.26 239.093 L103.608 239.093 L103.608 230.945 L88.0058 230.945 L88.0058 226.431 L102.381 204.533 Z" fill="#000000" fill-rule="nonzero" fill-opacity="1" /><polyline clip-path="url(#clip122)" style="stroke:#000000; stroke-linecap:round; stroke-linejoin:round; stroke-width:8; stroke-opacity:1; fill:none" points="211.556,766.846 215.171,744.597 218.787,722.412 222.402,700.353 226.017,678.483 229.633,656.864 233.248,635.555 236.863,614.615 240.479,594.101 244.094,574.068 247.71,554.566 251.325,535.645 254.94,517.351 258.556,499.726 262.171,482.811 265.786,466.639 269.402,451.244 273.017,436.652 276.632,422.888 280.248,409.97 283.863,397.913 287.479,386.728 291.094,376.42 294.709,366.992 298.325,358.44 301.94,350.758 305.555,343.932 309.171,337.949 312.786,332.787 316.402,328.422 320.017,324.827 323.632,321.971 327.248,319.817 330.863,318.328 334.478,317.463 338.094,317.178 341.709,317.426 345.324,318.158 348.94,319.324 352.555,320.871 356.171,322.747 359.786,324.896 363.401,327.263 367.017,329.793 370.632,332.43 374.247,335.12 377.863,337.807 381.478,340.439 385.093,342.963 388.709,345.328 392.324,347.487 395.94,349.392 399.555,350.999 403.17,352.268 406.786,353.16 410.401,353.641 414.016,353.677 417.632,353.243 421.247,352.312 424.862,350.866 428.478,348.887 432.093,346.363 435.709,343.287 439.324,339.655 442.939,335.467 446.555,330.728 450.17,325.448 453.785,319.639 457.401,313.32 461.016,306.51 464.631,299.237 468.247,291.529 471.862,283.419 475.478,274.943 479.093,266.14 482.708,257.053 486.324,247.726 489.939,238.209 493.554,228.549 497.17,218.799 500.785,209.012 504.4,199.243 508.016,189.547 511.631,179.981 515.247,170.601 518.862,161.464 522.477,152.625 526.093,144.141 529.708,136.066 533.323,128.454 536.939,121.356 540.554,114.822 544.17,108.899 547.785,103.633 551.4,99.0666 555.016,95.2383 558.631,92.1843 562.246,89.9374 565.862,88.5263 569.477,87.9763 573.092,88.3082 576.708,89.5391 580.323,91.6815 583.939,94.7438 587.554,98.7298 591.169,103.639 594.785,109.466 598.4,116.202 602.015,123.833 605.631,132.341 609.246,141.702 612.861,151.891 616.477,162.876 620.092,174.624 623.708,187.095 627.323,200.248 630.938,214.038 634.554,228.416 638.169,243.333 641.784,258.733 645.4,274.563 649.015,290.763 652.63,307.276 656.246,324.039 659.861,340.992 663.477,358.072 667.092,375.216 670.707,392.363 674.323,409.449 677.938,426.412 681.553,443.194 685.169,459.732 688.784,475.971 692.399,491.855 696.015,507.329 699.63,522.342 703.246,536.847 706.861,550.797 710.476,564.152 714.092,576.872 717.707,588.922 721.322,600.272 724.938,610.894 728.553,620.766 732.168,629.869 735.784,638.189 739.399,645.716 743.015,652.444 746.63,658.372 750.245,663.505 753.861,667.849 757.476,671.417 761.091,674.225 764.707,676.294 768.322,677.648 771.938,678.316 775.553,678.33 779.168,677.724 782.784,676.539 786.399,674.814 790.014,672.596 793.63,669.931 797.245,666.867 800.86,663.456 804.476,659.751 808.091,655.805 811.707,651.673 815.322,647.411 818.937,643.075 822.553,638.719 826.168,634.4 829.783,630.173 833.399,626.09 837.014,622.205 840.629,618.568 844.245,615.228 847.86,612.232 851.476,609.623 855.091,607.444 858.706,605.732 862.322,604.523 865.937,603.848 869.552,603.735 873.168,604.209 876.783,605.291 880.398,606.996 884.014,609.337 887.629,612.322 891.245,615.954 894.86,620.233 898.475,625.155 902.091,630.709 905.706,636.883 909.321,643.658 912.937,651.015 916.552,658.926 920.167,667.363 923.783,676.293 927.398,685.68 931.014,695.484 934.629,705.662 938.244,716.17 941.86,726.959 945.475,737.98 949.09,749.181 952.706,760.508 956.321,771.906 959.936,783.32 963.552,794.693 967.167,805.968 970.783,817.088 974.398,827.997 978.013,838.639 981.629,848.959 985.244,858.903 988.859,868.419 992.475,877.456 996.09,885.968 999.706,893.908 1003.32,901.234 1006.94,907.905 1010.55,913.886 1014.17,919.143 1017.78,923.647 1021.4,927.373 1025.01,930.298 1028.63,932.406 1032.24,933.683 1035.86,934.12 1039.47,933.714 1043.09,932.463 1046.71,930.373 1050.32,927.452 1053.94,923.713 1057.55,919.175 1061.17,913.859 1064.78,907.791 1068.4,901.002 1072.01,893.524 1075.63,885.397 1079.24,876.66 1082.86,867.359 1086.47,857.54 1090.09,847.254 1093.71,836.554 1097.32,825.494 1100.94,814.132 1104.55,802.526 1108.17,790.735 1111.78,778.822 1115.4,766.846 1119.01,754.87 1122.63,742.957 1126.24,731.166 1129.86,719.56 1133.47,708.198 1137.09,697.138 1140.7,686.438 1144.32,676.152 1147.94,666.333 1151.55,657.032 1155.17,648.295 1158.78,640.168 1162.4,632.69 1166.01,625.901 1169.63,619.833 1173.24,614.517 1176.86,609.979 1180.47,606.24 1184.09,603.319 1187.7,601.229 1191.32,599.978 1194.94,599.572 1198.55,600.009 1202.17,601.286 1205.78,603.394 1209.4,606.319 1213.01,610.045 1216.63,614.549 1220.24,619.806 1223.86,625.787 1227.47,632.458 1231.09,639.784 1234.7,647.724 1238.32,656.236 1241.93,665.273 1245.55,674.789 1249.17,684.733 1252.78,695.053 1256.4,705.695 1260.01,716.604 1263.63,727.724 1267.24,738.999 1270.86,750.372 1274.47,761.786 1278.09,773.184 1281.7,784.511 1285.32,795.712 1288.93,806.733 1292.55,817.522 1296.17,828.03 1299.78,838.208 1303.4,848.012 1307.01,857.399 1310.63,866.329 1314.24,874.766 1317.86,882.677 1321.47,890.034 1325.09,896.809 1328.7,902.983 1332.32,908.537 1335.93,913.459 1339.55,917.738 1343.17,921.37 1346.78,924.355 1350.4,926.696 1354.01,928.401 1357.63,929.483 1361.24,929.957 1364.86,929.844 1368.47,929.169 1372.09,927.96 1375.7,926.248 1379.32,924.069 1382.93,921.46 1386.55,918.464 1390.16,915.124 1393.78,911.487 1397.4,907.602 1401.01,903.519 1404.63,899.292 1408.24,894.973 1411.86,890.617 1415.47,886.281 1419.09,882.019 1422.7,877.887 1426.32,873.941 1429.93,870.236 1433.55,866.825 1437.16,863.761 1440.78,861.096 1444.4,858.878 1448.01,857.153 1451.63,855.968 1455.24,855.362 1458.86,855.376 1462.47,856.044 1466.09,857.398 1469.7,859.467 1473.32,862.275 1476.93,865.843 1480.55,870.187 1484.16,875.32 1487.78,881.248 1491.4,887.976 1495.01,895.503 1498.63,903.823 1502.24,912.926 1505.86,922.798 1509.47,933.42 1513.09,944.77 1516.7,956.82 1520.32,969.54 1523.93,982.895 1527.55,996.845 1531.16,1011.35 1534.78,1026.36 1538.39,1041.84 1542.01,1057.72 1545.63,1073.96 1549.24,1090.5 1552.86,1107.28 1556.47,1124.24 1560.09,1141.33 1563.7,1158.48 1567.32,1175.62 1570.93,1192.7 1574.55,1209.65 1578.16,1226.42 1581.78,1242.93 1585.39,1259.13 1589.01,1274.96 1592.63,1290.36 1596.24,1305.28 1599.86,1319.65 1603.47,1333.44 1607.09,1346.6 1610.7,1359.07 1614.32,1370.82 1617.93,1381.8 1621.55,1391.99 1625.16,1401.35 1628.78,1409.86 1632.39,1417.49 1636.01,1424.23 1639.63,1430.05 1643.24,1434.96 1646.86,1438.95 1650.47,1442.01 1654.09,1444.15 1657.7,1445.38 1661.32,1445.72 1664.93,1445.17 1668.55,1443.75 1672.16,1441.51 1675.78,1438.45 1679.39,1434.63 1683.01,1430.06 1686.62,1424.79 1690.24,1418.87 1693.86,1412.34 1697.47,1405.24 1701.09,1397.63 1704.7,1389.55 1708.32,1381.07 1711.93,1372.23 1715.55,1363.09 1719.16,1353.71 1722.78,1344.14 1726.39,1334.45 1730.01,1324.68 1733.62,1314.89 1737.24,1305.14 1740.86,1295.48 1744.47,1285.97 1748.09,1276.64 1751.7,1267.55 1755.32,1258.75 1758.93,1250.27 1762.55,1242.16 1766.16,1234.45 1769.78,1227.18 1773.39,1220.37 1777.01,1214.05 1780.62,1208.24 1784.24,1202.96 1787.86,1198.22 1791.47,1194.04 1795.09,1190.4 1798.7,1187.33 1802.32,1184.81 1805.93,1182.83 1809.55,1181.38 1813.16,1180.45 1816.78,1180.01 1820.39,1180.05 1824.01,1180.53 1827.62,1181.42 1831.24,1182.69 1834.85,1184.3 1838.47,1186.21 1842.09,1188.36 1845.7,1190.73 1849.32,1193.25 1852.93,1195.88 1856.55,1198.57 1860.16,1201.26 1863.78,1203.9 1867.39,1206.43 1871.01,1208.8 1874.62,1210.95 1878.24,1212.82 1881.85,1214.37 1885.47,1215.53 1889.09,1216.27 1892.7,1216.51 1896.32,1216.23 1899.93,1215.36 1903.55,1213.87 1907.16,1211.72 1910.78,1208.86 1914.39,1205.27 1918.01,1200.91 1921.62,1195.74 1925.24,1189.76 1928.85,1182.93 1932.47,1175.25 1936.09,1166.7 1939.7,1157.27 1943.32,1146.96 1946.93,1135.78 1950.55,1123.72 1954.16,1110.8 1957.78,1097.04 1961.39,1082.45 1965.01,1067.05 1968.62,1050.88 1972.24,1033.97 1975.85,1016.34 1979.47,998.047 1983.08,979.126 1986.7,959.624 1990.32,939.591 1993.93,919.077 1997.55,898.137 2001.16,876.828 2004.78,855.209 2008.39,833.339 2012.01,811.28 2015.62,789.095 2019.24,766.846 2022.85,744.597 2026.47,722.412 2030.08,700.353 2033.7,678.483 2037.32,656.864 2040.93,635.555 2044.55,614.615 2048.16,594.101 2051.78,574.068 2055.39,554.566 2059.01,535.645 2062.62,517.351 2066.24,499.726 2069.85,482.811 2073.47,466.639 2077.08,451.244 2080.7,436.652 2084.32,422.888 2087.93,409.97 2091.55,397.913 2095.16,386.728 2098.78,376.42 2102.39,366.992 2106.01,358.44 2109.62,350.758 2113.24,343.932 2116.85,337.949 2120.47,332.787 2124.08,328.422 2127.7,324.827 2131.31,321.971 2134.93,319.817 2138.55,318.328 2142.16,317.463 2145.78,317.178 2149.39,317.426 2153.01,318.158 2156.62,319.324 2160.24,320.871 2163.85,322.747 2167.47,324.896 2171.08,327.263 2174.7,329.793 2178.31,332.43 2181.93,335.12 2185.55,337.807 2189.16,340.439 2192.78,342.963 2196.39,345.328 2200.01,347.487 2203.62,349.392 2207.24,350.999 2210.85,352.268 2214.47,353.16 2218.08,353.641 2221.7,353.677 2225.31,353.243 2228.93,352.312 2232.55,350.866 2236.16,348.887 2239.78,346.363 2243.39,343.287 2247.01,339.655 2250.62,335.467 2254.24,330.728 2257.85,325.448 2261.47,319.639 2265.08,313.32 2268.7,306.51 2272.31,299.237 2275.93,291.529 2279.54,283.419 2283.16,274.943 2286.78,266.14 2290.39,257.053 "/>
<polyline clip-path="url(#clip122)" style="stroke:#0000ff; stroke-linecap:round; stroke-linejoin:round; stroke-width:4; stroke-opacity:1; fill:none" points="338.094,353.677 338.094,317.178 "/>
<polyline clip-path="url(#clip122)" style="stroke:#0000ff; stroke-linecap:round; stroke-linejoin:round; stroke-width:4; stroke-opacity:1; fill:none" points="569.477,766.846 569.477,87.9763 "/>
<polyline clip-path="url(#clip122)" style="stroke:#0000ff; stroke-linecap:round; stroke-linejoin:round; stroke-width:4; stroke-opacity:1; fill:none" points="869.552,678.33 869.552,603.735 "/>
<polyline clip-path="url(#clip122)" style="stroke:#0000ff; stroke-linecap:round; stroke-linejoin:round; stroke-width:4; stroke-opacity:1; fill:none" points="1194.94,934.12 1194.94,599.572 "/>
<polyline clip-path="url(#clip122)" style="stroke:#0000ff; stroke-linecap:round; stroke-linejoin:round; stroke-width:4; stroke-opacity:1; fill:none" points="1455.24,929.957 1455.24,855.362 "/>
<polyline clip-path="url(#clip122)" style="stroke:#0000ff; stroke-linecap:round; stroke-linejoin:round; stroke-width:4; stroke-opacity:1; fill:none" points="1816.78,1216.51 1816.78,1180.01 "/>
<polyline clip-path="url(#clip122)" style="stroke:#0000ff; stroke-linecap:round; stroke-linejoin:round; stroke-width:4; stroke-opacity:1; fill:none" points="2145.78,353.677 2145.78,317.178 "/>
<polyline clip-path="url(#clip122)" style="stroke:#0000ff; stroke-linecap:round; stroke-linejoin:round; stroke-width:4; stroke-opacity:0.5; fill:none" stroke-dasharray="16, 10" points="338.094,353.677 414.016,353.677 "/>
<polyline clip-path="url(#clip122)" style="stroke:#0000ff; stroke-linecap:round; stroke-linejoin:round; stroke-width:4; stroke-opacity:0.5; fill:none" stroke-dasharray="16, 10" points="211.556,766.846 569.477,766.846 "/>
<polyline clip-path="url(#clip122)" style="stroke:#0000ff; stroke-linecap:round; stroke-linejoin:round; stroke-width:4; stroke-opacity:0.5; fill:none" stroke-dasharray="16, 10" points="775.553,678.33 869.552,678.33 "/>
<polyline clip-path="url(#clip122)" style="stroke:#0000ff; stroke-linecap:round; stroke-linejoin:round; stroke-width:4; stroke-opacity:0.5; fill:none" stroke-dasharray="16, 10" points="1035.86,934.12 1194.94,934.12 "/>
<polyline clip-path="url(#clip122)" style="stroke:#0000ff; stroke-linecap:round; stroke-linejoin:round; stroke-width:4; stroke-opacity:0.5; fill:none" stroke-dasharray="16, 10" points="1361.24,929.957 1455.24,929.957 "/>
<polyline clip-path="url(#clip122)" style="stroke:#0000ff; stroke-linecap:round; stroke-linejoin:round; stroke-width:4; stroke-opacity:0.5; fill:none" stroke-dasharray="16, 10" points="1816.78,1216.51 1892.7,1216.51 "/>
<polyline clip-path="url(#clip122)" style="stroke:#0000ff; stroke-linecap:round; stroke-linejoin:round; stroke-width:4; stroke-opacity:0.5; fill:none" stroke-dasharray="16, 10" points="2145.78,353.677 2221.7,353.677 "/>
<polyline clip-path="url(#clip122)" style="stroke:#808080; stroke-linecap:round; stroke-linejoin:round; stroke-width:4; stroke-opacity:1; fill:none" stroke-dasharray="16, 10" points="310.936,335.428 374.662,335.428 "/>
<polyline clip-path="url(#clip122)" style="stroke:#808080; stroke-linecap:round; stroke-linejoin:round; stroke-width:4; stroke-opacity:1; fill:none" stroke-dasharray="16, 10" points="275.444,427.411 678.153,427.411 "/>
<polyline clip-path="url(#clip122)" style="stroke:#808080; stroke-linecap:round; stroke-linejoin:round; stroke-width:4; stroke-opacity:1; fill:none" stroke-dasharray="16, 10" points="820.633,641.032 907.92,641.032 "/>
<polyline clip-path="url(#clip122)" style="stroke:#808080; stroke-linecap:round; stroke-linejoin:round; stroke-width:4; stroke-opacity:1; fill:none" stroke-dasharray="16, 10" points="1115.4,766.846 1276.08,766.846 "/>
<polyline clip-path="url(#clip122)" style="stroke:#808080; stroke-linecap:round; stroke-linejoin:round; stroke-width:4; stroke-opacity:1; fill:none" stroke-dasharray="16, 10" points="1410.16,892.66 1493.64,892.66 "/>
<polyline clip-path="url(#clip122)" style="stroke:#808080; stroke-linecap:round; stroke-linejoin:round; stroke-width:4; stroke-opacity:1; fill:none" stroke-dasharray="16, 10" points="1787.83,1198.26 1856.13,1198.26 "/>
<polyline clip-path="url(#clip122)" style="stroke:#808080; stroke-linecap:round; stroke-linejoin:round; stroke-width:4; stroke-opacity:1; fill:none" stroke-dasharray="16, 10" points="2118.62,335.428 2182.34,335.428 "/>
<circle clip-path="url(#clip122)" cx="310.936" cy="335.428" r="14.4" fill="#808080" fill-rule="evenodd" fill-opacity="1" stroke="#000000" stroke-opacity="1" stroke-width="3.2"/>
<circle clip-path="url(#clip122)" cx="374.662" cy="335.428" r="14.4" fill="#808080" fill-rule="evenodd" fill-opacity="1" stroke="#000000" stroke-opacity="1" stroke-width="3.2"/>
<circle clip-path="url(#clip122)" cx="275.444" cy="427.411" r="14.4" fill="#808080" fill-rule="evenodd" fill-opacity="1" stroke="#000000" stroke-opacity="1" stroke-width="3.2"/>
<circle clip-path="url(#clip122)" cx="678.153" cy="427.411" r="14.4" fill="#808080" fill-rule="evenodd" fill-opacity="1" stroke="#000000" stroke-opacity="1" stroke-width="3.2"/>
<circle clip-path="url(#clip122)" cx="820.633" cy="641.032" r="14.4" fill="#808080" fill-rule="evenodd" fill-opacity="1" stroke="#000000" stroke-opacity="1" stroke-width="3.2"/>
<circle clip-path="url(#clip122)" cx="907.92" cy="641.032" r="14.4" fill="#808080" fill-rule="evenodd" fill-opacity="1" stroke="#000000" stroke-opacity="1" stroke-width="3.2"/>
<circle clip-path="url(#clip122)" cx="1115.4" cy="766.846" r="14.4" fill="#808080" fill-rule="evenodd" fill-opacity="1" stroke="#000000" stroke-opacity="1" stroke-width="3.2"/>
<circle clip-path="url(#clip122)" cx="1276.08" cy="766.846" r="14.4" fill="#808080" fill-rule="evenodd" fill-opacity="1" stroke="#000000" stroke-opacity="1" stroke-width="3.2"/>
<circle clip-path="url(#clip122)" cx="1410.16" cy="892.66" r="14.4" fill="#808080" fill-rule="evenodd" fill-opacity="1" stroke="#000000" stroke-opacity="1" stroke-width="3.2"/>
<circle clip-path="url(#clip122)" cx="1493.64" cy="892.66" r="14.4" fill="#808080" fill-rule="evenodd" fill-opacity="1" stroke="#000000" stroke-opacity="1" stroke-width="3.2"/>
<circle clip-path="url(#clip122)" cx="1787.83" cy="1198.26" r="14.4" fill="#808080" fill-rule="evenodd" fill-opacity="1" stroke="#000000" stroke-opacity="1" stroke-width="3.2"/>
<circle clip-path="url(#clip122)" cx="1856.13" cy="1198.26" r="14.4" fill="#808080" fill-rule="evenodd" fill-opacity="1" stroke="#000000" stroke-opacity="1" stroke-width="3.2"/>
<circle clip-path="url(#clip122)" cx="2118.62" cy="335.428" r="14.4" fill="#808080" fill-rule="evenodd" fill-opacity="1" stroke="#000000" stroke-opacity="1" stroke-width="3.2"/>
<circle clip-path="url(#clip122)" cx="2182.34" cy="335.428" r="14.4" fill="#808080" fill-rule="evenodd" fill-opacity="1" stroke="#000000" stroke-opacity="1" stroke-width="3.2"/>
<circle clip-path="url(#clip122)" cx="338.094" cy="317.178" r="14.4" fill="#ff0000" fill-rule="evenodd" fill-opacity="1" stroke="#000000" stroke-opacity="1" stroke-width="3.2"/>
<circle clip-path="url(#clip122)" cx="569.477" cy="87.9763" r="14.4" fill="#ff0000" fill-rule="evenodd" fill-opacity="1" stroke="#000000" stroke-opacity="1" stroke-width="3.2"/>
<circle clip-path="url(#clip122)" cx="869.552" cy="603.735" r="14.4" fill="#ff0000" fill-rule="evenodd" fill-opacity="1" stroke="#000000" stroke-opacity="1" stroke-width="3.2"/>
<circle clip-path="url(#clip122)" cx="1194.94" cy="599.572" r="14.4" fill="#ff0000" fill-rule="evenodd" fill-opacity="1" stroke="#000000" stroke-opacity="1" stroke-width="3.2"/>
<circle clip-path="url(#clip122)" cx="1455.24" cy="855.362" r="14.4" fill="#ff0000" fill-rule="evenodd" fill-opacity="1" stroke="#000000" stroke-opacity="1" stroke-width="3.2"/>
<circle clip-path="url(#clip122)" cx="1816.78" cy="1180.01" r="14.4" fill="#ff0000" fill-rule="evenodd" fill-opacity="1" stroke="#000000" stroke-opacity="1" stroke-width="3.2"/>
<circle clip-path="url(#clip122)" cx="2145.78" cy="317.178" r="14.4" fill="#ff0000" fill-rule="evenodd" fill-opacity="1" stroke="#000000" stroke-opacity="1" stroke-width="3.2"/>
<path clip-path="url(#clip120)" d="M222.643 1438.47 L717.558 1438.47 L717.558 1179.27 L222.643 1179.27  Z" fill="#ffffff" fill-rule="evenodd" fill-opacity="1"/>
<polyline clip-path="url(#clip120)" style="stroke:#000000; stroke-linecap:round; stroke-linejoin:round; stroke-width:4; stroke-opacity:1; fill:none" points="222.643,1438.47 717.558,1438.47 717.558,1179.27 222.643,1179.27 222.643,1438.47 "/>
<polyline clip-path="url(#clip120)" style="stroke:#000000; stroke-linecap:round; stroke-linejoin:round; stroke-width:8; stroke-opacity:1; fill:none" points="247.127,1231.11 394.031,1231.11 "/>
<path clip-path="url(#clip120)" d="M436.941 1223.23 L436.941 1227.26 Q435.136 1226.33 433.191 1225.87 Q431.247 1225.41 429.164 1225.41 Q425.992 1225.41 424.395 1226.38 Q422.821 1227.35 422.821 1229.3 Q422.821 1230.78 423.955 1231.64 Q425.09 1232.47 428.515 1233.23 L429.974 1233.56 Q434.511 1234.53 436.409 1236.31 Q438.33 1238.07 438.33 1241.24 Q438.33 1244.85 435.46 1246.96 Q432.613 1249.07 427.613 1249.07 Q425.529 1249.07 423.261 1248.65 Q421.015 1248.26 418.515 1247.45 L418.515 1243.05 Q420.877 1244.27 423.168 1244.9 Q425.46 1245.5 427.705 1245.5 Q430.714 1245.5 432.335 1244.48 Q433.955 1243.44 433.955 1241.57 Q433.955 1239.83 432.775 1238.9 Q431.617 1237.98 427.659 1237.12 L426.177 1236.77 Q422.219 1235.94 420.46 1234.23 Q418.701 1232.49 418.701 1229.48 Q418.701 1225.83 421.293 1223.83 Q423.886 1221.84 428.654 1221.84 Q431.015 1221.84 433.099 1222.19 Q435.182 1222.54 436.941 1223.23 Z" fill="#000000" fill-rule="nonzero" fill-opacity="1" /><path clip-path="url(#clip120)" d="M445.113 1222.47 L449.372 1222.47 L449.372 1248.39 L445.113 1248.39 L445.113 1222.47 M445.113 1212.38 L449.372 1212.38 L449.372 1217.77 L445.113 1217.77 L445.113 1212.38 Z" fill="#000000" fill-rule="nonzero" fill-opacity="1" /><path clip-path="url(#clip120)" d="M475.344 1235.13 Q475.344 1230.5 473.423 1227.95 Q471.524 1225.41 468.075 1225.41 Q464.649 1225.41 462.728 1227.95 Q460.83 1230.5 460.83 1235.13 Q460.83 1239.74 462.728 1242.28 Q464.649 1244.83 468.075 1244.83 Q471.524 1244.83 473.423 1242.28 Q475.344 1239.74 475.344 1235.13 M479.603 1245.18 Q479.603 1251.8 476.663 1255.01 Q473.724 1258.26 467.659 1258.26 Q465.413 1258.26 463.423 1257.91 Q461.432 1257.58 459.557 1256.89 L459.557 1252.75 Q461.432 1253.76 463.261 1254.25 Q465.089 1254.74 466.987 1254.74 Q471.177 1254.74 473.261 1252.54 Q475.344 1250.36 475.344 1245.94 L475.344 1243.83 Q474.024 1246.13 471.964 1247.26 Q469.904 1248.39 467.034 1248.39 Q462.265 1248.39 459.349 1244.76 Q456.432 1241.13 456.432 1235.13 Q456.432 1229.11 459.349 1225.48 Q462.265 1221.84 467.034 1221.84 Q469.904 1221.84 471.964 1222.98 Q474.024 1224.11 475.344 1226.4 L475.344 1222.47 L479.603 1222.47 L479.603 1245.18 Z" fill="#000000" fill-rule="nonzero" fill-opacity="1" /><path clip-path="url(#clip120)" d="M509.927 1232.75 L509.927 1248.39 L505.668 1248.39 L505.668 1232.89 Q505.668 1229.2 504.233 1227.38 Q502.797 1225.55 499.927 1225.55 Q496.478 1225.55 494.487 1227.75 Q492.497 1229.95 492.497 1233.74 L492.497 1248.39 L488.214 1248.39 L488.214 1222.47 L492.497 1222.47 L492.497 1226.5 Q494.024 1224.16 496.085 1223 Q498.168 1221.84 500.876 1221.84 Q505.344 1221.84 507.635 1224.62 Q509.927 1227.38 509.927 1232.75 Z" fill="#000000" fill-rule="nonzero" fill-opacity="1" /><path clip-path="url(#clip120)" d="M530.205 1235.36 Q525.043 1235.36 523.052 1236.54 Q521.061 1237.72 521.061 1240.57 Q521.061 1242.84 522.543 1244.18 Q524.047 1245.5 526.617 1245.5 Q530.158 1245.5 532.288 1243 Q534.441 1240.48 534.441 1236.31 L534.441 1235.36 L530.205 1235.36 M538.7 1233.6 L538.7 1248.39 L534.441 1248.39 L534.441 1244.46 Q532.982 1246.82 530.807 1247.95 Q528.631 1249.07 525.483 1249.07 Q521.501 1249.07 519.14 1246.84 Q516.802 1244.6 516.802 1240.85 Q516.802 1236.47 519.719 1234.25 Q522.658 1232.03 528.469 1232.03 L534.441 1232.03 L534.441 1231.61 Q534.441 1228.67 532.496 1227.08 Q530.575 1225.45 527.08 1225.45 Q524.858 1225.45 522.751 1225.99 Q520.645 1226.52 518.7 1227.58 L518.7 1223.65 Q521.038 1222.75 523.237 1222.31 Q525.436 1221.84 527.52 1221.84 Q533.144 1221.84 535.922 1224.76 Q538.7 1227.68 538.7 1233.6 Z" fill="#000000" fill-rule="nonzero" fill-opacity="1" /><path clip-path="url(#clip120)" d="M547.473 1212.38 L551.732 1212.38 L551.732 1248.39 L547.473 1248.39 L547.473 1212.38 Z" fill="#000000" fill-rule="nonzero" fill-opacity="1" /><polyline clip-path="url(#clip120)" style="stroke:#0000ff; stroke-linecap:round; stroke-linejoin:round; stroke-width:4; stroke-opacity:1; fill:none" points="247.127,1282.95 394.031,1282.95 "/>
<path clip-path="url(#clip120)" d="M422.798 1296.35 L422.798 1310.1 L418.515 1310.1 L418.515 1274.31 L422.798 1274.31 L422.798 1278.24 Q424.14 1275.93 426.177 1274.82 Q428.238 1273.68 431.085 1273.68 Q435.807 1273.68 438.747 1277.43 Q441.71 1281.18 441.71 1287.29 Q441.71 1293.41 438.747 1297.16 Q435.807 1300.91 431.085 1300.91 Q428.238 1300.91 426.177 1299.79 Q424.14 1298.66 422.798 1296.35 M437.289 1287.29 Q437.289 1282.6 435.344 1279.93 Q433.423 1277.25 430.043 1277.25 Q426.664 1277.25 424.719 1279.93 Q422.798 1282.6 422.798 1287.29 Q422.798 1291.99 424.719 1294.68 Q426.664 1297.34 430.043 1297.34 Q433.423 1297.34 435.344 1294.68 Q437.289 1291.99 437.289 1287.29 Z" fill="#000000" fill-rule="nonzero" fill-opacity="1" /><path clip-path="url(#clip120)" d="M463.793 1278.29 Q463.075 1277.87 462.219 1277.69 Q461.386 1277.48 460.367 1277.48 Q456.756 1277.48 454.812 1279.84 Q452.89 1282.18 452.89 1286.58 L452.89 1300.23 L448.608 1300.23 L448.608 1274.31 L452.89 1274.31 L452.89 1278.34 Q454.233 1275.98 456.386 1274.84 Q458.538 1273.68 461.617 1273.68 Q462.057 1273.68 462.589 1273.75 Q463.122 1273.8 463.77 1273.92 L463.793 1278.29 Z" fill="#000000" fill-rule="nonzero" fill-opacity="1" /><path clip-path="url(#clip120)" d="M477.265 1277.29 Q473.839 1277.29 471.849 1279.98 Q469.858 1282.64 469.858 1287.29 Q469.858 1291.95 471.825 1294.63 Q473.816 1297.29 477.265 1297.29 Q480.668 1297.29 482.659 1294.61 Q484.649 1291.92 484.649 1287.29 Q484.649 1282.69 482.659 1280 Q480.668 1277.29 477.265 1277.29 M477.265 1273.68 Q482.821 1273.68 485.992 1277.29 Q489.163 1280.91 489.163 1287.29 Q489.163 1293.66 485.992 1297.29 Q482.821 1300.91 477.265 1300.91 Q471.686 1300.91 468.515 1297.29 Q465.367 1293.66 465.367 1287.29 Q465.367 1280.91 468.515 1277.29 Q471.686 1273.68 477.265 1273.68 Z" fill="#000000" fill-rule="nonzero" fill-opacity="1" /><path clip-path="url(#clip120)" d="M516.408 1279.29 Q518.006 1276.42 520.228 1275.05 Q522.45 1273.68 525.459 1273.68 Q529.51 1273.68 531.709 1276.53 Q533.908 1279.35 533.908 1284.59 L533.908 1300.23 L529.626 1300.23 L529.626 1284.73 Q529.626 1281 528.307 1279.19 Q526.987 1277.39 524.279 1277.39 Q520.969 1277.39 519.047 1279.59 Q517.126 1281.79 517.126 1285.58 L517.126 1300.23 L512.844 1300.23 L512.844 1284.73 Q512.844 1280.98 511.524 1279.19 Q510.205 1277.39 507.45 1277.39 Q504.186 1277.39 502.265 1279.61 Q500.344 1281.81 500.344 1285.58 L500.344 1300.23 L496.061 1300.23 L496.061 1274.31 L500.344 1274.31 L500.344 1278.34 Q501.802 1275.95 503.839 1274.82 Q505.876 1273.68 508.677 1273.68 Q511.501 1273.68 513.469 1275.12 Q515.459 1276.55 516.408 1279.29 Z" fill="#000000" fill-rule="nonzero" fill-opacity="1" /><path clip-path="url(#clip120)" d="M542.404 1274.31 L546.663 1274.31 L546.663 1300.23 L542.404 1300.23 L542.404 1274.31 M542.404 1264.22 L546.663 1264.22 L546.663 1269.61 L542.404 1269.61 L542.404 1264.22 Z" fill="#000000" fill-rule="nonzero" fill-opacity="1" /><path clip-path="url(#clip120)" d="M577.126 1284.59 L577.126 1300.23 L572.867 1300.23 L572.867 1284.73 Q572.867 1281.04 571.431 1279.22 Q569.996 1277.39 567.126 1277.39 Q563.677 1277.39 561.686 1279.59 Q559.695 1281.79 559.695 1285.58 L559.695 1300.23 L555.413 1300.23 L555.413 1274.31 L559.695 1274.31 L559.695 1278.34 Q561.223 1276 563.283 1274.84 Q565.367 1273.68 568.075 1273.68 Q572.542 1273.68 574.834 1276.46 Q577.126 1279.22 577.126 1284.59 Z" fill="#000000" fill-rule="nonzero" fill-opacity="1" /><path clip-path="url(#clip120)" d="M607.797 1286.21 L607.797 1288.29 L588.214 1288.29 Q588.491 1292.69 590.853 1295 Q593.237 1297.29 597.473 1297.29 Q599.927 1297.29 602.218 1296.69 Q604.533 1296.09 606.802 1294.89 L606.802 1298.91 Q604.51 1299.89 602.102 1300.4 Q599.695 1300.91 597.218 1300.91 Q591.015 1300.91 587.38 1297.29 Q583.769 1293.68 583.769 1287.53 Q583.769 1281.16 587.195 1277.43 Q590.644 1273.68 596.477 1273.68 Q601.709 1273.68 604.741 1277.06 Q607.797 1280.42 607.797 1286.21 M603.538 1284.96 Q603.491 1281.46 601.57 1279.38 Q599.672 1277.29 596.524 1277.29 Q592.959 1277.29 590.806 1279.31 Q588.677 1281.32 588.353 1284.98 L603.538 1284.96 Z" fill="#000000" fill-rule="nonzero" fill-opacity="1" /><path clip-path="url(#clip120)" d="M636.338 1284.59 L636.338 1300.23 L632.079 1300.23 L632.079 1284.73 Q632.079 1281.04 630.644 1279.22 Q629.209 1277.39 626.338 1277.39 Q622.889 1277.39 620.899 1279.59 Q618.908 1281.79 618.908 1285.58 L618.908 1300.23 L614.626 1300.23 L614.626 1274.31 L618.908 1274.31 L618.908 1278.34 Q620.436 1276 622.496 1274.84 Q624.579 1273.68 627.288 1273.68 Q631.755 1273.68 634.047 1276.46 Q636.338 1279.22 636.338 1284.59 Z" fill="#000000" fill-rule="nonzero" fill-opacity="1" /><path clip-path="url(#clip120)" d="M663.491 1275.3 L663.491 1279.29 Q661.685 1278.29 659.857 1277.8 Q658.051 1277.29 656.199 1277.29 Q652.056 1277.29 649.764 1279.93 Q647.473 1282.55 647.473 1287.29 Q647.473 1292.04 649.764 1294.68 Q652.056 1297.29 656.199 1297.29 Q658.051 1297.29 659.857 1296.81 Q661.685 1296.3 663.491 1295.3 L663.491 1299.24 Q661.709 1300.07 659.787 1300.49 Q657.889 1300.91 655.736 1300.91 Q649.88 1300.91 646.431 1297.23 Q642.982 1293.54 642.982 1287.29 Q642.982 1280.95 646.454 1277.32 Q649.949 1273.68 656.014 1273.68 Q657.982 1273.68 659.857 1274.1 Q661.732 1274.49 663.491 1275.3 Z" fill="#000000" fill-rule="nonzero" fill-opacity="1" /><path clip-path="url(#clip120)" d="M693.074 1286.21 L693.074 1288.29 L673.491 1288.29 Q673.769 1292.69 676.13 1295 Q678.514 1297.29 682.75 1297.29 Q685.204 1297.29 687.496 1296.69 Q689.81 1296.09 692.079 1294.89 L692.079 1298.91 Q689.787 1299.89 687.38 1300.4 Q684.972 1300.91 682.496 1300.91 Q676.292 1300.91 672.658 1297.29 Q669.047 1293.68 669.047 1287.53 Q669.047 1281.16 672.472 1277.43 Q675.922 1273.68 681.755 1273.68 Q686.986 1273.68 690.019 1277.06 Q693.074 1280.42 693.074 1286.21 M688.815 1284.96 Q688.769 1281.46 686.847 1279.38 Q684.949 1277.29 681.801 1277.29 Q678.236 1277.29 676.084 1279.31 Q673.954 1281.32 673.63 1284.98 L688.815 1284.96 Z" fill="#000000" fill-rule="nonzero" fill-opacity="1" /><polyline clip-path="url(#clip120)" style="stroke:#808080; stroke-linecap:round; stroke-linejoin:round; stroke-width:4; stroke-opacity:1; fill:none" stroke-dasharray="16, 10" points="247.127,1334.79 394.031,1334.79 "/>
<path clip-path="url(#clip120)" d="M418.515 1326.15 L422.775 1326.15 L428.099 1346.38 L433.4 1326.15 L438.423 1326.15 L443.747 1346.38 L449.048 1326.15 L453.307 1326.15 L446.525 1352.07 L441.501 1352.07 L435.923 1330.82 L430.321 1352.07 L425.298 1352.07 L418.515 1326.15 Z" fill="#000000" fill-rule="nonzero" fill-opacity="1" /><path clip-path="url(#clip120)" d="M459.765 1326.15 L464.024 1326.15 L464.024 1352.07 L459.765 1352.07 L459.765 1326.15 M459.765 1316.06 L464.024 1316.06 L464.024 1321.45 L459.765 1321.45 L459.765 1316.06 Z" fill="#000000" fill-rule="nonzero" fill-opacity="1" /><path clip-path="url(#clip120)" d="M489.997 1330.08 L489.997 1316.06 L494.256 1316.06 L494.256 1352.07 L489.997 1352.07 L489.997 1348.19 Q488.654 1350.5 486.594 1351.63 Q484.557 1352.75 481.686 1352.75 Q476.987 1352.75 474.024 1349 Q471.085 1345.25 471.085 1339.13 Q471.085 1333.02 474.024 1329.27 Q476.987 1325.52 481.686 1325.52 Q484.557 1325.52 486.594 1326.66 Q488.654 1327.77 489.997 1330.08 M475.483 1339.13 Q475.483 1343.83 477.404 1346.52 Q479.348 1349.18 482.728 1349.18 Q486.108 1349.18 488.052 1346.52 Q489.997 1343.83 489.997 1339.13 Q489.997 1334.44 488.052 1331.77 Q486.108 1329.09 482.728 1329.09 Q479.348 1329.09 477.404 1331.77 Q475.483 1334.44 475.483 1339.13 Z" fill="#000000" fill-rule="nonzero" fill-opacity="1" /><path clip-path="url(#clip120)" d="M507.242 1318.79 L507.242 1326.15 L516.015 1326.15 L516.015 1329.46 L507.242 1329.46 L507.242 1343.53 Q507.242 1346.7 508.098 1347.61 Q508.978 1348.51 511.64 1348.51 L516.015 1348.51 L516.015 1352.07 L511.64 1352.07 Q506.709 1352.07 504.834 1350.25 Q502.959 1348.39 502.959 1343.53 L502.959 1329.46 L499.834 1329.46 L499.834 1326.15 L502.959 1326.15 L502.959 1318.79 L507.242 1318.79 Z" fill="#000000" fill-rule="nonzero" fill-opacity="1" /><path clip-path="url(#clip120)" d="M543.168 1336.43 L543.168 1352.07 L538.908 1352.07 L538.908 1336.57 Q538.908 1332.88 537.473 1331.06 Q536.038 1329.23 533.168 1329.23 Q529.719 1329.23 527.728 1331.43 Q525.737 1333.63 525.737 1337.42 L525.737 1352.07 L521.455 1352.07 L521.455 1316.06 L525.737 1316.06 L525.737 1330.18 Q527.265 1327.84 529.325 1326.68 Q531.408 1325.52 534.117 1325.52 Q538.584 1325.52 540.876 1328.3 Q543.168 1331.06 543.168 1336.43 Z" fill="#000000" fill-rule="nonzero" fill-opacity="1" /><circle clip-path="url(#clip120)" cx="320.579" cy="1386.63" r="20.48" fill="#ff0000" fill-rule="evenodd" fill-opacity="1" stroke="#000000" stroke-opacity="1" stroke-width="4.55111"/>
<path clip-path="url(#clip120)" d="M438.863 1382.97 Q440.46 1380.1 442.682 1378.73 Q444.904 1377.36 447.913 1377.36 Q451.964 1377.36 454.163 1380.21 Q456.363 1383.03 456.363 1388.27 L456.363 1403.91 L452.08 1403.91 L452.08 1388.41 Q452.08 1384.68 450.761 1382.87 Q449.441 1381.07 446.733 1381.07 Q443.423 1381.07 441.501 1383.27 Q439.58 1385.47 439.58 1389.26 L439.58 1403.91 L435.298 1403.91 L435.298 1388.41 Q435.298 1384.66 433.978 1382.87 Q432.659 1381.07 429.904 1381.07 Q426.64 1381.07 424.719 1383.29 Q422.798 1385.49 422.798 1389.26 L422.798 1403.91 L418.515 1403.91 L418.515 1377.99 L422.798 1377.99 L422.798 1382.02 Q424.256 1379.63 426.293 1378.5 Q428.33 1377.36 431.131 1377.36 Q433.955 1377.36 435.923 1378.8 Q437.914 1380.23 438.863 1382.97 Z" fill="#000000" fill-rule="nonzero" fill-opacity="1" /><path clip-path="url(#clip120)" d="M476.64 1390.88 Q471.478 1390.88 469.487 1392.06 Q467.497 1393.24 467.497 1396.09 Q467.497 1398.36 468.978 1399.7 Q470.483 1401.02 473.052 1401.02 Q476.594 1401.02 478.723 1398.52 Q480.876 1396 480.876 1391.83 L480.876 1390.88 L476.64 1390.88 M485.135 1389.12 L485.135 1403.91 L480.876 1403.91 L480.876 1399.98 Q479.418 1402.34 477.242 1403.47 Q475.066 1404.59 471.918 1404.59 Q467.937 1404.59 465.575 1402.36 Q463.237 1400.12 463.237 1396.37 Q463.237 1391.99 466.154 1389.77 Q469.094 1387.55 474.904 1387.55 L480.876 1387.55 L480.876 1387.13 Q480.876 1384.19 478.932 1382.6 Q477.011 1380.97 473.515 1380.97 Q471.293 1380.97 469.187 1381.51 Q467.08 1382.04 465.136 1383.1 L465.136 1379.17 Q467.474 1378.27 469.673 1377.83 Q471.872 1377.36 473.955 1377.36 Q479.58 1377.36 482.358 1380.28 Q485.135 1383.2 485.135 1389.12 Z" fill="#000000" fill-rule="nonzero" fill-opacity="1" /><path clip-path="url(#clip120)" d="M515.459 1377.99 L506.084 1390.6 L515.946 1403.91 L510.922 1403.91 L503.376 1393.73 L495.83 1403.91 L490.807 1403.91 L500.876 1390.35 L491.663 1377.99 L496.686 1377.99 L503.561 1387.22 L510.436 1377.99 L515.459 1377.99 Z" fill="#000000" fill-rule="nonzero" fill-opacity="1" /><path clip-path="url(#clip120)" d="M521.964 1377.99 L526.223 1377.99 L526.223 1403.91 L521.964 1403.91 L521.964 1377.99 M521.964 1367.9 L526.223 1367.9 L526.223 1373.29 L521.964 1373.29 L521.964 1367.9 Z" fill="#000000" fill-rule="nonzero" fill-opacity="1" /><path clip-path="url(#clip120)" d="M555.32 1382.97 Q556.918 1380.1 559.14 1378.73 Q561.362 1377.36 564.371 1377.36 Q568.422 1377.36 570.621 1380.21 Q572.82 1383.03 572.82 1388.27 L572.82 1403.91 L568.538 1403.91 L568.538 1388.41 Q568.538 1384.68 567.218 1382.87 Q565.899 1381.07 563.191 1381.07 Q559.88 1381.07 557.959 1383.27 Q556.038 1385.47 556.038 1389.26 L556.038 1403.91 L551.756 1403.91 L551.756 1388.41 Q551.756 1384.66 550.436 1382.87 Q549.117 1381.07 546.362 1381.07 Q543.098 1381.07 541.177 1383.29 Q539.256 1385.49 539.256 1389.26 L539.256 1403.91 L534.973 1403.91 L534.973 1377.99 L539.256 1377.99 L539.256 1382.02 Q540.714 1379.63 542.751 1378.5 Q544.788 1377.36 547.589 1377.36 Q550.413 1377.36 552.381 1378.8 Q554.371 1380.23 555.32 1382.97 Z" fill="#000000" fill-rule="nonzero" fill-opacity="1" /><path clip-path="url(#clip120)" d="M593.098 1390.88 Q587.936 1390.88 585.945 1392.06 Q583.954 1393.24 583.954 1396.09 Q583.954 1398.36 585.436 1399.7 Q586.941 1401.02 589.51 1401.02 Q593.052 1401.02 595.181 1398.52 Q597.334 1396 597.334 1391.83 L597.334 1390.88 L593.098 1390.88 M601.593 1389.12 L601.593 1403.91 L597.334 1403.91 L597.334 1399.98 Q595.876 1402.34 593.7 1403.47 Q591.524 1404.59 588.376 1404.59 Q584.394 1404.59 582.033 1402.36 Q579.695 1400.12 579.695 1396.37 Q579.695 1391.99 582.612 1389.77 Q585.552 1387.55 591.362 1387.55 L597.334 1387.55 L597.334 1387.13 Q597.334 1384.19 595.39 1382.6 Q593.468 1380.97 589.973 1380.97 Q587.751 1380.97 585.644 1381.51 Q583.538 1382.04 581.593 1383.1 L581.593 1379.17 Q583.931 1378.27 586.13 1377.83 Q588.329 1377.36 590.413 1377.36 Q596.038 1377.36 598.815 1380.28 Q601.593 1383.2 601.593 1389.12 Z" fill="#000000" fill-rule="nonzero" fill-opacity="1" /></svg>
